<svg xmlns="http://www.w3.org/2000/svg" viewBox="0 0 163.17 132.51"><defs><style>.cls-1{fill:#008599;}.cls-2{fill:#fff;}.cls-3{fill:#2cb34a;}</style></defs><g id="Layer_2" data-name="Layer 2"><g id="Logo"><polygon class="cls-1" points="0 0 0 132.51 141.91 132.51 163.17 111.25 163.17 0 0 0"/><rect class="cls-2" x="3.54" y="3.54" width="156.09" height="100.63"/><path class="cls-2" d="M10.66,122.23l2.78-1.61a3,3,0,0,0,3,1.95c1.53,0,1.91-.6,1.91-1.15,0-.86-.8-1.21-2.91-1.79s-4.15-1.59-4.15-4.29,2.29-4.28,4.73-4.28a5.46,5.46,0,0,1,5.15,3.18l-2.72,1.59A2.45,2.45,0,0,0,16,114.2c-1,0-1.51.5-1.51,1.06s.34,1.09,2.53,1.75,4.53,1.39,4.53,4.37c0,2.72-2.17,4.33-5.23,4.33S11.45,124.3,10.66,122.23Z"/><path class="cls-2" d="M23.2,118.38a7.33,7.33,0,1,1,7.33,7.33A7.27,7.27,0,0,1,23.2,118.38Zm11.44,0a4.11,4.11,0,1,0-4.11,4.19A4,4,0,0,0,34.64,118.38Z"/><path class="cls-2" d="M45.41,120v5.42H42.18V120l-4.73-8.67h3.67l2.67,5.43,2.68-5.43h3.66Z"/><path class="cls-2" d="M62.21,121.3c0,2.5-2,4.13-4.55,4.13H51.74V111.34h5.52c2.46,0,4.45,1.59,4.45,4a3.54,3.54,0,0,1-1.23,2.76A3.64,3.64,0,0,1,62.21,121.3ZM55,114.36v2.49h2.29a1.25,1.25,0,0,0,0-2.49Zm4,6.7a1.28,1.28,0,0,0-1.33-1.35H55v2.7h2.69A1.27,1.27,0,0,0,59,121.06Z"/><path class="cls-2" d="M73.06,122.33v3.1H64.2V111.34H73v3.1H67.42v2.33h5v3.06h-5v2.5Z"/><path class="cls-2" d="M84.21,123.21H79l-.71,2.22H74.75l4.79-14.09h4.11l4.79,14.09H84.91Zm-1-3L81.59,115l-1.65,5.18Z"/><path class="cls-2" d="M101.22,111.34v14.09H98.8l-5.43-7.65v7.65H90.15V111.34h2.41L98,119v-7.65Z"/><path class="cls-2" d="M103.13,122.23l2.78-1.61a3,3,0,0,0,3,1.95c1.53,0,1.91-.6,1.91-1.15,0-.86-.81-1.21-2.92-1.79s-4.15-1.59-4.15-4.29,2.3-4.28,4.73-4.28a5.46,5.46,0,0,1,5.16,3.18l-2.72,1.59a2.47,2.47,0,0,0-2.44-1.63c-1,0-1.51.5-1.51,1.06s.35,1.09,2.54,1.75,4.53,1.39,4.53,4.37c0,2.72-2.17,4.33-5.23,4.33S103.92,124.3,103.13,122.23Z"/><path class="cls-3" d="M62.53,38h41.21a49.8,49.8,0,0,1-1.19,5.61h-40a2.81,2.81,0,1,1,0-5.61m3.59,7.59a2.81,2.81,0,1,0,0,5.61h34.47L102,45.61ZM68.33,56a2.9,2.9,0,0,0,3,2.8H92.79c5.74,0,6.82-3.88,7.27-5.61H71.32a2.91,2.91,0,0,0-3,2.81M90.25,14.17c0,4.12,1,7.29,5.6,9.91a3.09,3.09,0,0,0,.67-1.92c0-4.66-4.41-6-5.17-11.53a8.88,8.88,0,0,0-4.3,7.52c0,6.39,6.32,7.9,6.32,10.84,0,.85-.67,1.43-1.78,1.43H64.93a2.81,2.81,0,1,0,0,5.61h38.81c0-9.13-14.47-9.79-14.26-19.12a6,6,0,0,1,.77-2.74"/><path class="cls-1" d="M61,91.49V70c0-1.7-1.13-2.22-3.64-2.22a17.84,17.84,0,0,0-3.2.28,14.92,14.92,0,0,1,.12,2.27V92.54c0,3.45,1.34,4.95,4.09,4.95,3.68,0,4.75-2.23,4.37-4.13C61.52,93.4,61,93,61,91.49"/><path class="cls-1" d="M68.72,76.59a17.06,17.06,0,0,0-3.19.29,15.83,15.83,0,0,1,.12,2.3v17.9h6.72V78.82c0-1.7-1.14-2.23-3.65-2.23"/><polygon class="cls-1" points="10.68 97.08 28.13 97.08 28.13 91.09 17.68 91.09 17.68 85.26 25.5 85.26 25.5 79.79 17.68 79.79 17.68 74.73 28.13 74.73 28.13 68.73 10.68 68.73 10.68 97.08"/><path class="cls-1" d="M50.29,85.7c0-5.39-1.42-9.27-6.8-9.27-4.86,0-6.23,3.28-6.23,3.28h-.13l-.61-2.88H31.63V97.08h6.71v-14a3.49,3.49,0,0,1,2.52-1.26c1.66,0,2.71,1.06,2.71,3.82v9.46c0,1.71,1.13,2.23,3.65,2.23a17.84,17.84,0,0,0,3.2-.28,14.87,14.87,0,0,1-.13-2.31Z"/><path class="cls-1" d="M69.25,67.72c-2.71,0-3.72,1.41-3.72,3.15,0,2.11,1,3.24,3.52,3.24,2.22,0,3.52-1.13,3.52-3.24a3.14,3.14,0,0,0-3.32-3.15"/><path class="cls-1" d="M85.52,84.65c-1.86-.48-3.08-1-3.08-2,0-.89,1-1.17,2.92-1.17a15.49,15.49,0,0,1,3.88.6l.52-4.73a20,20,0,0,0-6.18-1c-5.27,0-8,2.55-8,6.8,0,3.19,1.66,5.1,5.42,6.15,1.94.57,3.24,1,3.24,2s-1.05,1.34-3,1.34a15.68,15.68,0,0,1-4.86-1.06l-.69,4.54a19.33,19.33,0,0,0,7.26,1.42c5,0,8.26-2.52,8.26-6.85,0-3.16-1.78-5.1-5.67-6.07"/><path class="cls-1" d="M105.74,92.22a8.22,8.22,0,0,1-2.07.29c-.89,0-1.86-.13-1.86-2V81.29h4.13V76.83h-4.13V71.69H97.07s-.24,2.07-.48,3.73-1.13,2.22-3.65,2.22h-.37v3.65h2.52v9.19c0,5.18,1.45,7,5.62,7a13.66,13.66,0,0,0,5.51-1.21Z"/><polygon class="cls-1" points="113.03 68.76 130.46 68.76 130.46 74.74 120.03 74.74 120.03 79.8 127.83 79.8 127.83 85.26 120.03 85.26 120.03 91.09 130.46 91.09 130.46 97.08 113.03 97.08 113.03 68.76"/><path class="cls-1" d="M134.14,90.82a20.25,20.25,0,0,0,5.91,1.05c3.15,0,5-1.42,5-3.35,0-2.55-2.55-3.35-6.15-3.35h-1.62V79.65h1.41c2.71,0,5.67-.63,5.67-3.18,0-1.84-2-2.6-4.13-2.6a15.05,15.05,0,0,0-5.06,1L134,69.77a23,23,0,0,1,8.42-1.67c5.5,0,9.1,3,9.1,7.07a6.46,6.46,0,0,1-3.28,5.65,7.2,7.2,0,0,1-2.22.92v.09a7.46,7.46,0,0,1,2.3.71,7,7,0,0,1,4.25,6.19c0,5.11-4.21,8.83-10.52,8.83A25.73,25.73,0,0,1,133.09,96Z"/><path class="cls-1" d="M155.69,70.08A2.14,2.14,0,1,1,153.56,68,2.08,2.08,0,0,1,155.69,70.08Zm-3.74,0a1.61,1.61,0,0,0,1.62,1.67,1.67,1.67,0,0,0,0-3.33A1.61,1.61,0,0,0,152,70.08Zm1.28,1.1h-.48V69.1a4,4,0,0,1,.8-.07,1.37,1.37,0,0,1,.72.15.6.6,0,0,1,.2.46.52.52,0,0,1-.43.48v0a.6.6,0,0,1,.38.51,1.55,1.55,0,0,0,.16.52h-.52a1.55,1.55,0,0,1-.17-.51c0-.23-.16-.33-.43-.33h-.23Zm0-1.18h.23c.27,0,.48-.09.48-.31s-.14-.32-.44-.32a1.25,1.25,0,0,0-.27,0Z"/></g></g></svg>