<svg xmlns="http://www.w3.org/2000/svg" width="657.324" height="119.364" viewBox="0 0 657.324 119.364"><defs><style>.a{fill:#01558c;}.b{fill:#006096;}.c{fill:#04936f;}</style></defs><g transform="translate(-40.74 -34.609)"><g transform="translate(545.177 128.373)"><path class="a" d="M446.019,131.558l3.967-3.875A9.785,9.785,0,0,0,457,130.7c2.275,0,3.8-.887,4.06-2.346l.011-.07c.245-1.387-.494-2.1-4.532-3.165-4.864-1.28-7.907-2.667-7.035-7.607l.011-.072c.8-4.516,5.007-7.5,10.17-7.5a12.605,12.605,0,0,1,8.831,3.164L464.9,117.23a10.1,10.1,0,0,0-6.139-2.454c-2.13,0-3.417.961-3.629,2.171l-.014.071c-.288,1.635.7,2.168,4.874,3.271,4.9,1.316,7.463,3.129,6.7,7.467l-.014.071c-.871,4.941-5.187,7.716-10.636,7.716A13.7,13.7,0,0,1,446.019,131.558Z" transform="translate(-446.019 -109.942)"/><path class="a" d="M471.347,110.227h19.061l-.859,4.87H476.01l-.89,5.048h11.914l-.858,4.873H474.262l-.922,5.226h13.719l-.859,4.87H466.958Z" transform="translate(-440.896 -109.872)"/><path class="a" d="M492.492,110.227h11.552c3.214,0,5.549.889,6.922,2.524a6.76,6.76,0,0,1,1.163,5.688l-.012.072a9.708,9.708,0,0,1-6.777,7.714l4.608,8.889h-6.5l-4.01-7.963h-4.369l-1.4,7.963H488.1Zm9.061,12.089c2.706,0,4.509-1.423,4.879-3.521l.012-.071c.414-2.347-1.033-3.555-3.741-3.555h-5.523l-1.26,7.147Z" transform="translate(-435.722 -109.872)"/><path class="a" d="M515.087,110.227h5.562l-4.389,24.888H510.7Z" transform="translate(-430.194 -109.872)"/><path class="a" d="M526.058,110.227h19.061l-.859,4.87H530.721l-.89,5.048h11.914l-.858,4.873H528.973l-.922,5.226h13.719l-.859,4.87H521.669Z" transform="translate(-427.51 -109.872)"/><path class="a" d="M541.734,131.558l3.967-3.875a9.783,9.783,0,0,0,7.014,3.021c2.275,0,3.8-.887,4.06-2.346l.011-.07c.245-1.387-.494-2.1-4.532-3.165-4.864-1.28-7.907-2.667-7.036-7.607l.012-.072c.8-4.516,5.007-7.5,10.17-7.5a12.605,12.605,0,0,1,8.831,3.164l-3.618,4.124a10.107,10.107,0,0,0-6.139-2.454c-2.13,0-3.417.961-3.629,2.171l-.014.071c-.288,1.635.7,2.168,4.874,3.271,4.9,1.316,7.463,3.129,6.7,7.467l-.014.071c-.871,4.941-5.187,7.716-10.637,7.716A13.7,13.7,0,0,1,541.734,131.558Z" transform="translate(-422.601 -109.942)"/></g><path class="b" d="M291.111,74c-.835,3.435-1.613,7.019-2.657,10.522-.166.555-1.528,1.054-2.344,1.064-7.071.085-14.143.1-21.213.017-1.781-.022-2.64.515-3.039,2.31-1.373,6.16-2.889,12.29-4.381,18.56a26.912,26.912,0,0,0,14.752,2.71c14.492-1.311,24.76-8.634,30.534-22.1.251-.587.841-1.459,1.289-1.469,4.824-.107,9.652-.066,14.528-.066-3.551,18.963-21.09,36.662-44.127,38.475-25.727,2.024-47.528-15.822-52.266-38.343h15.159c2.1,4.406,3.946,9.142,8.176,12.711.768-2.868,1.528-5.5,2.177-8.169,1.221-5.018,2.316-10.069,3.632-15.062a2.756,2.756,0,0,1,2.019-1.623c12.331-.076,24.663-.025,37,.01C290.482,73.548,290.619,73.7,291.111,74Z" transform="translate(44.394 9.515)"/><path class="c" d="M318.99,75.836c-4.619,0-9.04.05-13.457-.066-.523-.014-1.187-.849-1.5-1.453-1.9-3.606-3.688-7.268-5.576-10.878a12.851,12.851,0,0,0-1.79-1.994c-.792,2.995-1.531,5.533-2.126,8.1-.869,3.755-.825,3.764-4.573,3.768l-32.307.032c-1.055,0-2.112,0-3.511,0,.718-2.876,1.408-5.44,1.991-8.028,1.168-5.169,1.144-5.175,6.376-5.175l29.593.006h2.647l.342-.615c-2.117-1.685-4.055-3.69-6.383-5-10.768-6.064-21.855-6.966-33.218-1.557-9.255,4.406-15.237,11.579-18.333,21.29-.2.625-1.017,1.481-1.566,1.5-4.582.119-9.167.068-13.781.068,2.214-18.307,18.634-37.937,42.077-40.815C294.781,31.227,316.46,54.562,318.99,75.836Z" transform="translate(44.303)"/><g transform="translate(40.74 57.567)"><path class="c" d="M61.477,67.22l-1.1,6.211a1.178,1.178,0,0,0,1.16,1.382H75.8a1.178,1.178,0,0,1,1.159,1.382L75.3,85.59a1.175,1.175,0,0,1-1.159.972H59.054a1.178,1.178,0,0,0-1.159.973l-3.112,17.648a1.176,1.176,0,0,1-1.159.972H41.919a1.178,1.178,0,0,1-1.16-1.382l8.949-50.746a1.176,1.176,0,0,1,1.159-.973H83.3a1.177,1.177,0,0,1,1.159,1.382L82.55,65.275a1.179,1.179,0,0,1-1.16.972H62.637A1.178,1.178,0,0,0,61.477,67.22Z" transform="translate(-40.74 -53.054)"/><path class="c" d="M83.988,53.16H95.863a1.176,1.176,0,0,1,1.159,1.38l-8.914,50.551a1.179,1.179,0,0,1-1.16.973H75.072a1.177,1.177,0,0,1-1.159-1.382l8.914-50.551A1.178,1.178,0,0,1,83.988,53.16Z" transform="translate(-32.628 -53.028)"/><path class="c" d="M114.745,67.194l-.887,5.031a1.177,1.177,0,0,0,1.16,1.382h14.256a1.178,1.178,0,0,1,1.16,1.382l-1.652,9.362a1.176,1.176,0,0,1-1.159.973H112.536a1.177,1.177,0,0,0-1.159.972l-.921,5.226a1.177,1.177,0,0,0,1.159,1.382h17.923a1.176,1.176,0,0,1,1.159,1.38l-1.906,10.807a1.177,1.177,0,0,1-1.159.973H95.2a1.176,1.176,0,0,1-1.159-1.382l8.914-50.551a1.175,1.175,0,0,1,1.159-.972h32.435a1.176,1.176,0,0,1,1.159,1.38l-1.888,10.709a1.179,1.179,0,0,1-1.16.972H115.9A1.178,1.178,0,0,0,114.745,67.194Z" transform="translate(-27.705 -53.028)"/><path class="c" d="M166.335,94.253l-1.913,10.839a1.176,1.176,0,0,1-1.159.973H130.828a1.177,1.177,0,0,1-1.159-1.382l8.914-50.551a1.176,1.176,0,0,1,1.159-.972h11.873a1.176,1.176,0,0,1,1.159,1.38L146.26,91.49a1.177,1.177,0,0,0,1.159,1.382h17.756A1.178,1.178,0,0,1,166.335,94.253Z" transform="translate(-18.987 -53.028)"/><path class="c" d="M214.183,79.678c-2.894,16.408-15.82,26.387-34.083,26.387H163.974a1.177,1.177,0,0,1-1.159-1.382l8.908-50.521a1.177,1.177,0,0,1,1.158-.972l16.549-.03C207.7,53.094,217.1,63.136,214.183,79.678Zm-14.293-.034c1.465-8.3-3.51-13.359-13.139-13.359h-2.279a1.176,1.176,0,0,0-1.159.973l-4.268,24.2a1.177,1.177,0,0,0,1.159,1.382h2C191.73,92.838,198.444,87.849,199.89,79.644Z" transform="translate(-10.877 -53.028)"/></g><g transform="translate(382.838 56.287)"><path class="b" d="M336.328,67.22l-1.1,6.211a1.177,1.177,0,0,0,1.159,1.382h14.258a1.176,1.176,0,0,1,1.159,1.382l-1.657,9.4a1.176,1.176,0,0,1-1.159.972H333.9a1.176,1.176,0,0,0-1.159.973l-3.112,17.648a1.178,1.178,0,0,1-1.16.972H316.768a1.177,1.177,0,0,1-1.159-1.382l8.948-50.746a1.178,1.178,0,0,1,1.159-.973h32.435a1.178,1.178,0,0,1,1.16,1.382L357.4,65.275a1.176,1.176,0,0,1-1.159.972H337.487A1.176,1.176,0,0,0,336.328,67.22Z" transform="translate(-315.591 -51.774)"/><path class="b" d="M350.256,79.955c2.8-15.884,17.721-27.929,34.417-27.929s27.368,12.045,24.567,27.929c-2.778,15.754-17.687,27.732-34.418,27.732C358.128,107.688,347.478,95.709,350.256,79.955Zm44.574-.1c1.44-8.172-3.982-14.474-12.513-14.474A18.046,18.046,0,0,0,364.7,79.857c-1.435,8.139,3.992,14.407,12.523,14.407S393.4,88,394.83,79.857Z" transform="translate(-307.218 -52.026)"/><path class="b" d="M428.775,105.369l-8.433-18.786a1.177,1.177,0,0,0-2.233.278l-3.215,18.231a1.179,1.179,0,0,1-1.16.973H401.86a1.178,1.178,0,0,1-1.159-1.38l8.851-50.551a1.176,1.176,0,0,1,1.159-.973h19.407c11.6,0,18.536,7.712,16.863,17.2a20,20,0,0,1-10.742,13.969,1.185,1.185,0,0,0-.561,1.593l9.25,18.441a1.178,1.178,0,0,1-1.053,1.705H429.849A1.178,1.178,0,0,1,428.775,105.369ZM420.13,75.021a1.177,1.177,0,0,0,1.153,1.382l4.434.025a6.757,6.757,0,0,0,6.735-5.316c.579-3.281-1.862-5.318-4.86-5.318h-4.846a1.179,1.179,0,0,0-1.16.973Z" transform="translate(-294.772 -51.749)"/><path class="b" d="M499.881,81.077c-2.835,16.084-17,26.485-32.263,26.485-17.062,0-27.749-12.536-25.086-27.633s17.83-27.8,34.493-27.8c6.357.092,13.216,2.581,17.132,6.192a1.163,1.163,0,0,1,.035,1.632l-8.186,8.928a1.16,1.16,0,0,1-1.625.108,14.672,14.672,0,0,0-9.67-3.733c-8,0-16.169,6.466-17.611,14.637-1.307,7.417,3.451,14.639,13.381,14.639,5.779,0,10.51-2.437,12.256-6.528a1.178,1.178,0,0,0-1.1-1.611h-9.279a1.177,1.177,0,0,1-1.159-1.382l1.43-8.115a1.179,1.179,0,0,1,1.16-.973h25.34a1.183,1.183,0,0,1,1.182,1.233A31.781,31.781,0,0,1,499.881,81.077Z" transform="translate(-284.633 -52)"/><path class="b" d="M512.241,67.194l-.887,5.031a1.176,1.176,0,0,0,1.159,1.382H526.77a1.177,1.177,0,0,1,1.159,1.382l-1.65,9.362a1.177,1.177,0,0,1-1.159.973H510.032a1.175,1.175,0,0,0-1.159.972l-.921,5.226a1.176,1.176,0,0,0,1.159,1.382h17.923a1.176,1.176,0,0,1,1.159,1.38l-1.907,10.807a1.176,1.176,0,0,1-1.159.973H492.692a1.177,1.177,0,0,1-1.159-1.382l8.914-50.551a1.178,1.178,0,0,1,1.16-.972h32.434a1.177,1.177,0,0,1,1.16,1.38l-1.889,10.709a1.177,1.177,0,0,1-1.159.972H513.4A1.176,1.176,0,0,0,512.241,67.194Z" transform="translate(-272.549 -51.749)"/><path class="b" d="M578.533,79.678c-2.9,16.408-15.82,26.387-34.083,26.387H528.325a1.178,1.178,0,0,1-1.16-1.382l8.909-50.521a1.176,1.176,0,0,1,1.156-.972l16.55-.03C572.055,53.094,581.45,63.136,578.533,79.678Zm-14.293-.034c1.465-8.3-3.51-13.359-13.14-13.359h-2.278a1.179,1.179,0,0,0-1.16.973l-4.267,24.2a1.177,1.177,0,0,0,1.159,1.382h2C556.081,92.838,562.793,87.849,564.241,79.644Z" transform="translate(-263.831 -51.749)"/></g><g transform="translate(545.18 128.373)"><path class="b" d="M446.021,131.558l3.968-3.873A9.78,9.78,0,0,0,457,130.706c2.275,0,3.8-.887,4.059-2.346l.012-.07c.244-1.388-.5-2.1-4.533-3.165-4.865-1.281-7.9-2.667-7.034-7.609l.012-.071c.8-4.516,5.006-7.5,10.169-7.5a12.6,12.6,0,0,1,8.83,3.164l-3.618,4.125a10.094,10.094,0,0,0-6.137-2.454c-2.13,0-3.418.961-3.629,2.169l-.015.072c-.286,1.634.7,2.168,4.874,3.271,4.9,1.314,7.463,3.128,6.7,7.467l-.015.07c-.87,4.943-5.185,7.717-10.636,7.717A13.7,13.7,0,0,1,446.021,131.558Z" transform="translate(-446.021 -109.942)"/><path class="b" d="M471.346,110.227h19.062l-.861,4.872H476.009l-.889,5.048h11.914l-.859,4.872H474.261l-.921,5.226h13.717l-.858,4.872H466.959Z" transform="translate(-440.898 -109.872)"/><path class="b" d="M492.494,110.227h11.552c3.214,0,5.547.889,6.922,2.525a6.764,6.764,0,0,1,1.161,5.688l-.012.072a9.71,9.71,0,0,1-6.777,7.714l4.609,8.889h-6.5l-4.012-7.963h-4.369l-1.4,7.963H488.1Zm9.06,12.089c2.706,0,4.509-1.421,4.879-3.52l.012-.071c.416-2.347-1.033-3.555-3.741-3.555H497.18l-1.258,7.146Z" transform="translate(-435.724 -109.872)"/><path class="b" d="M515.09,110.227h5.561l-4.388,24.89H510.7Z" transform="translate(-430.196 -109.872)"/><path class="b" d="M526.057,110.227H545.12l-.861,4.872H530.72l-.889,5.048h11.914l-.859,4.872H528.972l-.921,5.226h13.717l-.858,4.872H521.67Z" transform="translate(-427.512 -109.872)"/><path class="b" d="M541.736,131.558l3.968-3.873a9.78,9.78,0,0,0,7.014,3.021c2.275,0,3.8-.887,4.059-2.346l.012-.07c.243-1.388-.5-2.1-4.534-3.165-4.864-1.281-7.9-2.667-7.032-7.609l.012-.071c.8-4.516,5-7.5,10.169-7.5a12.6,12.6,0,0,1,8.83,3.164l-3.618,4.125a10.094,10.094,0,0,0-6.137-2.454c-2.13,0-3.418.961-3.629,2.169l-.015.072c-.287,1.634.7,2.168,4.874,3.271,4.9,1.314,7.463,3.128,6.7,7.467l-.015.07c-.87,4.943-5.185,7.717-10.636,7.717A13.7,13.7,0,0,1,541.736,131.558Z" transform="translate(-422.603 -109.942)"/></g><g transform="translate(687.812 128.373)"><path class="b" d="M563.159,110.37h-1.007v2.784h-.53V110.37h-1.006v-.428h2.543Zm4.188,2.784h-.53v-2.682H566.8l-1.053,2.682h-.336l-1.052-2.682h-.016v2.682h-.53v-3.212h.819l.958,2.441.945-2.441h.812Z" transform="translate(-560.616 -109.942)"/></g></g></svg>