<svg xmlns="http://www.w3.org/2000/svg" viewBox="0 0 593.1 255.51"><defs><style>.cls-1{fill:#235fab;}.cls-2{fill:#88bb40;}.cls-3{fill:none;}</style></defs><g id="Layer_2" data-name="Layer 2"><g id="Layer_1-2" data-name="Layer 1"><polygon class="cls-1" points="15.29 0.53 0 0.53 0 66.52 41.33 66.52 41.33 52.07 16.67 52.07 16.67 0.53 15.29 0.53"/><rect class="cls-1" x="48.54" y="0.53" width="16.66" height="65.99"/><path class="cls-1" d="M120.26,30.5A15,15,0,0,0,127,17.58c0-11.31-7.25-17-21.57-17H74.33v66h32c10.94,0,23.7-5.17,23.7-19.71,0-7.66-3.52-13.46-9.78-16.31M91,14.09h11.64c5.74,0,8.19,1.76,8.19,5.88,0,5.09-3.87,6.15-7.13,6.15H91ZM104.49,53H91V38.36h13.76c5.82,0,8.63,2.5,8.63,7.66,0,3-.92,6.93-8.89,6.93"/><polygon class="cls-1" points="186.44 0.53 137.77 0.53 137.77 66.51 188.53 66.51 188.53 52.07 154.43 52.07 154.43 39.33 185.08 39.33 185.08 25.77 154.43 25.77 154.43 14.97 187.82 14.97 187.82 0.53 186.44 0.53"/><path class="cls-1" d="M256.2,64.36c-1.87-2.67-2.13-8.37-2.31-12.14l-.11-2.15c-.52-7.54-3-12.5-7.43-14.88,5.46-3.18,8.24-8.48,8.24-15.84,0-10.91-8.37-18.82-19.9-18.82H199.23v66h16.64V41.81h12.54c6,0,8.24,2,9.18,8.39.22,1.58.35,3.32.49,5,.29,3.7.58,7.55,1.81,10.44l.35.85h17.47ZM229.74,29.13H215.87v-15h13.87c5.66,0,8.19,2.28,8.19,7.38,0,5.37-2.45,7.66-8.19,7.66"/><polygon class="cls-1" points="303.65 0.53 256.31 0.53 256.31 14.97 272.34 14.97 272.34 66.51 289.01 66.51 289.01 14.97 305.03 14.97 305.03 0.53 303.65 0.53"/><path class="cls-1" d="M365.59.53H349.22S340.3,19.45,338.3,23.67c-2-4.21-11-23.14-11-23.14H308.49l21.27,40.33V66.51h16.66V41.21L367.86.53Z"/><polygon class="cls-1" points="387.57 0.6 372.27 0.6 372.27 66.69 413.77 66.69 413.77 52.23 388.95 52.23 388.95 0.6 387.57 0.6"/><polygon class="cls-1" points="436.14 0.38 420.78 0.38 420.78 66.72 437.52 66.72 437.52 0.38 436.14 0.38"/><path class="cls-1" d="M504.14.38H489.69V39.87C485.74,33.55,465.1.38,465.1.38h-16V66.72h15.84V27.31l24.48,39.41h16.13V.38Z"/><path class="cls-1" d="M576,.66,557.91.47s-19.19,19.93-23.14,24L535,.22,518.31,0l-.73,66.34,16.75.18.23-21.3,6.49-6.43,18.32,28,20.94.23-27.69-40L579.26.7Z"/><path class="cls-1" d="M588.06,6a1.58,1.58,0,0,0,1.65-1.7c0-1.36-.88-1.87-2.47-1.87h-2.38V8.79h1.25V6.1h.79l1.54,2.69h1.31Zm-1.95-.93V3.46h1c.58,0,1.3.1,1.3.78s-.53.87-1.23.87Z"/><path class="cls-1" d="M587.3,0a5.65,5.65,0,1,0,0,11.29,5.62,5.62,0,0,0,5.79-5.67A5.59,5.59,0,0,0,587.3,0m0,10.07a4.27,4.27,0,0,1-4.25-4.46,4.26,4.26,0,1,1,8.51,0,4.29,4.29,0,0,1-4.26,4.46"/><path class="cls-2" d="M194.76,188.23a43.94,43.94,0,0,1-21.41-5.53l-.07,19.05,30.15-.07-.32,1.84A20.28,20.28,0,0,1,194,217.43c-5,3.37-11.54,5.08-19.4,5.08A25.49,25.49,0,0,1,152.2,211a35.78,35.78,0,0,1-5-11.62,57.67,57.67,0,0,1,0-26.22,36.35,36.35,0,0,1,5-11.64A25.58,25.58,0,0,1,174.56,150c6.65,0,12.28,1.53,16.77,4.52,5.26,3.52,7.17,7.18,7.82,15.37a41.59,41.59,0,0,0,11.14-3.27A111,111,0,0,0,225,158.81a35.82,35.82,0,0,0-4-9.27,43.4,43.4,0,0,0-12-12.67,50.56,50.56,0,0,0-16-7.36,67.81,67.81,0,0,0-17.75-2.41,58.77,58.77,0,0,0-23.51,4.61,53.52,53.52,0,0,0-18,12.6,56.78,56.78,0,0,0-11.43,18.75,69.5,69.5,0,0,0,0,46.42,56.51,56.51,0,0,0,11.42,18.75,53.63,53.63,0,0,0,18,12.62,58.59,58.59,0,0,0,23.51,4.58,46.06,46.06,0,0,0,8.26-.78,41.48,41.48,0,0,0,8.48-2.52,40.92,40.92,0,0,0,8.08-4.48,27.18,27.18,0,0,0,6.6-6.71l1.27-1.81,1.33,1.77c.09.11,8.53,11.46,18.4,12l.06-66.29a66.94,66.94,0,0,1-21,10.05,48.6,48.6,0,0,1-12,1.54"/><path class="cls-2" d="M320.06,100c53.94-24.18,89.59,9.39,89.59,9.39-54.08,28.16-92,0-92,0l-26.88,17.86,0,.27s102.91,25.57,135.53-17.69c0,0-36.71-57-131.2-14.39l0,.29V95.4H173.25v22.16c12.12-.67,27.45,2,34,5.4h38.24v24.25l32.78-22.3v-.07c1.76-1.29,6.55-4.69,14.31-9.56Z"/><path class="cls-2" d="M266.69,146.74c-7.13,6.46-13.29,12.36-21.16,19.81v88.59s20.13,3.49,32.79-11.91V135.77c-3.64,3.54-7.73,7.44-11.63,11"/><path class="cls-2" d="M276.82,255.14h93l.28-1.95a116.7,116.7,0,0,1,2.66-13.08,133.34,133.34,0,0,1,4.29-13.42l.82-2.17-11.46-3.14-.55,2.19c-1,4.06-2.55,6.77-4.61,8.08-1.23.77-5,2.07-16.82,2.07h-2.37l-9.65-.12-9.83-.12c15.84-13.31,26.94-24.17,33-32.31,6.79-9.11,10.23-18.13,10.23-26.83,0-9.2-3.59-17.2-10.69-23.77a36.48,36.48,0,0,0-25.6-9.87,39.7,39.7,0,0,0-22.25,6.58c-6.51,4.31-12.27,10.83-17.13,19.37l-1,1.79,11.68,6.95,1.18-1.78a39.59,39.59,0,0,1,10.09-11,17.94,17.94,0,0,1,10.39-3.42c5.53,0,9.79,1.59,13,4.89s4.84,7.72,4.84,13.46c0,8.42-4.43,18.47-13.15,29.87-7.49,9.8-17.87,20.18-30.9,30.93q-9.91,8.16-19.46,16.75"/><path class="cls-2" d="M457.39,142.65l-1.53.1c-8.06.56-15.5,1-22.1,1.25-14.13.58-26,.52-36,0-5.29-.28-10.49-.69-15.44-1.24L380,142.5l-.14,2.28c-.3,5.21-.85,10.35-1.62,15.27s-1.82,9.91-3.09,14.83l-.59,2.2,11.61,2.22.4-2.15c.89-4.66,2.34-7.76,4.31-9.17,1.16-.84,4.82-2.23,16.33-2.23h3.21q2.35,0,12.36.15c4.9.08,9.06.12,12.51.14-5.76,11.59-12.32,24.25-19.51,37.7C408,218.35,399,234.69,389,252.32l-1.8,3.19h27.21l.5-1.5A555.44,555.44,0,0,1,439,192.29c8.46-18.08,16-31.14,22.31-38.77l.86-1.05Z"/><path class="cls-2" d="M471.13,137.73a6.28,6.28,0,1,1-6.26,6.27,6.27,6.27,0,0,1,6.26-6.27m0,10.76a4.48,4.48,0,1,0-4.37-4.49,4.39,4.39,0,0,0,4.37,4.49m-2.45-7.86h2.64c1.76,0,2.61.75,2.61,2.09a1.79,1.79,0,0,1-1.67,1.87l1.67,2.8h-1.62l-1.59-2.72h-.55v2.72h-1.49Zm1.49,2.85h1.14c.66,0,1.13-.11,1.13-.84s-.72-.83-1.28-.83h-1Z"/><rect class="cls-3" x="0.01" width="593.1" height="255.09"/></g></g></svg>