<svg id="Layer_1" data-name="Layer 1" xmlns="http://www.w3.org/2000/svg" viewBox="0 0 98.68 110.5"><path d="M26.84,19.27a2,2,0,0,0-1.11,1.79v8.8a2,2,0,0,0,2,2H45.32V26.43h-13a1.12,1.12,0,0,1-1.13-1.12V23.87a1.12,1.12,0,0,1,.62-1l12.64-6.32a2,2,0,0,1,.9-.21V10.26a2,2,0,0,0-.87.2Z" fill="#f3d5a2"/><path d="M25.73,37.51a1.12,1.12,0,0,0,.61,1l18.07,9.31a1.94,1.94,0,0,0,.91.22v-6.1a1.91,1.91,0,0,1-.9-.2L30.36,34.93a2,2,0,0,0-.88-.2l-2.63,0a1.12,1.12,0,0,0-1.12,1.12Z" fill="#f3d5a2"/><path d="M45.32,52.23a2,2,0,0,1-.89-.21L22.79,41.2a2,2,0,0,1-1.1-1.79V18.89a2,2,0,0,1,1.1-1.79L44.43,6.28a2,2,0,0,1,.89-.21V0a2,2,0,0,0-.89.21L17.36,13.74a2,2,0,0,0-1.1,1.79V42.77a2,2,0,0,0,1.1,1.78L44.43,58.09a2,2,0,0,0,.89.21Z" fill="#f3d5a2"/><path d="M72.39,26.43H45.32v5.43H57.83A1.14,1.14,0,0,1,59,33v1.47a1.14,1.14,0,0,1-.61,1L46.21,41.72a2,2,0,0,1-.89.22V48a2.11,2.11,0,0,0,.92-.22L63.3,39a2,2,0,0,0,1.09-1.78V33.86a2,2,0,0,1,2-2H67a2,2,0,0,1,2,2v5.55a2,2,0,0,1-1.11,1.79L46.22,52a2,2,0,0,1-.9.21V58.3a2,2,0,0,0,.9-.21L73.28,44.55a2,2,0,0,0,1.11-1.78V28.43A2,2,0,0,0,72.39,26.43Z" fill="#e5a424"/><path d="M60.21,23.34a2,2,0,0,0,.87.2h1.31a2,2,0,0,0,2-2v-.78A2,2,0,0,0,63.28,19L46.23,10.46a1.92,1.92,0,0,0-.91-.2v6.08a1.91,1.91,0,0,1,.87.2Z" fill="#e5a424"/><path d="M73.28,13.74,46.22.21a2,2,0,0,0-.9-.21V6.07a2,2,0,0,1,.9.21L67.85,17.1A2,2,0,0,1,69,18.89v2.6a2,2,0,0,0,2,2h1.43a2,2,0,0,0,2-2v-6A2,2,0,0,0,73.28,13.74Z" fill="#e5a424"/><path d="M0,88.15V72a.53.53,0,0,1,.18-.39l3.23-2.87a.56.56,0,0,1,.35-.13H19.82a.53.53,0,0,1,.53.53v4.36a.52.52,0,0,1-.53.53H5.8l-.37.29V85.8l.37.32h8.62a.54.54,0,0,0,.54-.53v-2.3a.54.54,0,0,0-.54-.53H10.78a.53.53,0,0,1-.53-.53v-4a.53.53,0,0,1,.53-.53h9.07a.53.53,0,0,1,.53.53V91a.53.53,0,0,1-.53.53H3.76a.51.51,0,0,1-.35-.13L.18,88.55A.57.57,0,0,1,0,88.15Z" fill="#e89d23"/><path d="M24,87.43V72.69a2.1,2.1,0,0,1,.72-1.59l2.24-2a2.15,2.15,0,0,1,1.41-.53H40a2.14,2.14,0,0,1,1.4.53l2.27,2a2.11,2.11,0,0,1,.72,1.6V87.43A2.1,2.1,0,0,1,43.67,89L41.4,91a2.13,2.13,0,0,1-1.4.52H28.37A2.15,2.15,0,0,1,27,91l-2.24-2A2.1,2.1,0,0,1,24,87.43Zm14.59-1.31.37-.29V74.32L38.59,74H29.8l-.34.32V85.83l.34.29Z" fill="#e89d23"/><path d="M66.72,87.12v3.6a.83.83,0,0,1-.83.82H49.4a.83.83,0,0,1-.83-.82V69.41a.83.83,0,0,1,.83-.83h3.74a.83.83,0,0,1,.83.83v16a.83.83,0,0,0,.83.83H65.89A.83.83,0,0,1,66.72,87.12Z" fill="#e89d23"/><path d="M71.47,68.58h15.1a1.21,1.21,0,0,1,.8.29l2.86,2.51a1.18,1.18,0,0,1,.41.9V87.86a1.23,1.23,0,0,1-.41.92l-2.86,2.47a1.2,1.2,0,0,1-.79.29H71.47a1.2,1.2,0,0,1-1.21-1.2V69.78A1.21,1.21,0,0,1,71.47,68.58ZM84.79,86.12l.4-.32V74.29l-.4-.29h-7.9a1.21,1.21,0,0,0-1.2,1.21v9.7a1.21,1.21,0,0,0,1.2,1.21Z" fill="#e89d23"/><path d="M.48,109a.48.48,0,0,1-.16-.35v-2h2.2v1.2l.57.45H8.73l.53-.45v-2.42l-.66-.52H2.41a.46.46,0,0,1-.3-.11L.48,103.37A.48.48,0,0,1,.32,103l0-4.1a.48.48,0,0,1,.16-.36l1.48-1.29a.43.43,0,0,1,.31-.12H9.47a.45.45,0,0,1,.31.12l1.53,1.34a.48.48,0,0,1,.16.35v2H9.26V99.81l-.53-.46H3.09l-.57.46v2.38l.64.5H9.33a.48.48,0,0,1,.3.11l1.69,1.44a.48.48,0,0,1,.16.35v4.17a.47.47,0,0,1-.15.35l-1.42,1.27a.43.43,0,0,1-.31.12H2.33a.51.51,0,0,1-.31-.11Z" fill="#f3d5a2"/><path d="M18.22,97.62a.47.47,0,0,1,.46-.47h10.1v2.2H20.9a.47.47,0,0,0-.46.47v2.46a.47.47,0,0,0,.46.46h7.4V105H20.9a.46.46,0,0,0-.46.46v2.42a.47.47,0,0,0,.46.47h7.88v2.2H18.7a.46.46,0,0,1-.47-.46Z" fill="#f3d5a2"/><path d="M45.24,110.24,43.14,106a.47.47,0,0,0-.42-.26h-3.9a.47.47,0,0,0-.46.47v4.31H36.15V97.62a.47.47,0,0,1,.47-.47h8.57a.43.43,0,0,1,.31.12l1.6,1.39a.47.47,0,0,1,.15.35v3.7a.47.47,0,0,1-.12.32l-1.68,1.83a.47.47,0,0,0-.08.52l2.52,5.12H45.66A.47.47,0,0,1,45.24,110.24ZM38.36,103a.47.47,0,0,0,.46.46h4.9l1.31-1.4V99.86l-.58-.49H38.82a.47.47,0,0,0-.46.47Z" fill="#f3d5a2"/><path d="M54,97.15h2.22V110.5H54Z" fill="#f3d5a2"/><path d="M62.54,97.62a.47.47,0,0,1,.47-.47H73.1v2.2H65.23a.47.47,0,0,0-.47.47v2.46a.47.47,0,0,0,.47.46h7.39V105H65.23a.46.46,0,0,0-.47.46v2.42a.47.47,0,0,0,.47.47H73.1v2.2H63a.46.46,0,0,1-.46-.46Z" fill="#f3d5a2"/><path d="M79.64,109a.48.48,0,0,1-.16-.35v-2h2.2v1.2l.57.45h5.64l.53-.45v-2.42l-.66-.52H81.57a.51.51,0,0,1-.31-.11l-1.62-1.43a.48.48,0,0,1-.16-.35l0-4.1a.48.48,0,0,1,.16-.36l1.48-1.29a.43.43,0,0,1,.31-.12h7.22a.47.47,0,0,1,.31.12l1.53,1.34a.48.48,0,0,1,.16.35v2H88.42V99.81l-.53-.46H82.25l-.57.46v2.38l.64.5h6.17a.48.48,0,0,1,.3.11l1.69,1.44a.48.48,0,0,1,.16.35v4.17a.47.47,0,0,1-.15.35l-1.42,1.27a.43.43,0,0,1-.31.12H81.49a.51.51,0,0,1-.31-.11Z" fill="#f3d5a2"/><path d="M94.58,98.26v1.59h-.89V98.26H93v-.68h2.29v.68Zm3.2,1.59V98.4l-.38,1.45h-.69l-.44-1.45v1.45h-.7V97.58h1.25l.29,1,.29-1h1.28v2.27Z" fill="#f3d5a2"/></svg>