<svg xmlns="http://www.w3.org/2000/svg" viewBox="0 0 304.3 95.65"><defs><style>.cls-1{fill:#231f20;}.cls-2{fill:#a40c34;}.cls-3{fill:#a7a9ac;}</style></defs><g id="Layer_2" data-name="Layer 2"><g id="Layer_1-2" data-name="Layer 1"><path class="cls-1" d="M158.75,35.7H135.94l9.43-7.64h40.72l-1.84,7.64H167.38l-7.59,31.53h-8.63Z"/><path class="cls-1" d="M189.39,28.06h31.92l-1.92,8h-22.8l-1.75,7.3h21.73l-7.61,8h-16l-1.93,8h23.85l-1.92,8H180Z"/><path class="cls-1" d="M226.06,28.06h12.39l11,27.22h.12l6.55-27.22h9.12l-9.44,39.17H243.92L232.58,39.35h-.12l-6.72,27.88h-9.11Z"/><polygon class="cls-2" points="16.96 95.14 28.19 95.14 70.12 61.36 44.45 27.66 33.3 27.66 58.51 61.36 16.96 95.14"/><polygon class="cls-3" points="0 95.14 11.23 95.14 53.16 61.36 27.49 27.66 16.34 27.66 41.55 61.36 0 95.14"/><polygon class="cls-1" points="140.6 27.66 118.15 27.66 89.92 50.26 72.59 27.66 50.16 27.66 76.03 61.39 33.89 95.14 56.34 95.14 84.56 72.53 101.89 95.14 124.34 95.14 98.47 61.39 140.6 27.66"/><path class="cls-1" d="M21,.52h7.84C33,.52,36.13,2,34.91,6.67a7.24,7.24,0,0,1-5.81,5.55l3,8.56H26.7l-2.15-8.1h-2.2l-2.09,8.1H15.8Zm2.3,8.38H26c1.63,0,3.76-.05,4.33-2.26.53-2-1.23-2.34-2.86-2.34H24.5Z"/><path class="cls-1" d="M50.26,0c6.32,0,9.86,4.15,8.19,10.65A14,14,0,0,1,44.78,21.3c-6.33,0-9.87-4.15-8.2-10.65A14,14,0,0,1,50.26,0ZM45.84,17.17a8.38,8.38,0,0,0,8-6.52c1-3.78-.81-6.53-4.62-6.53a8.38,8.38,0,0,0-8,6.53C40.25,14.43,42,17.17,45.84,17.17Z"/><path class="cls-1" d="M78.69,13A10.66,10.66,0,0,1,68,21.3c-5.64,0-7.64-3.55-6.41-8.33L64.81.52h4.47L66.11,12.79c-.64,2.5.6,4.38,3,4.38a5.66,5.66,0,0,0,5.19-4.38L77.43.52H81.9Z"/><path class="cls-1" d="M86.74.52h6.07l5,14.08h0L101.48.52H106l-5.22,20.26H94.89L89.76,6.35H89.7L86,20.78H81.53Z"/><path class="cls-1" d="M110.79.52h6.69c6.53,0,11.28,2.77,9.38,10.18-1.69,6.56-8,10.08-14,10.08h-7.3Zm.3,16.14h2.32c4.15,0,7.68-1.57,8.87-6.18,1-4-1.68-5.84-5.46-5.84h-2.63Z"/><path class="cls-1" d="M146.4,13a10.67,10.67,0,0,1-10.67,8.33c-5.65,0-7.65-3.55-6.42-8.33L132.51.52H137l-3.16,12.27c-.64,2.5.59,4.38,3,4.38A5.67,5.67,0,0,0,142,12.79L145.14.52h4.46Z"/><path class="cls-1" d="M153.73.52h7.52c4.21,0,7.35,1.34,6.12,6.15s-4.83,6.21-9.1,6.21H155l-2,7.9h-4.47ZM156,9.1h3c1.58,0,3.28-.54,3.77-2.43.54-2.09-1.5-2.37-3.22-2.37h-2.29Z"/><path class="cls-1" d="M183.1.52h7.84c4.15,0,7.28,1.43,6.06,6.15a7.24,7.24,0,0,1-5.81,5.55l2.95,8.56h-5.35l-2.15-8.1h-2.21l-2.08,8.1h-4.47Zm2.31,8.38H188c1.62,0,3.76-.05,4.33-2.26.52-2-1.23-2.34-2.86-2.34h-2.92Z"/><path class="cls-1" d="M202.53.52h13.78l-1.07,4.12h-9.3l-1,3.78h8.78l-1.06,4.12h-8.78l-1.06,4.12h9.81l-1.06,4.12H197.32Z"/><path class="cls-1" d="M227.79.52h3.69l3.6,20.26h-5l-.64-4.29h-7.87l-2.8,4.29h-4.92ZM228,6.41l-4.08,6.3h4.95Z"/><path class="cls-1" d="M243.05.52h6.69c6.53,0,11.28,2.77,9.37,10.18-1.69,6.56-8,10.08-14,10.08h-7.31Zm.31,16.14h2.31c4.16,0,7.68-1.57,8.86-6.18,1-4-1.67-5.84-5.45-5.84h-2.63Z"/><path class="cls-1" d="M265.33,12.14,260.7.52h5.55L268.6,8.1,275.1.52h5.3L269.8,12.14l-2.23,8.64H263.1Z"/><path class="cls-2" d="M138.34,91.85,141.71,89a7.32,7.32,0,0,0,5.68,2.67c1.8,0,3.11-.84,3.11-2.12,0-1-.73-1.57-3.45-2.67s-5-2.49-5-5.48A6.1,6.1,0,0,1,143.85,77a8.88,8.88,0,0,1,6.27-2.32,9.87,9.87,0,0,1,7.6,3l-3.08,3.08a6.69,6.69,0,0,0-4.87-2.18c-1.88,0-3,1-3,2.06s.82,1.54,3.57,2.67,4.87,2.53,4.87,5.48a6.11,6.11,0,0,1-1.82,4.44,8.78,8.78,0,0,1-6.24,2.32C143.27,95.59,140.26,94.32,138.34,91.85Z"/><path class="cls-2" d="M180,83.64a12.14,12.14,0,0,1-12.21,12c-5.6,0-9.28-3.89-9.28-9a12.14,12.14,0,0,1,12.21-12C176.34,74.65,180,78.54,180,83.64Zm-7,5.89a8.24,8.24,0,0,0,2.35-5.6,4.8,4.8,0,0,0-5.16-5.16,6.6,6.6,0,0,0-4.7,2,8.26,8.26,0,0,0-2.35,5.6,4.79,4.79,0,0,0,5.16,5.16A6.6,6.6,0,0,0,173,89.53Z"/><path class="cls-2" d="M185.8,87.3,181.6,75h5l2.38,8.41,7-8.41h5.39L190.18,87.7l-2.06,7.6h-4.46Z"/><path class="cls-2" d="M204.57,75h7.89c4.78,0,6.87,2.26,6.87,5s-1.74,4.44-4.35,5a4.32,4.32,0,0,1,2.84,4.11c0,3.63-3.1,6.18-8.73,6.18h-10Zm5.19,16.39c2.23,0,3.62-1,3.62-2.56,0-1.18-.95-1.91-2.78-1.91h-4.9l-1.19,4.47Zm1.45-8.18c2.29,0,3.65-.79,3.65-2.47,0-1-.84-1.83-2.81-1.83h-4.21l-1.13,4.3Z"/><path class="cls-2" d="M225.64,75h15.17l-1.08,4H229l-1.1,4.15h9.42L236.25,87h-9.43l-1.16,4.29h10.91l-1.07,4H220.18Z"/><path class="cls-2" d="M252.52,74.85h4.29L260,95.3h-4.58l-.64-4.55h-8.59l-3.07,4.55h-4.82Zm1.77,12-.93-6.7-4.47,6.7Z"/><path class="cls-2" d="M268.28,75h4.12l5.92,12.91L281.8,75h4.41l-5.46,20.3H277L270.8,82,267.23,95.3h-4.4Z"/><path class="cls-2" d="M284.92,91.85,288.29,89A7.34,7.34,0,0,0,294,91.68c1.79,0,3.1-.84,3.1-2.12,0-1-.73-1.57-3.45-2.67s-5-2.49-5-5.48a6.07,6.07,0,0,1,1.8-4.38,8.83,8.83,0,0,1,6.26-2.32,9.87,9.87,0,0,1,7.6,3l-3.07,3.08a6.72,6.72,0,0,0-4.88-2.18c-1.88,0-3,1-3,2.06s.82,1.54,3.57,2.67,4.88,2.53,4.88,5.48A6.12,6.12,0,0,1,300,93.27a8.78,8.78,0,0,1-6.24,2.32C289.86,95.59,286.84,94.32,284.92,91.85Z"/><path class="cls-2" d="M286.38,17.2l9.94-7.13c1.91-1.38,2.87-2.49,2.87-3.8s-1-2.11-2.47-2.11c-1.72,0-3.15,1-4.69,2.54l-2.64-2.86A9.67,9.67,0,0,1,296.91.13c4.08,0,6.72,2.34,6.72,5.64,0,2.51-1.13,4.35-4.64,6.9L292.92,17h8.27l-1,3.88H285.43Z"/><path class="cls-1" d="M269.73,28.06h13.68c13.32,0,23.2,5.37,19.75,19.7-3.05,12.67-15.62,19.47-28,19.47H260.3Zm1.6,31.2h4.74c8.47,0,15.58-3,17.72-11.95C295.65,39.63,290,36,282.31,36h-5.38Z"/><path class="cls-1" d="M297.89,67.59a2.85,2.85,0,1,1,2.85-2.85A2.86,2.86,0,0,1,297.89,67.59Zm0-5.06a2.21,2.21,0,1,0,2.17,2.21A2.14,2.14,0,0,0,297.89,62.53Zm.51,3.72-.55-1.17h-.32v1.17h-.68v-3h1.24a1,1,0,0,1,1,1,.86.86,0,0,1-.55.81l.63,1.27Zm-.4-2.47h-.47v.79H298a.41.41,0,0,0,.42-.4A.4.4,0,0,0,298,63.78Z"/></g></g></svg>