<svg xmlns="http://www.w3.org/2000/svg" viewBox="0 0 382.06 118.63"><defs><style>.cls-1{fill:#cb6015;}.cls-2{fill:#00629b;}</style></defs><g id="Layer_2" data-name="Layer 2"><g id="Calque_1" data-name="Calque 1"><path class="cls-1" d="M33.21,61.22C35,51,36.87,40.51,41,31A79.69,79.69,0,0,1,51.11,13.21,52.63,52.63,0,0,0,17.8,105.29l6.4-12C29.2,83.9,31.24,72.37,33.21,61.22Z"/><path class="cls-2" d="M90.39,30.85c-7.68,46.27-31.33,62.74-55.74,73.64l-11.4,5.09A52.71,52.71,0,0,0,90.72,29.35C90.62,29.86,90.48,30.32,90.39,30.85Z"/><path d="M98.53,0C72.89,1.85,59,9.39,48.39,34.16c-3.7,8.69-5.48,18.74-7.21,28.47C39.09,74.46,37,86.58,31.35,97.09,54,87,75.24,72.69,82.4,29.52A50.59,50.59,0,0,1,98.53,0Z"/><path d="M134.8,60.45c-14.59,0-19.9-10.13-19.9-23.44,0-7,1.62-15.16,7.43-19.76,4.18-3.33,9.85-4,15-4H158v8.43H138.48C128.57,21.64,126,27,126,36.09c0,3.33.56,8.5,2.19,11.47,2.13,3.9,6.59,4.46,10.62,4.46H148V40.83H134.8V32.4H158V60.45Z"/><path d="M180.33,61c-11.47,0-18.13-6.59-18.13-18.06,0-10.84,7.58-17.43,18.2-17.43,11.48,0,18.35,6.66,18.35,18.21C198.75,54.79,191.1,61,180.33,61Zm.15-28.26c-6.8,0-8.57,4.74-8.57,10.76s2.26,10.27,8.71,10.27,8.43-4.81,8.43-10.55S187,32.69,180.48,32.69Z"/><path d="M203.28,60.45V13.21h9.49V60.45Z"/><path d="M236.56,60.45c-3.47,0-6.23-.07-9.42-1.56-6.51-3-9.13-9.13-9.13-16a17.14,17.14,0,0,1,3.61-11.34C225,27.31,229.2,26,234.51,26h8.92V13.21h9.49V60.45Zm6.87-27.12h-6.87c-5.87,0-8.92,4.1-8.92,9.7s2.9,10,8.92,10h6.87Z"/><path d="M276,60.45c-4.46,0-7.93-.49-11.54-3.26-4.61-3.47-6.31-8.78-6.31-14.37,0-5.39,2.13-11.27,6.8-14.38C268,26.38,271.76,26,275.37,26h13.32v7.37H276c-4.82,0-6.87,1.2-7.29,6.16h20v7.36h-20c.35,5.31,3.54,6.23,8.35,6.23h11.62v7.37Z"/><path d="M317.3,60.45V38.14c0-3.47-1.42-4.81-4.89-4.81H304.2V60.45h-9.49V26h18.91c9.13,0,13.17,4.18,13.17,13.32V60.45Z"/><path d="M148.1,118.63V99.09H129.83v19.54H119.77V71.39h10.06V90.73H148.1V71.39h10v47.24Z"/><path d="M177.42,118.63a30.36,30.36,0,0,1-7.65-.57c-4.32-1.13-6.66-5.38-6.66-9.63a11,11,0,0,1,4.11-8.85c2.55-1.84,7.08-1.91,10.06-1.91h11.61V97.1c0-5-2.83-5.59-7.22-5.59h-16V84.14h16c1.27,0,2.62.07,3.89.07,5.81.14,10.2,2.13,12,8a23.44,23.44,0,0,1,.78,7v19.4ZM188.89,105H176.36c-2,0-3.55,1.07-3.55,3.19,0,3,2.77,3,5.1,3h11Z"/><path d="M223.1,99.72c0-5.24.14-8.21-6.09-8.21h-2.77v27.12h-9.49V84.14h14c3.75,0,7.72.07,10.62,2.69,2.69,2.41,2.83,6.16,2.83,9.56v3.33Z"/><path d="M257.3,118.63H247.1L233.36,84.14H243.7l8.79,23.73,9.63-23.73h10.06Z"/><path d="M289.6,118.63c-4.47,0-7.94-.49-11.55-3.26-4.6-3.47-6.3-8.78-6.3-14.37,0-5.39,2.12-11.26,6.8-14.38,3-2.06,6.8-2.48,10.41-2.48h13.31v7.37H289.6c-4.82,0-6.87,1.2-7.3,6.16h20V105h-20c.35,5.32,3.54,6.24,8.36,6.24h11.61v7.36Z"/><path d="M332.58,118.21a30.4,30.4,0,0,1-6.16.42H306.87v-7.36h16.86c1,0,2,0,3-.07,2.05-.15,3.75-.43,3.75-2.84,0-3.61-3.12-3.4-5.81-3.4-3.26,0-8.71.43-12-.78-4.25-1.55-6.44-5.59-6.44-10a10.55,10.55,0,0,1,2.33-6.73c2.55-3.12,5.46-3.33,9.28-3.33h20.26v7.37H321.39c-.42,0-.92.07-1.34.07-2.2,0-4,.21-4,3,0,3.54,3.68,3.33,6.16,3.33h5.6c6.44,0,11.9,2.69,11.9,9.85C339.74,112.19,337.26,117.22,332.58,118.21Z"/><path d="M359.28,118.63c-4.67,0-8.78-1.27-10.55-6a20.93,20.93,0,0,1-.85-6.94V91.51h-6V84.14h6V71.39h9.49V84.14h8.78v7.37h-8.78V104c0,1.49-.14,4.25.78,5.53,1.63,2.26,5.66,1.7,8,1.7v7.36Z"/><path d="M375.64,84.22a6.43,6.43,0,1,1,6.42-6.43,6.45,6.45,0,0,1-6.42,6.43m0-12.09a5.65,5.65,0,1,0,5.59,5.66,5.63,5.63,0,0,0-5.59-5.66m1.6,9a4.64,4.64,0,0,1-.12-.93c-.09-1.25-.58-1.61-1.8-1.61h-1.15V81.1h-1.42V74.45H376c1.31,0,2.73.26,2.73,1.87a1.79,1.79,0,0,1-1.26,1.92c1.55.54.9,1.7,1.35,2.86Zm-1.09-5.46h-2v1.77h2c.68,0,1-.23,1-.94s-.42-.83-1-.83"/></g></g></svg>