<svg id="Layer_1" data-name="Layer 1" xmlns="http://www.w3.org/2000/svg" viewBox="0 0 100 100"><defs><style>.cls-1{fill:none;stroke-width:2.5px;}.cls-1,.cls-2{stroke:#006ca3;}.cls-2{fill:#006ca3;stroke-miterlimit:10;stroke-width:0.75px;}</style></defs><g id="Ellipse_3" data-name="Ellipse 3"><circle class="cls-1" cx="49.82" cy="50.47" r="36.75"/></g><path class="cls-2" d="M29.09,64c1.6-.26,4.2-.41,4.91.1a5.67,5.67,0,0,0,2.19.69,7.75,7.75,0,0,0,.92,3.62c.51.69.25,3.12-.09,4.63a.6.6,0,0,0,.46.72.59.59,0,0,0,.37,0c1.49-.66,4-1.45,4.81-1.12,1.59.6,7-.13,9.63-3.55A14.65,14.65,0,0,0,55,62.24a11.63,11.63,0,0,0,5.29-3.76,14.75,14.75,0,0,0,3-7c1-.2,3.1-1.06,5.88-4.71,3.62-4.78,1.67-9.08.84-10.92a7.12,7.12,0,0,1-.31-.76,15.2,15.2,0,0,1,.11-2.13c.25-.74.53-1.44.53-1.44a.62.62,0,0,0-.09-.6l-.24-.3a.58.58,0,0,0-.57-.22,22.17,22.17,0,0,1-2.94.28,5.57,5.57,0,0,1-.77-.3c-1.84-.79-6.22-2.63-10.9,1.12-3.58,2.85-4.42,5-4.57,6a15,15,0,0,0-6.94,3.21A11.58,11.58,0,0,0,39.69,46,14.68,14.68,0,0,0,33,48.91C29.61,51.58,29,57,29.67,58.61c.33.79-.52,3.09-1.22,4.46a.59.59,0,0,0,.64.88Zm39.4-28.82a3.73,3.73,0,0,0,.42,1.17c.8,1.78,2.48,5.51-.7,9.7s-5.4,4.29-5.4,4.29a.61.61,0,0,0-.65.55,13.86,13.86,0,0,1-2.83,6.84,9.91,9.91,0,0,1-5,3.47.59.59,0,0,0-.48.55,13.6,13.6,0,0,1-2.52,6.56c-2.24,2.95-7.06,3.59-8.22,3.15s-3.33.22-4.67.72c.22-1.36.42-3.51-.32-4.51s-1.42-5.82.82-8.77a13.5,13.5,0,0,1,5.64-4.18.61.61,0,0,0,.41-.62,10.07,10.07,0,0,1,2-5.77,13.85,13.85,0,0,1,5.81-4.54.62.62,0,0,0,.36-.76s-.58-2.08,2.68-6.37a8.19,8.19,0,0,1,6.82-3.5,14,14,0,0,1,2.33.22,4,4,0,0,0,1.24.08,17.06,17.06,0,0,0,2.41-.81A17.79,17.79,0,0,0,68.49,35.13Zm-37.7,23c-.48-1.16,0-6,2.94-8.31a13.48,13.48,0,0,1,6.5-2.67.63.63,0,0,0,.54-.49,9.91,9.91,0,0,1,3.34-5.11,14.31,14.31,0,0,1,6.77-3,.6.6,0,0,0,.53-.64s0-2.16,4.16-5.52,7.88-1.71,9.68-1a3.79,3.79,0,0,0,1.18.38,5.47,5.47,0,0,0,.81,0,9.45,9.45,0,0,1-1.28.39,4.48,4.48,0,0,1-.81-.1c-2-.3-6.67-1-10.3,3.75-2.78,3.65-3,5.92-3,6.93A14.77,14.77,0,0,0,46,47.59a11.66,11.66,0,0,0-2.21,6.09A14.69,14.69,0,0,0,38,58.11a9.64,9.64,0,0,0-1.75,5.39,3.94,3.94,0,0,1-1.5-.48A5.17,5.17,0,0,0,32,62.46a18.22,18.22,0,0,0-1.95.12C30.55,61.32,31.26,59.29,30.79,58.15Z"/><path class="cls-2" d="M65.11,37.2a6.09,6.09,0,0,0-4-1.28,4.49,4.49,0,0,0-3.42,1.73c-1.61,2.11-.92,5.36,1.55,7.22A6.22,6.22,0,0,0,63,46.15a4.54,4.54,0,0,0,3.69-1.73C68.27,42.3,67.58,39.07,65.11,37.2Zm.59,6.51c-1.2,1.58-3.76,1.68-5.69.21s-2.53-4-1.32-5.54a3.29,3.29,0,0,1,2.52-1.26h.22a5,5,0,0,1,3,1C66.32,39.63,66.91,42.12,65.7,43.71Z"/><path class="cls-2" d="M57.14,47.69A5.75,5.75,0,0,0,53,46.55a5.31,5.31,0,0,0-3.63,2.05,5.51,5.51,0,0,0,1.2,7.7,5.7,5.7,0,0,0,3.46,1.18,5.36,5.36,0,0,0,4.28-2.09A5.52,5.52,0,0,0,57.14,47.69Zm.25,7a4.42,4.42,0,0,1-7-5.33,4.11,4.11,0,0,1,2.82-1.58,3.87,3.87,0,0,1,.48,0,4.48,4.48,0,0,1,2.73.93A4.34,4.34,0,0,1,57.39,54.66Z"/><path class="cls-2" d="M48.38,59.24a6.12,6.12,0,0,0-4-1.28A4.46,4.46,0,0,0,41,59.69c-1.61,2.11-.91,5.36,1.55,7.22a6.16,6.16,0,0,0,3.69,1.28h.27a4.38,4.38,0,0,0,4.32-4.44,4.75,4.75,0,0,0-.15-1A6.11,6.11,0,0,0,48.38,59.24ZM49,65.75A3.31,3.31,0,0,1,46.43,67a4.86,4.86,0,0,1-3.17-1c-1.92-1.44-2.53-3.95-1.32-5.55a3.3,3.3,0,0,1,2.53-1.27h.22A5.1,5.1,0,0,1,49.5,63,3.3,3.3,0,0,1,49,65.75Z"/></svg>