<svg id="Layer_1" data-name="Layer 1" xmlns="http://www.w3.org/2000/svg" viewBox="0 0 100 100"><defs><style>.cls-1{fill:none;stroke-width:2.5px;}.cls-1,.cls-3{stroke:#006ca3;}.cls-2,.cls-3{fill:#006ca3;}</style></defs><g id="Ellipse_3" data-name="Ellipse 3"><circle class="cls-1" cx="49.82" cy="50.47" r="36.75"/></g><g id="Book_Mouse_Icon" data-name="Book Mouse Icon"><path id="Path_605" data-name="Path 605" class="cls-2" d="M50.41,36.48c2.88-1.87,5.19-2.78,15.3-2.78H66.8v24H69V37h1.09V58.56h2.19V34.8H69V31.52H65.71c-10.6,0-13.28,1.05-16.39,3.06-3.12-2-5.79-3.06-16.39-3.06H29.65v35h25V64.3H50.41ZM31.84,33.7h1.09c10.1,0,12.41.9,15.3,2.78v27.4c-3.27-3-6.13-4-15.3-4H31.84Zm0,28.41h1.09c7.26,0,10.12.6,12.38,2.19H31.84Z"/></g><path class="cls-3" d="M62.38,74.16a.47.47,0,0,1-.41-.3l-.61-2.08a7.46,7.46,0,0,1-1.3-.55l-1.9,1.06a.46.46,0,0,1-.51-.08l-1.87-1.85a.45.45,0,0,1-.06-.53l1.06-1.9a7.46,7.46,0,0,1-.55-1.3L54.13,66a.43.43,0,0,1-.3-.42V63a.43.43,0,0,1,.3-.41L56.24,62a7.32,7.32,0,0,1,.54-1.29l-1.06-1.91a.45.45,0,0,1,.06-.51l1.87-1.87a.45.45,0,0,1,.51-.06l1.9,1.06a7.42,7.42,0,0,1,1.3-.54L62,54.75a.43.43,0,0,1,.41-.32H65a.43.43,0,0,1,.41.32L66,56.84a7.42,7.42,0,0,1,1.3.54l1.9-1.06a.45.45,0,0,1,.51.06l1.87,1.87a.45.45,0,0,1,.06.51l-1.06,1.91A7.32,7.32,0,0,1,71.15,62l2.11.61a.43.43,0,0,1,.3.41v2.64a.43.43,0,0,1-.3.42l-2.1.59a7.46,7.46,0,0,1-.55,1.3l1.06,1.9a.45.45,0,0,1-.06.53l-1.87,1.85a.46.46,0,0,1-.51.08l-1.9-1.06a7.46,7.46,0,0,1-1.3.55l-.61,2.08a.43.43,0,0,1-.41.3Zm.31-.85h2l.55-2a.43.43,0,0,1,.31-.3,6.89,6.89,0,0,0,1.58-.67.45.45,0,0,1,.42,0l1.81,1L70.77,70l-1-1.8a.42.42,0,0,1,0-.43,7.33,7.33,0,0,0,.66-1.58.44.44,0,0,1,.29-.3l2-.56v-2l-2-.56a.44.44,0,0,1-.29-.3,7.41,7.41,0,0,0-.66-1.59.45.45,0,0,1,0-.42l1-1.81-1.39-1.39-1.81,1a.42.42,0,0,1-.42,0,7.33,7.33,0,0,0-1.58-.66.42.42,0,0,1-.31-.29l-.56-2h-2l-.56,2a.42.42,0,0,1-.31.29,7.33,7.33,0,0,0-1.58.66.42.42,0,0,1-.42,0l-1.81-1-1.39,1.39,1,1.81a.45.45,0,0,1,0,.42A7.41,7.41,0,0,0,57,62.44a.44.44,0,0,1-.29.3l-2,.56v2l2,.56a.44.44,0,0,1,.29.3,7.33,7.33,0,0,0,.66,1.58.42.42,0,0,1,0,.43l-1,1.8L58,71.38l1.81-1a.45.45,0,0,1,.42,0,6.89,6.89,0,0,0,1.58.67.43.43,0,0,1,.31.3Zm1-5.15a3.87,3.87,0,1,1,3.87-3.86A3.88,3.88,0,0,1,63.69,68.16Zm0-.86a3,3,0,1,0-3-3A3,3,0,0,0,63.69,67.3Z"/></svg>