<svg id="Layer_1" data-name="Layer 1" xmlns="http://www.w3.org/2000/svg" viewBox="0 0 100 100"><defs><style>.cls-1{fill:none;stroke-width:2.5px;}.cls-1,.cls-2{stroke:#006ca3;}.cls-2{fill:#006ca3;stroke-miterlimit:10;stroke-width:0.5px;}</style></defs><g id="Ellipse_3" data-name="Ellipse 3"><circle class="cls-1" cx="49.82" cy="50.47" r="36.75"/></g><path class="cls-2" d="M62.64,41.93a.61.61,0,0,0-.57,0c-.13.07-1.46.82-3.35,2.15l-.67-11.55a8,8,0,0,0-16,0l-.92,11.73A40.62,40.62,0,0,0,37.57,42a.6.6,0,0,0-.57,0,.64.64,0,0,0-.36.45,49.23,49.23,0,0,0-.79,8.69c0,4.56.59,11.1,3.65,16.35,3.28,5.63,6.43,7.57,8.5,8.21a5.6,5.6,0,0,0,1.68.25,6.2,6.2,0,0,0,1.8-.28h0l0,0,.2-.07c2.17-.77,5.31-2.81,8.39-8.09s3.68-11.79,3.65-16.35A48.13,48.13,0,0,0,63,42.38.61.61,0,0,0,62.64,41.93ZM48.45,50.62v-3.4H51.7v2.85c-.64.67-1.27,1.37-1.88,2.11C49.37,51.64,48.91,51.12,48.45,50.62Zm-1.27-1.31c-.78-.77-1.55-1.47-2.27-2.09h2.27ZM43.33,32.63a6.41,6.41,0,0,1,.38-1.81h3.47v2.89H43.25ZM53,35h4l.16,2.81H53ZM51.7,37.79H48.45V35H51.7Zm5.46,1.27.16,2.81H53V39.06Zm-.38-6.43.06,1.08H53V30.82H56.4A6.41,6.41,0,0,1,56.78,32.63ZM51.7,33.71H48.45V30.82H51.7ZM47.18,35v2.81H42.93L43.15,35Zm-4.35,4.08h4.35v2.81H42.61Zm5.62,0H51.7v2.81H48.45Zm3.25,4.08V46H48.45V43.14ZM53,47.22h1.75c-.57.5-1.16,1-1.75,1.59ZM56.26,46H53V43.14H57.4L57.5,45v0C57.11,45.28,56.69,45.6,56.26,46Zm-.46-16.4H53V27A6.77,6.77,0,0,1,55.8,29.55Zm-4.09-3s0,0,0,0v3H48.45v-3a.43.43,0,0,0,0,0,6.66,6.66,0,0,1,1.62-.21A6.44,6.44,0,0,1,51.71,26.54ZM47.18,27v2.57H44.31A6.79,6.79,0,0,1,47.18,27ZM42.51,43.13h4.67V46H43.39l-1-.81Zm5.86,31.29c-1.85-.57-4.7-2.36-7.77-7.64-4.8-8.22-3.39-20-2.87-23.26,2.85,1.76,12.71,8.38,15.75,17.41,2,5.79,1.42,9.11.64,10.88a4.78,4.78,0,0,1-2.4,2.35l-.3.12-.25.09A4.7,4.7,0,0,1,48.37,74.42Zm10.68-7.64a23.21,23.21,0,0,1-3.42,4.59c.64-2.12.84-5.55-.94-10.84a25.62,25.62,0,0,0-4.06-7.34,48.1,48.1,0,0,1,11.28-9.67C62.43,46.82,63.84,58.56,59.05,66.78Z"/></svg>