<svg xmlns="http://www.w3.org/2000/svg" viewBox="0 0 118 118"><defs><style>.cls-1{fill:none;stroke:#d25f15;stroke-miterlimit:10;}</style></defs><title>Asset 1</title><g id="Layer_2" data-name="Layer 2"><g id="Layer_1-2" data-name="Layer 1"><circle class="cls-1" cx="59" cy="59" r="58.5"/><circle class="cls-1" cx="59" cy="59" r="58.5"/><circle class="cls-1" cx="85.26" cy="74.02" r="16.02"/><circle class="cls-1" cx="85.26" cy="74.02" r="6.54"/><rect class="cls-1" x="31.9" y="52.09" width="3.06" height="12.9" rx="1.09" ry="1.09"/><rect class="cls-1" x="38.53" y="52.09" width="3.06" height="12.9" rx="1.09" ry="1.09"/><rect class="cls-1" x="45.15" y="52.09" width="3.06" height="12.9" rx="1.09" ry="1.09"/><rect class="cls-1" x="41.99" y="35.48" width="5.09" height="9.84" rx="1.09" ry="1.09"/><path class="cls-1" d="M93.79,44.83h-33a1.16,1.16,0,0,1-1.21-1.09L67,25.34c.31-.73.54-1.09,1.21-1.09H93.79A1.16,1.16,0,0,1,95,25.34v18.4A1.16,1.16,0,0,1,93.79,44.83Z"/><path class="cls-1" d="M89.94,41.61h-24a.79.79,0,0,1-.83-.75l5.14-12.65c.22-.5.37-.75.83-.75H89.94a.79.79,0,0,1,.83.75V40.86A.79.79,0,0,1,89.94,41.61Z"/><path class="cls-1" d="M64.83,73A19.43,19.43,0,0,1,84.26,53.59c13.18,0,15.88,6.93,15.88,5.91V52.09a3,3,0,0,0-3-3L50.57,49H23.11a3,3,0,0,0-3,3V71.12a12,12,0,0,1,19.05,4.3H65A19.53,19.53,0,0,1,64.83,73Z"/><circle class="cls-1" cx="27.83" cy="81.13" r="9.96"/><circle class="cls-1" cx="27.83" cy="81.13" r="4.08"/><line class="cls-1" x1="44.54" y1="45.33" x2="44.54" y2="49.02"/><path class="cls-1" d="M44.54,35.48s.8-4.23-1.79-4.23"/></g></g></svg>