<svg xmlns="http://www.w3.org/2000/svg" viewBox="0 0 118 118"><defs><style>.cls-1{fill:none;stroke:#d25f15;stroke-miterlimit:10;}</style></defs><title>Asset 1</title><g id="Layer_2" data-name="Layer 2"><g id="Layer_1-2" data-name="Layer 1"><circle class="cls-1" cx="59" cy="59" r="58.5"/><circle class="cls-1" cx="59" cy="59" r="58.5"/><path class="cls-1" d="M1.92,73.75a41.09,41.09,0,0,1,6.33-1.67c2.86-.52,37.5-2.17,58.67,3.33,4.67,1.5,3.17,7.83,0,7.83s-26.91-1-26.91-1,4.74,4.83,21.24,4.83,12.5-7.67,14.33-9.17,13.76-9.42,15.17-5.33c1.75,5.08-.41,8.8-5.67,12.67-5.67,4.17-20.67,11-26.08,12-3.25,1.33-8.42,0-13.25-1.67s-24.14-7.52-24.67-7.83c-1.33-.5-1.83-2.17-11.17,4"/><path class="cls-1" d="M40.75,66.75C42.08,63.92,49.33,59,56.67,59c0-4.25.08-7.58.08-7.58-1.67,0-12.33.83-16.67-3.83S28.89,28.64,29.2,28.1,52.08,31.92,59,45.42c.25-12.5,7.58-26.33,34.75-25.67-.17,9-7.17,26.17-30.67,27.5V59s18.59,3,18.93,9.13a82.21,82.21,0,0,1-8.43,5.33,97.74,97.74,0,0,0-31.17-5C39.58,68.58,40.75,66.75,40.75,66.75Z"/><path class="cls-1" d="M37.33,35.58s14.42,7.08,16.42,12.5"/><path class="cls-1" d="M65.5,43.92c1.33-2.33,9.83-12.33,15.25-14.25"/></g></g></svg>