<svg xmlns="http://www.w3.org/2000/svg" viewBox="0 0 118 118"><defs><style>.cls-1{fill:none;stroke:#d25f15;stroke-miterlimit:10;}</style></defs><title>Asset 1</title><g id="Layer_2" data-name="Layer 2"><g id="Layer_1-2" data-name="Layer 1"><circle class="cls-1" cx="59" cy="59" r="58.5"/><circle class="cls-1" cx="59" cy="59" r="58.5"/><polyline class="cls-1" points="31.92 65.42 31.92 79.42 43.58 79.42"/><polyline class="cls-1" points="85.58 65.42 85.58 79.42 73.92 79.42"/><circle class="cls-1" cx="31.92" cy="29.08" r="10.17"/><path class="cls-1" d="M34.9,43.75V38.8l-3,.45-3-.45v4.95S13.75,41.13,13.75,59.38H50.08C50.08,41.13,34.9,43.75,34.9,43.75Z"/><circle class="cls-1" cx="85.58" cy="29.08" r="10.17"/><path class="cls-1" d="M88.57,43.75V38.8l-3,.45-3-.45v4.95S67.42,41.13,67.42,59.38h36.33C103.75,41.13,88.57,43.75,88.57,43.75Z"/><circle class="cls-1" cx="58.75" cy="77.92" r="10.17"/><path class="cls-1" d="M61.74,92.59V87.64l-3,.45-3-.45v4.95S40.58,90,40.58,108.21H76.92C76.92,90,61.74,92.59,61.74,92.59Z"/></g></g></svg>