<svg xmlns="http://www.w3.org/2000/svg" viewBox="0 0 118 118"><defs><style>.cls-1{fill:none;stroke:#d25f15;stroke-miterlimit:10;}</style></defs><title>Asset 1</title><g id="Layer_2" data-name="Layer 2"><g id="Layer_1-2" data-name="Layer 1"><circle class="cls-1" cx="59" cy="59" r="58.5"/><path class="cls-1" d="M78.64,58.83A19.52,19.52,0,1,1,72,44.18l8.86-8.86a32.07,32.07,0,1,0,2.35,2.41L74.31,46.6A19.38,19.38,0,0,1,78.64,58.83Z"/><path class="cls-1" d="M39.69,58.83A19.47,19.47,0,1,0,74.31,46.6l-8.1,8.1a8.19,8.19,0,1,1-2.27-2.49l8-8A19.45,19.45,0,0,0,39.69,58.83Z"/><path class="cls-1" d="M58.73,60.2l-.4-.4a1.4,1.4,0,0,1,0-2l5.62-5.62a8.19,8.19,0,1,0,2.27,2.49l-5.5,5.5A1.4,1.4,0,0,1,58.73,60.2Z"/><path class="cls-1" d="M83.18,37.73l2.89-2.89c.5-.5.38-.35.94-.95l7.71-2,4.63-6.13-4.6,0v-3l-3.1-.06V18.09L85.3,23.86s-.65,7.07-.74,7.74c-.29.26-.52.51-.87.86l-2.86,2.86"/><line class="cls-1" x1="74.31" y1="46.6" x2="83.18" y2="37.73"/><line class="cls-1" x1="80.83" y1="35.32" x2="71.97" y2="44.18"/><line class="cls-1" x1="66.21" y1="54.7" x2="74.31" y2="46.6"/><line class="cls-1" x1="71.97" y1="44.18" x2="63.95" y2="52.21"/><path class="cls-1" d="M63.95,52.21l-5.62,5.62a1.4,1.4,0,0,0,0,2l.4.4a1.4,1.4,0,0,0,2,0l5.5-5.5"/></g></g></svg>