<svg xmlns="http://www.w3.org/2000/svg" viewBox="0 0 118 118"><defs><style>.cls-1{fill:none;stroke:#d25f15;stroke-miterlimit:10;}</style></defs><title>Asset 1</title><g id="Layer_2" data-name="Layer 2"><g id="Layer_1-2" data-name="Layer 1"><path class="cls-1" d="M117.5,59a58.5,58.5,0,1,0-99.75,41.48V79.16a2.92,2.92,0,0,1,2.91-2.91H35a2.92,2.92,0,0,1,2.91,2.91v34.39a58,58,0,0,0,5.63,1.86V64a2.92,2.92,0,0,1,2.91-2.91H60.72A2.92,2.92,0,0,1,63.63,64V117.3q2.92-.23,5.75-.74V49.87H56.75L79.54,22.34l22.18,27.51H89.5v59.07A58.46,58.46,0,0,0,117.5,59Z"/><path class="cls-1" d="M35,76.25H20.66a2.92,2.92,0,0,0-2.91,2.91v21.32a58.55,58.55,0,0,0,20.13,13.08V79.16A2.92,2.92,0,0,0,35,76.25Z"/><path class="cls-1" d="M60.72,61.13H46.41A2.92,2.92,0,0,0,43.5,64v51.37A58.52,58.52,0,0,0,59,117.5c1.56,0,3.1-.08,4.63-.2V64A2.92,2.92,0,0,0,60.72,61.13Z"/><path class="cls-1" d="M101.72,49.84,79.54,22.34,56.75,49.88H69.38v66.7a58.12,58.12,0,0,0,20.13-7.64V49.85Z"/></g></g></svg>