<svg xmlns="http://www.w3.org/2000/svg" viewBox="0 0 118 118"><defs><style>.cls-1{fill:none;stroke:#d25f15;stroke-miterlimit:10;}</style></defs><title>Asset 1</title><g id="Layer_2" data-name="Layer 2"><g id="Layer_1-2" data-name="Layer 1"><path class="cls-1" d="M69.06,116.62a58.5,58.5,0,1,0-20.12,0"/><path class="cls-1" d="M91.75,34.25"/><path class="cls-1" d="M91.75,34.25"/><path class="cls-1" d="M48.94,116.62a58,58,0,0,0,20.12,0"/><ellipse class="cls-1" cx="47.2" cy="27.5" rx="3.49" ry="2.41"/><ellipse class="cls-1" cx="59.99" cy="27.5" rx="3.49" ry="2.41"/><ellipse class="cls-1" cx="59.99" cy="17.73" rx="3.49" ry="2.41"/><ellipse class="cls-1" cx="72.79" cy="27.5" rx="3.49" ry="2.41"/><ellipse class="cls-1" cx="47.2" cy="37.27" rx="3.49" ry="2.41"/><ellipse class="cls-1" cx="59.99" cy="37.27" rx="3.49" ry="2.41"/><ellipse class="cls-1" cx="72.79" cy="37.27" rx="3.49" ry="2.41"/><ellipse class="cls-1" cx="47.2" cy="47.04" rx="3.49" ry="2.41"/><ellipse class="cls-1" cx="59.99" cy="47.04" rx="3.49" ry="2.41"/><ellipse class="cls-1" cx="72.79" cy="47.04" rx="3.49" ry="2.41"/><ellipse class="cls-1" cx="47.2" cy="56.81" rx="3.49" ry="2.41"/><ellipse class="cls-1" cx="59.99" cy="56.81" rx="3.49" ry="2.41"/><ellipse class="cls-1" cx="72.79" cy="56.81" rx="3.49" ry="2.41"/><ellipse class="cls-1" cx="59.99" cy="66.58" rx="3.49" ry="2.41"/><ellipse class="cls-1" cx="59.99" cy="75.84" rx="3.49" ry="2.41"/><path class="cls-1" d="M46.21,68.89a4.88,4.88,0,0,0,1,.11c1.93,0,3.49-1.08,3.49-2.41s-1.56-2.41-3.49-2.41a3.6,3.6,0,0,0-3.3,1.66,31.65,31.65,0,0,1,2,2.65Z"/><path class="cls-1" d="M76.28,66.58c0-1.33-1.56-2.41-3.49-2.41s-3.49,1.08-3.49,2.41S70.86,69,72.79,69a3.52,3.52,0,0,0,3.34-1.76l.08-.23A1.7,1.7,0,0,0,76.28,66.58Z"/><path class="cls-1" d="M43.9,65.83A43.68,43.68,0,0,0,31.25,56c6.67,6.67,9.33,17.25,9.33,25.17,0,6.87,3.52,14.11,8.29,16,0,.09.07.66.07,1.46v18a58,58,0,0,0,20.12,0v-18c0-.6,0-.3,0-.82,5-1.85,8.3-9.12,9.35-16.4,1.25-8.67,5.71-33.52,13.38-47.19C84.56,38.15,79.9,56.91,76.21,67a1.79,1.79,0,0,1-.08.23c-.26.72-.52,1.39-.78,2a19.34,19.34,0,0,1-1.42,2.89,10.29,10.29,0,0,1-2.29,2.5h0a19.29,19.29,0,0,1-10.89,3.62,19.49,19.49,0,0,1-10.41-4A11.09,11.09,0,0,1,47.5,71c-.38-.7-.82-1.41-1.29-2.11"/><path class="cls-1" d="M76.13,67.24a1.79,1.79,0,0,0,.08-.23Z"/></g></g></svg>