<svg xmlns="http://www.w3.org/2000/svg" viewBox="0 0 1016.25 121.76"><defs><style>.cls-1{fill:#231f20;}.cls-2{fill:#cb5c28;}.cls-3{fill:#0065a3;}</style></defs><title>Asset 1</title><g id="Layer_2" data-name="Layer 2"><g id="horizontal"><path class="cls-1" d="M175.21,110c-26.7,0-36.42-18.54-36.42-42.9,0-12.84,3-27.74,13.61-36.17,7.65-6.09,18-7.39,27.48-7.39H217.6V39H181.95c-18.14,0-22.81,9.73-22.81,26.45,0,6.09,1,15.56,4,21,3.89,7.13,12.05,8.17,19.44,8.17h16.72V74.14H175.21V58.72H217.6V110Z"/><path class="cls-1" d="M258.55,111c-21,0-33.18-12.06-33.18-33.06,0-19.83,13.87-31.89,33.31-31.89,21,0,33.57,12.19,33.57,33.31,0,20.35-14,31.63-33.7,31.63m.26-51.72c-12.44,0-15.69,8.69-15.69,19.7,0,10.76,4.15,18.79,15.94,18.79s15.43-8.81,15.43-19.31-3.76-19.18-15.68-19.18"/><rect class="cls-1" x="300.54" y="23.59" width="17.37" height="86.45"/><path class="cls-1" d="M361.45,110c-6.35,0-11.41-.13-17.24-2.85-11.92-5.57-16.72-16.72-16.72-29.29,0-7.91,1.69-14.52,6.61-20.74,6.22-7.78,13.87-10.24,23.59-10.24H374V23.59H391.4V110ZM374,60.4H361.45c-10.76,0-16.33,7.52-16.33,17.76s5.32,18.4,16.33,18.4H374Z"/><path class="cls-1" d="M433.65,110c-8.17,0-14.52-.9-21.13-6C404.09,97.73,401,88,401,77.77c0-9.85,3.89-20.61,12.44-26.32,5.57-3.76,12.44-4.53,19.05-4.53h24.37V60.4h-23.2c-8.81,0-12.58,2.2-13.35,11.28h36.55V85.16H420.3c.65,9.72,6.48,11.41,15.29,11.41h21.26V110Z"/><path class="cls-1" d="M509.21,110V69.22c0-6.35-2.59-8.81-8.94-8.81h-15V110H467.86V46.92h34.61c16.72,0,24.11,7.65,24.11,24.37V110Z"/><polygon class="cls-1" points="591.65 110.05 591.65 74.27 558.2 74.27 558.2 110.05 539.8 110.05 539.8 23.59 558.2 23.59 558.2 58.98 591.65 58.98 591.65 23.59 609.92 23.59 609.92 110.05 591.65 110.05"/><path class="cls-1" d="M645.3,110c-4.66,0-9.59.13-14-1-7.91-2.07-12.19-9.85-12.19-17.63,0-6.09,2.46-12.44,7.52-16.2,4.67-3.37,13-3.5,18.41-3.5H666.3v-1c0-9.07-5.19-10.24-13.22-10.24h-29.3V46.92h29.3c2.33,0,4.79.13,7.13.13,10.63.26,18.67,3.89,22,14.65a43,43,0,0,1,1.43,12.83V110Zm21-24.89H643.35c-3.63,0-6.48,1.95-6.48,5.84,0,5.44,5.06,5.57,9.34,5.57H666.3Z"/><path class="cls-1" d="M728.89,75.44c0-9.59.26-15-11.15-15h-5.05V110H695.32V46.92H721c6.87,0,14.12.13,19.44,4.93,4.92,4.41,5.18,11.28,5.18,17.5v6.09Z"/><polygon class="cls-1" points="791.5 110.05 772.83 110.05 747.68 46.92 766.61 46.92 782.68 90.34 800.31 46.92 818.71 46.92 791.5 110.05"/><path class="cls-1" d="M850.6,110c-8.17,0-14.52-.9-21.13-6C821,97.73,817.93,88,817.93,77.77c0-9.85,3.89-20.61,12.44-26.32,5.57-3.76,12.44-4.53,19.06-4.53H873.8V60.4H850.6c-8.81,0-12.57,2.2-13.35,11.28H873.8V85.16H837.25c.65,9.72,6.48,11.41,15.3,11.41H873.8V110Z"/><path class="cls-1" d="M929.27,109.27A54.79,54.79,0,0,1,918,110H882.22V96.56h30.85c1.82,0,3.76,0,5.57-.13,3.76-.26,6.87-.78,6.87-5.18,0-6.62-5.7-6.22-10.63-6.22-6,0-15.94.78-21.91-1.43-7.78-2.85-11.8-10.24-11.8-18.28A19.21,19.21,0,0,1,885.46,53c4.67-5.71,10-6.1,17-6.1h37.07V60.4H908.79c-.77,0-1.68.13-2.46.13-4,0-7.26.39-7.26,5.44,0,6.48,6.74,6.09,11.27,6.09h10.24c11.79,0,21.77,4.93,21.77,18,0,8.16-4.54,17.36-13.09,19.18"/><path class="cls-1" d="M978.13,110c-8.55,0-16.07-2.33-19.31-11-1.43-4.15-1.56-8.43-1.56-12.7V60.4h-11V46.92h11V23.59h17.37V46.92H990.7V60.4H974.63V83.35c0,2.72-.26,7.77,1.42,10.11,3,4.15,10.37,3.11,14.65,3.11V110Z"/><path class="cls-2" d="M34.1,62.86c1.85-10.46,3.76-21.26,7.94-31A82.18,82.18,0,0,1,52.48,13.56a54.05,54.05,0,0,0-34.21,94.56l6.57-12.33C30,86.15,32.07,74.31,34.1,62.86Z"/><path class="cls-3" d="M92.81,31.68C84.93,79.19,60.65,96.1,35.58,107.29l-11.7,5.23A54.12,54.12,0,0,0,93.15,30.14C93,30.66,92.9,31.14,92.81,31.68Z"/><path class="cls-1" d="M101.17,0C74.84,1.9,60.56,9.65,49.69,35.08c-3.81,8.92-5.64,19.24-7.4,29.23C40.14,76.46,37.94,88.9,32.19,99.7,55.42,89.32,77.25,74.64,84.61,30.31A52,52,0,0,1,101.17,0Z"/><path class="cls-1" d="M1005.42,44a10.83,10.83,0,1,1,10.83-10.83A10.86,10.86,0,0,1,1005.42,44m0-20.38a9.51,9.51,0,1,0,9.43,9.55,9.5,9.5,0,0,0-9.43-9.55m2.7,15.12a10.09,10.09,0,0,1-.21-1.58c-.15-2.11-1-2.71-3-2.71h-1.94v4.29h-2.39V27.57H1006c2.22,0,4.6.43,4.6,3.14A3,3,0,0,1,1008.5,34c2.61.91,1.52,2.87,2.28,4.82Zm-1.83-9.21h-3.35v3h3.35c1.14,0,1.74-.37,1.74-1.57s-.71-1.4-1.74-1.4"/></g></g></svg>