<svg xmlns="http://www.w3.org/2000/svg" viewBox="0 0 138.01 121.36"><defs><style>.cls-1{fill:#231f20;}.cls-2{fill:#607cbb;}.cls-3{fill:#406ab1;}.cls-4{fill:#a2aed8;}.cls-5{fill:#0054a4;}.cls-6{fill:#9facd6;}.cls-7{fill:#647ebd;}.cls-8{fill:#2560ab;}.cls-9{fill:#bec6e4;}.cls-10{fill:#c1c8e5;}.cls-11{fill:#627dbc;}.cls-12{fill:#b9c2e2;}.cls-13{fill:#3867af;}.cls-14{fill:#b7c0e1;}.cls-15{fill:#cbd1e9;}.cls-16{fill:#fff;}.cls-17{fill:#8e9ecf;}.cls-18{fill:#bcc4e3;}.cls-19{fill:#6f86c1;}.cls-20{fill:#778cc4;}.cls-21{fill:#6d84c0;}.cls-22{fill:#5c79ba;}.cls-23{fill:#899acd;}.cls-24{fill:#ffea00;}</style></defs><title>Asset 2</title><g id="Layer_2" data-name="Layer 2"><g id="Layer_1-2" data-name="Layer 1"><polygon class="cls-1" points="7.53 9.35 10.53 9.35 12.44 0.28 9.44 0.28 8.76 3.52 4.22 3.52 4.9 0.28 1.91 0.28 0 9.35 2.99 9.35 3.79 5.55 8.33 5.55 7.53 9.35"/><polygon class="cls-1" points="12.99 9.35 21.99 9.35 22.4 7.39 16.4 7.39 16.74 5.75 22.37 5.75 22.76 3.87 17.14 3.87 17.48 2.23 23.48 2.23 23.9 0.28 14.9 0.28 12.99 9.35"/><path class="cls-1" d="M28.37,2.31h2.89c.72,0,1,.38.91,1a1.24,1.24,0,0,1-1.33,1H28Zm-4.47,7h3l.64-3h2.74c.76,0,1.17.25.87,1.67A3.69,3.69,0,0,0,31,9.35h3.28c-.28-.46-.21-1,0-2.82.13-1-.21-1.44-.74-1.63v0a2.55,2.55,0,0,0,1.87-2.07C35.8,1.3,35.2.28,33,.28H25.81Z"/><path class="cls-1" d="M44.48,5.86A2.76,2.76,0,0,1,41.76,7.6c-1.93,0-2.22-1.29-1.9-2.79A3.06,3.06,0,0,1,42.94,2c1.69,0,1.9,1.1,1.94,1.74h3.34C48.22.64,46.09,0,43.35,0c-3.9,0-6,1.78-6.66,4.81s.84,4.82,4.63,4.82c4.26,0,5.71-1.82,6.48-3.77Z"/><path class="cls-1" d="M49.52,6.15c-.53,2.5,1.13,3.48,4.31,3.48s5.25-1,5.78-3.48L60.84.28h-3L56.71,5.65A2.13,2.13,0,0,1,54.26,7.6c-1.38,0-2-.47-1.64-1.95L53.75.28h-3Z"/><polygon class="cls-1" points="61.27 9.35 69.73 9.35 70.18 7.24 64.71 7.24 66.17 0.28 63.18 0.28 61.27 9.35"/><polygon class="cls-1" points="71.48 9.35 80.47 9.35 80.88 7.39 74.89 7.39 75.23 5.75 80.85 5.75 81.25 3.87 75.63 3.87 75.97 2.23 81.97 2.23 82.38 0.28 73.39 0.28 71.48 9.35"/><polygon class="cls-1" points="74.63 16.23 75.21 16.23 87.41 6.61 88.75 9.35 92.46 9.35 89.55 4.64 95.18 0.28 90.39 0.28 88.23 2.72 87.1 0.28 83.54 0.28 86.11 4.64 74.63 16.23"/><polygon class="cls-1" points="4.11 17.47 4.98 17.47 5.86 13.31 4.99 13.31 4.11 17.47"/><path class="cls-1" d="M6.45,17.47h.79l.35-1.66a1.15,1.15,0,0,1,1.14-.9c.66,0,.69.38.62.72L9,17.47h.8l.44-2.1c.18-.83-.41-1.07-1.07-1.07a1.83,1.83,0,0,0-1.32.54h0l.1-.46H7.1Z"/><path class="cls-1" d="M11.18,16.5c-.17.94.83,1.08,1.48,1.08.95,0,1.75-.26,1.92-1s-.49-.82-1.46-1c-.75-.11-.82-.15-.76-.41s.31-.35.77-.35c.27,0,.79,0,.75.51h.83c.17-1-1-1.06-1.43-1.06s-1.55.12-1.74,1c-.15.7.33.81,1.25.94s1,.2.9.44-.52.4-.92.4S12,17,12,16.5Z"/><path class="cls-1" d="M19.49,16.13l0-.12c.19-.9-.15-1.75-1.51-1.75A2.16,2.16,0,0,0,15.81,16c-.17.82.17,1.63,1.55,1.63a2.28,2.28,0,0,0,2-1h-.86a1.18,1.18,0,0,1-1,.44c-.79,0-.91-.53-.85-.87Zm-2.78-.52a1.29,1.29,0,0,1,1.2-.8.76.76,0,0,1,.86.8Z"/><path class="cls-1" d="M24.35,15.46c0-1-1-1.2-1.43-1.2a2.14,2.14,0,0,0-2.24,1.66c-.18.85.17,1.66,1.54,1.66a2,2,0,0,0,2-1.3h-.83a1.1,1.1,0,0,1-1.1.69c-.68,0-.86-.51-.75-1a1.27,1.27,0,0,1,1.28-1c.46,0,.74.26.73.58Z"/><path class="cls-1" d="M25.59,16.6c-.12.59-.12.94.85.94a4.1,4.1,0,0,0,.62-.05l.13-.58h-.58c-.27,0-.25-.19-.17-.55L26.73,15h.84l.12-.58h-.83l.2-1h-.8l-.2,1h-.63L25.3,15h.64Z"/><path class="cls-1" d="M32.69,14h1.46c.33,0,.66.13.55.64s-.39.63-.89.63H32.42Zm-1.6,3.51H32l.34-1.59H34a1.6,1.6,0,0,0,1.6-1.28c.14-.67-.06-1.29-1.07-1.29H32Z"/><path class="cls-1" d="M36.2,17.47H37L37.31,16A1.17,1.17,0,0,1,38.49,15a1.45,1.45,0,0,1,.49.08l.16-.8-.31,0a1.61,1.61,0,0,0-1.29.68h0l.13-.6h-.8Z"/><path class="cls-1" d="M40.62,15.92a1.26,1.26,0,0,1,1.29-1,.77.77,0,0,1,.84,1,1.25,1.25,0,0,1-1.28,1C40.69,17,40.51,16.46,40.62,15.92Zm-.83,0c-.18.85.18,1.66,1.55,1.66a2.11,2.11,0,0,0,2.24-1.66c.18-.85-.18-1.66-1.55-1.66A2.11,2.11,0,0,0,39.79,15.92Z"/><path class="cls-1" d="M44.92,16.6c-.12.59-.12.94.85.94a4.1,4.1,0,0,0,.62-.05l.13-.58h-.58c-.27,0-.25-.19-.17-.55L46.06,15h.84l.12-.58h-.83l.2-1h-.8l-.2,1h-.63l-.13.58h.64Z"/><path class="cls-1" d="M51.46,16.13l0-.12c.19-.9-.15-1.75-1.51-1.75A2.15,2.15,0,0,0,47.79,16c-.18.82.17,1.63,1.54,1.63a2.28,2.28,0,0,0,2-1h-.86a1.18,1.18,0,0,1-1,.44c-.79,0-.91-.53-.85-.87Zm-2.77-.52a1.26,1.26,0,0,1,1.19-.8.76.76,0,0,1,.86.8Z"/><path class="cls-1" d="M56.32,15.46c0-1-1-1.2-1.43-1.2a2.14,2.14,0,0,0-2.24,1.66c-.18.85.17,1.66,1.54,1.66a2,2,0,0,0,2-1.3h-.83a1.1,1.1,0,0,1-1.09.69c-.69,0-.87-.51-.76-1a1.27,1.27,0,0,1,1.28-1c.46,0,.74.26.73.58Z"/><path class="cls-1" d="M57.56,16.6c-.12.59-.12.94.85.94a4,4,0,0,0,.62-.05l.13-.58h-.58c-.27,0-.24-.19-.17-.55l.3-1.41h.83l.12-.58h-.83l.2-1h-.8l-.2,1H57.4l-.12.58h.63Z"/><path class="cls-1" d="M60.23,17.47H61l.65-3.09h-.8ZM61,13.89h.8l.14-.65h-.8Z"/><path class="cls-1" d="M63.44,15.92a1.25,1.25,0,0,1,1.28-1,.78.78,0,0,1,.85,1,1.25,1.25,0,0,1-1.28,1C63.51,17,63.33,16.46,63.44,15.92Zm-.83,0c-.18.85.18,1.66,1.54,1.66a2.1,2.1,0,0,0,2.24-1.66c.18-.85-.17-1.66-1.54-1.66A2.11,2.11,0,0,0,62.61,15.92Z"/><path class="cls-1" d="M67.31,17.47h.79l.35-1.66a1.15,1.15,0,0,1,1.14-.9c.66,0,.69.38.62.72l-.38,1.84h.79l.44-2.1c.18-.83-.41-1.07-1.07-1.07a1.83,1.83,0,0,0-1.32.54h0l.09-.46H68Z"/><path class="cls-1" d="M111.41,4.47l2.11,4.88h-3.25l-1.13-2.87L106.9,9.35h-2.57l3.86-4.72-2-4.4h3.26l.94,2.46,2-2.46h2.51Z"/><path class="cls-1" d="M118.21,9.35h-2.66l1.35-6.93H115l.43-2.19h6.45l-.43,2.19h-1.87Z"/><path class="cls-1" d="M123.72,9.35h-2.84L122.66.23h4.64a3.73,3.73,0,0,1,2.24.56,2.06,2.06,0,0,1,.7,2.18,3.14,3.14,0,0,1-2.08,2.41l.88,4h-3.12l-.65-3.48h-.88Zm1-5.44h1c.61,0,1.36-.09,1.51-.87a.69.69,0,0,0-.29-.75,1.67,1.67,0,0,0-.78-.12h-1.13Z"/><path class="cls-1" d="M135,7.56h-2.43l-.91,1.79h-2.27L134,.23h2.95L138,9.35h-2.86Zm-.09-2-.23-2.65L133.4,5.56Z"/><path class="cls-1" d="M95.17,3.67a3.4,3.4,0,0,1,6.79,0,3.29,3.29,0,0,1-3.39,3.4A3.24,3.24,0,0,1,95.17,3.67Zm.85,0a2.41,2.41,0,0,0,2.53,2.57,2.47,2.47,0,0,0,2.57-2.6,2.55,2.55,0,0,0-5.1,0ZM97.8,5.53H97V1.86h2c.77,0,1.23.3,1.23,1.13,0,.67-.36.94-1,1l.88,1.56h-.92l-.81-1.47H97.8Zm1.07-2.1c.41,0,.61-.07.61-.53s-.44-.42-.79-.42H97.8v1Z"/><path class="cls-2" d="M10.12,25.23h.24l-2.26-3H7.79Z"/><path class="cls-2" d="M10.12,25.23h6.3l-1.58-3h-7Z"/><path class="cls-2" d="M16.23,25.23h.32L15,22.2h-.34Z"/><path class="cls-2" d="M16.55,25.23H33.67l-.79-3H15Z"/><path class="cls-2" d="M33.67,25.23H56.73l-.24-3H32.88Z"/><path class="cls-2" d="M56.73,25.23H76.17l.11-3H56.49Z"/><path class="cls-2" d="M76.17,25.23H93.8l.44-3h-18Z"/><path class="cls-2" d="M93.8,25.23h15.52l.84-3H94.24Z"/><path class="cls-2" d="M109.32,25.23H124l1.56-3H110.16Z"/><path class="cls-2" d="M124,25.23H128l2.05-3h-4.56Z"/><path class="cls-3" d="M10.37,29.7c0,.2,0,.4.07.6L8.12,28.08c0-.23,0-.47-.07-.69Z"/><path class="cls-3" d="M10.12,25.23v.52L7.79,22.82V22.2Z"/><path class="cls-3" d="M10.12,25.75c0,.17,0,.35,0,.53L7.8,23.44c0-.21,0-.41,0-.62Z"/><path class="cls-3" d="M10.13,26.28c0,.18,0,.36,0,.54L7.82,24.07c0-.21,0-.42,0-.63Z"/><path class="cls-3" d="M10.15,26.82l0,.55L7.86,24.72c0-.22,0-.43,0-.65Z"/><path class="cls-3" d="M10.18,27.37c0,.19,0,.38,0,.57L7.89,25.37l0-.65Z"/><path class="cls-3" d="M10.22,27.94c0,.19,0,.38,0,.58L7.93,26c0-.22,0-.44,0-.66Z"/><path class="cls-3" d="M10.26,28.52c0,.19,0,.38.05.58L8,26.71,7.93,26Z"/><path class="cls-3" d="M10.31,29.1l.06.6L8.05,27.39,8,26.71Z"/><path class="cls-3" d="M10.44,30.3c0,.2.05.41.07.61L8.2,28.78c0-.24-.06-.47-.08-.7Z"/><path class="cls-3" d="M10.51,30.91c0,.21.05.42.08.63L8.28,29.48c0-.23-.06-.47-.08-.7Z"/><path class="cls-3" d="M10.59,31.54c0,.21.07.42.09.63l-2.31-2-.09-.72Z"/><path class="cls-3" d="M10.68,32.17c0,.22.07.43.1.65L8.47,30.93c0-.24-.06-.49-.1-.73Z"/><path class="cls-3" d="M10.78,32.82c0,.21.07.43.11.65L8.58,31.66c0-.25-.07-.49-.11-.73Z"/><path class="cls-3" d="M10.89,33.47c0,.22.07.44.11.66L8.7,32.4l-.12-.74Z"/><path class="cls-3" d="M11,34.13l.12.67-2.3-1.65L8.7,32.4Z"/><path class="cls-3" d="M11.12,34.8c0,.22.09.45.13.68L9,33.9c0-.25-.08-.5-.13-.75Z"/><path class="cls-3" d="M11.25,35.48c0,.22.09.45.14.68l-2.3-1.49c0-.26-.09-.51-.14-.77Z"/><path class="cls-3" d="M11.39,36.16c0,.23.09.46.14.7L9.24,35.44l-.15-.77Z"/><path class="cls-3" d="M11.53,36.86l.15.7L9.4,36.21c-.06-.26-.11-.52-.16-.77Z"/><path class="cls-3" d="M11.68,37.56c.05.23.1.47.16.7L9.56,37c-.05-.26-.11-.53-.16-.79Z"/><path class="cls-3" d="M11.84,38.26c.05.24.11.48.16.72L9.73,37.79c-.06-.26-.11-.53-.17-.79Z"/><path class="cls-3" d="M12,39c.06.24.12.48.17.72L9.91,38.59l-.18-.8Z"/><path class="cls-3" d="M12.17,39.7c.07.24.12.49.19.73l-2.26-1c-.07-.27-.13-.54-.19-.8Z"/><path class="cls-3" d="M12.36,40.43l.18.74-2.25-1c-.07-.27-.13-.54-.19-.81Z"/><path class="cls-3" d="M12.54,41.17c.07.25.13.5.2.74L10.49,41c-.07-.27-.14-.54-.2-.81Z"/><path class="cls-3" d="M12.74,41.91c.07.25.13.5.2.76l-2.24-.84c-.08-.27-.14-.54-.21-.82Z"/><path class="cls-3" d="M12.94,42.67l.21.75-2.24-.76-.21-.83Z"/><path class="cls-3" d="M13.15,43.42c0,.13.07.26.11.38L11,43.08c0-.14-.07-.28-.11-.42Z"/><path class="cls-3" d="M13.26,43.8c0,.13.07.26.11.38s.07.26.11.39l-2.23-.66c0-.14-.11-.42-.11-.42L11,43.08Z"/><path class="cls-3" d="M13.48,44.57c0,.13.07.25.11.38l.12.39s.07.26.11.39l-2.22-.56-.12-.42c0-.14-.11-.42-.11-.42l-.12-.42Z"/><path class="cls-3" d="M13.82,45.73l.12.38.12.4.12.39L12,46.44,11.85,46c0-.15-.13-.42-.13-.42s-.08-.29-.12-.43Z"/><path class="cls-3" d="M14.18,46.9l.12.39s.09.26.13.4.08.26.13.39l.12.4-2.19-.33-.13-.43c0-.14-.13-.42-.13-.42s-.13-.43-.13-.43-.08-.28-.13-.43Z"/><path class="cls-3" d="M14.68,48.48c0,.13.09.26.14.4s.08.26.13.4.09.26.13.4.09.26.13.4.1.27.14.4.09.27.14.4.1.28.14.41.09.27.15.41.09.27.14.4.09.27.15.41l.14.41s.11.27.16.41l.14.41s.11.28.15.41l.16.41s.1.28.16.42l.15.41s.11.28.17.41.1.28.16.42l-2.1.26L15.19,56c0-.15-.16-.44-.16-.44l-.17-.44-.16-.45c0-.15-.16-.44-.16-.44s-.16-.44-.16-.44l-.15-.44-.15-.44c-.06-.15-.16-.44-.16-.44l-.15-.44-.15-.44-.15-.43c0-.15-.14-.44-.14-.44l-.14-.44L13,49.88l-.13-.43L12.77,49c0-.14-.14-.43-.14-.43s-.09-.28-.14-.43Z"/><path class="cls-3" d="M17.46,56.22l.16.42.16.42s.11.28.17.41l.17.42.17.42.17.43s.11.28.17.41.12.28.17.42L19,60l-2,.5c-.07-.15-.19-.45-.19-.45l-.17-.45c-.07-.14-.19-.44-.19-.44s-.17-.45-.17-.45L16,58.26l-.17-.45-.18-.44-.16-.45c-.06-.15-.12-.29-.17-.44Z"/><path class="cls-3" d="M19,60l.18.42.18.42.18.42s.12.29.19.43l.18.42.18.43.19.42-2,.7c-.06-.15-.2-.46-.2-.46l-.19-.45-.19-.45-.19-.45-.18-.45c-.07-.15-.19-.45-.19-.45l-.18-.45Z"/><path class="cls-3" d="M20.26,63c.06.15.13.29.19.43l.19.42s.13.29.2.43.12.29.19.43l.19.42s.14.29.2.43l.2.43.2.43-1.94.9-.21-.46-.21-.45-.2-.45-.21-.46L18.86,65l-.2-.45-.2-.45-.2-.45Z"/><path class="cls-3" d="M21.82,66.38c.07.14.14.28.2.42l.2.43.21.43.21.43s.13.28.21.43.14.28.2.42l.22.43.21.43.21.43.22.42s.14.29.22.43.14.29.22.43.14.29.22.43l.22.43.23.42.22.43.23.43.23.43.23.43.23.42.23.43s.16.28.23.42l.24.43.24.43.24.42.24.42.24.43.24.42.25.42s.17.29.24.43l.25.42.26.42s.16.28.25.42l-1.67,1.65-.26-.44-.26-.45-.26-.44-.25-.44-.26-.45-.25-.44L25.85,79l-.25-.44-.25-.45-.24-.45c-.09-.14-.25-.45-.25-.45l-.25-.44c-.07-.15-.24-.45-.24-.45l-.24-.44-.23-.46L23.66,75l-.24-.45-.23-.45L23,73.6c-.07-.15-.23-.45-.23-.45-.07-.15-.23-.45-.23-.45l-.22-.45L22,71.8l-.22-.45-.22-.46-.23-.45L21.15,70c-.06-.15-.21-.45-.21-.45l-.22-.46-.21-.45-.21-.45c-.08-.15-.22-.45-.22-.45-.07-.16-.13-.31-.2-.45Z"/><path class="cls-3" d="M29.31,80.44c.08.14.16.28.25.42s.16.28.25.42l.26.42.26.42.25.42.26.41-1.6,1.77L29,84.29l-.27-.44-.27-.44L28.17,83l-.27-.44c-.08-.15-.17-.29-.26-.44Z"/><path class="cls-3" d="M30.84,83c.09.14.18.28.26.42l.27.41.26.42.27.42.26.41-1.55,1.86-.28-.43L30.06,86c-.09-.15-.28-.43-.28-.43l-.27-.44-.27-.44Z"/><path class="cls-3" d="M32.16,85l.27.41.27.41.27.41s.18.28.28.41l.27.41L32,89l-.28-.43-.29-.42-.28-.43c-.09-.15-.28-.43-.28-.43l-.28-.44Z"/><path class="cls-3" d="M33.52,87.08c.09.14.18.28.28.41l.27.41.28.4s.18.27.28.4l-1.45,2-.3-.43-.28-.42-.29-.42c-.09-.15-.19-.29-.29-.43Z"/><path class="cls-3" d="M34.63,88.7l.28.41.28.4.29.41L34.06,92l-.29-.42-.3-.42-.29-.42Z"/><path class="cls-3" d="M35.48,89.92l.28.39.29.4.29.4L35,93.25l-.3-.42-.29-.41-.3-.42Z"/><path class="cls-3" d="M36.34,91.11l.29.4.58.78-1.35,2.19-.6-.82L35,93.25Z"/><path class="cls-3" d="M37.21,92.29c.19.27.39.53.59.79l.59.78-1.3,2.26-.61-.82-.62-.82Z"/><path class="cls-3" d="M38.39,93.86l.6.77-1.27,2.29-.63-.8Z"/><path class="cls-3" d="M39,94.63l.6.77.62.76L39,98.52l-.64-.8-.63-.8Z"/><path class="cls-3" d="M40.21,96.16c.2.26.4.51.61.76L39.63,99.3,39,98.52Z"/><path class="cls-3" d="M40.82,96.92l.62.75-1.16,2.42-.65-.79Z"/><path class="cls-3" d="M41.44,97.67c.21.25.41.5.63.74l.62.74-1.1,2.47c-.23-.25-.67-.76-.67-.76l-.64-.77Z"/><path class="cls-3" d="M42.69,99.15l.64.73-1.08,2.5-.66-.76Z"/><path class="cls-3" d="M43.33,99.88l.65.72-1.06,2.54c-.23-.25-.45-.5-.67-.76Z"/><path class="cls-3" d="M44,100.6l.32.36-1,2.55c-.12-.12-.23-.25-.34-.37Z"/><path class="cls-3" d="M44.3,101c.1.12.21.24.32.35l.33.36s.21.24.32.35l-1,2.6-.34-.37-.34-.37-.33-.37Z"/><path class="cls-3" d="M45.27,102l.33.35.33.35.33.35-1,2.64-.34-.36-.35-.37-.34-.36Z"/><path class="cls-3" d="M46.26,103.07l.33.34.33.35.34.34-.91,2.68-.35-.36c-.12-.11-.35-.35-.35-.35l-.35-.36Z"/><path class="cls-3" d="M47.26,104.1l.33.34s.23.22.34.34l.34.33-.87,2.72-.36-.34-.35-.36-.34-.35Z"/><path class="cls-3" d="M48.27,105.11c.11.11.22.23.33.33l.35.34.34.32-.82,2.76-.36-.34-.36-.34c-.11-.12-.23-.23-.35-.35Z"/><path class="cls-3" d="M49.29,106.1l.34.33.34.32.35.33.34.31-.75,2.82-.36-.33-.37-.34-.36-.34-.35-.34Z"/><path class="cls-3" d="M50.66,107.39l.35.32.35.32.35.31.35.31-.69,2.87-.37-.33-.37-.32-.36-.33-.36-.33Z"/><path class="cls-3" d="M52.06,108.65l.35.31.36.31.35.3.35.3.36.3.36.29.36.3L54,113.71l-.38-.3-.38-.31-.37-.31-.37-.32-.37-.31-.37-.32-.37-.32Z"/><path class="cls-3" d="M54.55,110.76l.36.29.36.29.37.28.36.28.36.28.37.28.37.28.36.27.37.27.38.26.37.27-.38,3.08-.39-.27c-.14-.09-.39-.28-.39-.28l-.39-.28-.38-.28-.39-.29-.38-.29-.39-.29-.38-.3-.38-.3-.37-.3-.38-.3Z"/><path class="cls-3" d="M58.58,113.81l.37.26.38.26.37.25.38.26.37.25.38.24-.27,3.16-.4-.26-.39-.26-.4-.27c-.12-.09-.39-.26-.39-.26l-.39-.27-.39-.28Z"/><path class="cls-3" d="M60.83,115.33l.38.25.38.24s.26.15.39.24l-.22,3.18-.4-.25-.4-.25-.4-.25Z"/><path class="cls-3" d="M62,116.06l.38.23.38.23.39.23L63,120l-.41-.24-.4-.24-.4-.25Z"/><path class="cls-3" d="M63.13,116.75l.38.22.39.23-.12,3.24-.4-.24L63,120Z"/><path class="cls-3" d="M63.9,117.2l.39.22.39.21-.08,3.27-.41-.23-.41-.23Z"/><path class="cls-3" d="M64.68,117.63l.39.22.39.21,0,3.28-.41-.22-.41-.22Z"/><path class="cls-4" d="M113.07,68.67l-.25.44,1.82,1.12c.09-.16.18-.31.26-.47Z"/><path class="cls-4" d="M128,25.23l0,.49,2.06-2.93a5.85,5.85,0,0,0,0-.59Z"/><path class="cls-4" d="M128.07,25.72l0,.51,2.07-2.84c0-.2,0-.4,0-.6Z"/><path class="cls-4" d="M128.1,26.23c0,.17,0,.35,0,.52L130.19,24c0-.21,0-.41,0-.62Z"/><path class="cls-4" d="M128.11,26.75v.53l2.09-2.65c0-.21,0-.42,0-.62Z"/><path class="cls-4" d="M128.11,27.28c0,.18,0,.36,0,.55l2.1-2.56v-.64Z"/><path class="cls-4" d="M128.1,27.83c0,.18,0,.37,0,.55l2.1-2.47c0-.22,0-.43,0-.64Z"/><path class="cls-4" d="M128.08,28.38l0,.57,2.1-2.38,0-.66Z"/><path class="cls-4" d="M128.05,29c0,.19,0,.39-.05.58l2.11-2.29c0-.23,0-.45,0-.67Z"/><path class="cls-4" d="M128,29.53c0,.2,0,.39,0,.59l2.11-2.21c0-.22,0-.45.05-.67Z"/><path class="cls-4" d="M128,30.12c0,.2,0,.4-.07.61L130,28.6l.06-.69Z"/><path class="cls-4" d="M127.88,30.73c0,.2,0,.4-.07.61l2.11-2c0-.24.06-.47.08-.7Z"/><path class="cls-4" d="M127.81,31.34l-.09.62L129.84,30c0-.24.06-.48.08-.71Z"/><path class="cls-4" d="M127.72,32c0,.21-.06.42-.1.63l2.13-1.87.09-.71Z"/><path class="cls-4" d="M127.62,32.59c0,.22-.07.43-.11.65l2.13-1.79c0-.25.07-.49.11-.73Z"/><path class="cls-4" d="M127.51,33.24l-.12.65,2.13-1.71.12-.73Z"/><path class="cls-4" d="M127.39,33.89c0,.22-.08.44-.13.66l2.14-1.63.12-.74Z"/><path class="cls-4" d="M127.26,34.55c0,.23-.09.45-.14.67l2.13-1.54.15-.76Z"/><path class="cls-4" d="M127.12,35.22l-.15.68,2.13-1.46c.06-.26.11-.51.15-.76Z"/><path class="cls-4" d="M127,35.9c-.06.23-.11.46-.16.7l2.13-1.4c.06-.25.11-.51.16-.76Z"/><path class="cls-4" d="M126.81,36.6l-.18.7L128.77,36c.06-.26.12-.52.17-.78Z"/><path class="cls-4" d="M126.63,37.3c0,.23-.12.46-.18.7l2.14-1.23.18-.79Z"/><path class="cls-4" d="M126.45,38c-.06.24-.12.48-.19.72l2.13-1.16c.07-.27.14-.53.2-.79Z"/><path class="cls-4" d="M126.26,38.72c-.07.23-.13.48-.2.72l2.13-1.08c.07-.27.14-.54.2-.8Z"/><path class="cls-4" d="M126.06,39.44c-.07.24-.14.49-.22.74l2.14-1,.21-.8Z"/><path class="cls-4" d="M125.84,40.18c-.06.24-.14.49-.22.73,0,0-.15.5-.23.75l2.13-.87c.08-.27.23-.81.23-.81.08-.28.16-.55.23-.82Z"/><path class="cls-4" d="M125.39,41.66c0,.13-.08.25-.11.38l2.12-.83.12-.42Z"/><path class="cls-4" d="M125.28,42c0,.12-.09.25-.13.37l-.12.39s-.09.25-.13.38l2.12-.73c0-.14.13-.41.13-.41s.13-.42.13-.42l.12-.41Z"/><path class="cls-4" d="M124.9,43.18c0,.12-.09.25-.13.38l-.13.38,2.11-.65.14-.42c0-.14.09-.27.13-.42Z"/><path class="cls-4" d="M124.64,43.94l-.14.39s-.09.26-.13.39l2.11-.58.14-.42c0-.15.09-.29.13-.43Z"/><path class="cls-4" d="M124.37,44.72c0,.13-.09.26-.14.39s-.1.26-.14.39L126.2,45c0-.13.14-.42.14-.42l.14-.42Z"/><path class="cls-4" d="M124.09,45.5c0,.13-.09.26-.14.4l2.11-.49c0-.14.09-.28.14-.43Z"/><path class="cls-4" d="M124,45.9c0,.13-.1.25-.15.39l2.11-.45a4.43,4.43,0,0,1,.15-.43Z"/><path class="cls-4" d="M123.8,46.29l-.14.39,2.09-.41c.06-.14.1-.28.16-.43Z"/><path class="cls-4" d="M123.66,46.68c-.06.14-.1.27-.16.4l2.1-.38.15-.43Z"/><path class="cls-4" d="M123.5,47.08c0,.13-.09.27-.15.4l2.1-.35.15-.43Z"/><path class="cls-4" d="M123.35,47.48l-.15.4,2.09-.31c0-.15.11-.29.16-.44Z"/><path class="cls-4" d="M123.2,47.88c-.06.14-.11.27-.16.4l2.09-.28c.05-.14.11-.28.16-.43Z"/><path class="cls-4" d="M123,48.28c-.05.14-.11.27-.16.41l2.09-.25c.06-.15.11-.29.16-.44Z"/><path class="cls-4" d="M122.88,48.69c0,.13-.1.26-.16.4l2.09-.21c0-.15.11-.29.16-.44Z"/><path class="cls-4" d="M122.72,49.09c-.06.13-.11.27-.16.41l2.08-.19c0-.14.11-.29.17-.43Z"/><path class="cls-4" d="M122.56,49.5c-.06.13-.11.27-.17.4l2.08-.15c.06-.14.11-.29.17-.44Z"/><path class="cls-4" d="M122.39,49.9c-.06.14-.11.28-.17.41l2.08-.12c0-.14.11-.29.17-.44Z"/><path class="cls-4" d="M122.22,50.31c0,.14-.11.27-.16.41l2.07-.08c.05-.16.11-.3.17-.45Z"/><path class="cls-4" d="M122.06,50.72l-.18.41,2.07-.05.18-.44Z"/><path class="cls-4" d="M121.88,51.13l-.17.41,2.06,0,.18-.44Z"/><path class="cls-4" d="M121.71,51.54l-.18.42h2.06l.18-.44Z"/><path class="cls-4" d="M121.53,52l-.18.41,2.06,0,.18-.45Z"/><path class="cls-4" d="M121.35,52.37l-.18.42,2,.07c.06-.15.12-.3.19-.45Z"/><path class="cls-4" d="M121.17,52.79l-.18.41,2,.1c.07-.15.13-.29.19-.44Z"/><path class="cls-4" d="M121,53.2c-.06.14-.13.28-.18.42l2,.13.18-.45Z"/><path class="cls-4" d="M120.81,53.62c-.07.14-.13.28-.2.41l2,.17c.06-.15.12-.3.19-.45Z"/><path class="cls-4" d="M120.61,54c0,.15-.12.29-.18.43l2,.19c.06-.15.13-.3.2-.45Z"/><path class="cls-4" d="M120.43,54.46c-.07.14-.13.28-.19.42l2,.22.2-.45Z"/><path class="cls-4" d="M120.24,54.88l-.2.42,2,.25.19-.45Z"/><path class="cls-4" d="M120,55.3l-.19.42,2,.28.21-.45Z"/><path class="cls-4" d="M119.85,55.72l-.2.42,2,.31c.07-.15.14-.3.2-.45Z"/><path class="cls-4" d="M119.65,56.14c-.07.14-.14.29-.2.43l2,.34c.07-.15.14-.3.2-.46Z"/><path class="cls-4" d="M119.45,56.57c-.07.14-.14.28-.2.42l2,.37.21-.45Z"/><path class="cls-4" d="M119.25,57l-.21.43,2,.39.21-.45Z"/><path class="cls-4" d="M119,57.42a4.11,4.11,0,0,1-.21.42l2,.43a3.82,3.82,0,0,0,.21-.46Z"/><path class="cls-4" d="M118.83,57.84c-.06.15-.13.29-.2.43l2,.46.21-.46Z"/><path class="cls-4" d="M118.63,58.27l-.21.43,2,.48.21-.45Z"/><path class="cls-4" d="M118.42,58.7l-.21.43,2,.51c.07-.16.14-.31.22-.46Z"/><path class="cls-4" d="M118.21,59.13c-.07.14-.14.28-.22.42l2,.55c.07-.16.14-.31.22-.46Z"/><path class="cls-4" d="M118,59.55l-.21.44,2,.56.22-.45Z"/><path class="cls-4" d="M117.78,60c-.07.14-.14.28-.22.42l2,.6.23-.46Z"/><path class="cls-4" d="M117.56,60.41l-.21.44,1.94.62c.08-.15.16-.3.23-.46Z"/><path class="cls-4" d="M117.35,60.85l-.23.43,1.95.65.22-.46Z"/><path class="cls-4" d="M117.12,61.28c-.08.14-.15.28-.22.43l1.94.68c.08-.16.16-.31.23-.46Z"/><path class="cls-4" d="M116.9,61.71l-.23.43,1.94.71.23-.46Z"/><path class="cls-4" d="M116.67,62.14c-.07.14-.15.29-.22.44l1.93.73c.07-.16.15-.31.23-.46Z"/><path class="cls-4" d="M116.45,62.58c-.08.14-.16.28-.23.43l1.92.76.24-.46Z"/><path class="cls-4" d="M116.22,63l-.23.43,1.91.79c.09-.16.16-.31.24-.46Z"/><path class="cls-4" d="M116,63.44l-.24.44,1.91.81c.09-.16.17-.31.24-.46Z"/><path class="cls-4" d="M115.75,63.88a4.63,4.63,0,0,1-.24.43l1.91.84.24-.46Z"/><path class="cls-4" d="M115.51,64.31l-.23.44,1.9.86.24-.46Z"/><path class="cls-4" d="M115.28,64.75l-.24.43,1.89.89c.08-.15.17-.3.25-.46Z"/><path class="cls-4" d="M115,65.18l-.24.43,1.88.92c.09-.15.17-.31.25-.46Z"/><path class="cls-4" d="M114.8,65.61l-.24.44,1.88.94.24-.46Z"/><path class="cls-4" d="M114.56,66.05l-.25.44,1.88,1c.08-.15.17-.3.25-.46Z"/><path class="cls-4" d="M114.31,66.49c-.07.14-.16.29-.24.43l1.86,1,.26-.47Z"/><path class="cls-4" d="M114.07,66.92l-.25.44,1.86,1,.25-.46Z"/><path class="cls-4" d="M113.82,67.36l-.25.44,1.85,1,.26-.46Z"/><path class="cls-4" d="M113.57,67.8c-.08.14-.16.29-.25.43l1.84,1.07.26-.46Z"/><path class="cls-4" d="M113.32,68.23c-.08.15-.16.3-.25.44l1.83,1.09c.09-.15.18-.3.26-.46Z"/><path class="cls-4" d="M112.82,69.11l-.26.43,1.82,1.15.26-.46Z"/><path class="cls-4" d="M112.56,69.54l-.26.44,1.81,1.17c.09-.16.17-.31.27-.46Z"/><path class="cls-4" d="M112.3,70c-.08.15-.17.29-.26.44l1.81,1.19c.08-.16.18-.31.26-.46Z"/><path class="cls-4" d="M112,70.42l-.26.43,1.8,1.22a4.25,4.25,0,0,1,.27-.46Z"/><path class="cls-4" d="M111.78,70.85c-.08.15-.18.29-.27.44l1.79,1.24.28-.46Z"/><path class="cls-4" d="M111.51,71.29c-.08.15-.17.29-.26.44L113,73l.27-.46Z"/><path class="cls-4" d="M111.25,71.73l-.26.43,1.76,1.29c.1-.15.19-.31.28-.46Z"/><path class="cls-4" d="M111,72.16l-.27.44,1.76,1.31.27-.46Z"/><path class="cls-4" d="M110.72,72.6c-.09.15-.19.29-.27.44l1.75,1.33c.09-.16.19-.31.28-.46Z"/><path class="cls-4" d="M110.45,73c-.1.14-.18.29-.27.43l1.74,1.36c.09-.16.19-.31.28-.46Z"/><path class="cls-4" d="M110.18,73.47l-.28.44,1.74,1.37c.1-.15.19-.3.28-.45Z"/><path class="cls-4" d="M109.9,73.91l-.27.44,1.72,1.39c.1-.15.2-.3.29-.46Z"/><path class="cls-4" d="M109.63,74.35c-.09.14-.19.28-.28.43l1.72,1.42c.1-.15.19-.3.28-.46Z"/><path class="cls-4" d="M109.35,74.78c-.09.15-.18.29-.28.43l1.71,1.45.29-.46Z"/><path class="cls-4" d="M109.07,75.21l-.28.44,1.7,1.47.29-.46Z"/><path class="cls-4" d="M108.79,75.65l-.28.43-.28.44L109.91,78l.29-.46c.1-.15.2-.3.29-.45Z"/><path class="cls-4" d="M108.23,76.52c-.1.14-.19.29-.28.43l1.67,1.54.29-.46Z"/><path class="cls-4" d="M108,77l-.29.43,1.66,1.56.3-.45Z"/><path class="cls-4" d="M107.66,77.38l-.29.43s-.19.3-.29.44l1.65,1.6.3-.46.29-.45Z"/><path class="cls-4" d="M107.08,78.25l-.29.43,1.64,1.62.3-.45Z"/><path class="cls-4" d="M106.79,78.68l-.29.43-.29.43,1.61,1.66.31-.45.3-.45Z"/><path class="cls-4" d="M106.21,79.54l-.3.43,1.61,1.68c.1-.15.21-.3.3-.45Z"/><path class="cls-4" d="M105.91,80c-.09.14-.2.29-.3.43l1.6,1.71.31-.46Z"/><path class="cls-4" d="M105.61,80.4c-.1.14-.19.29-.3.43l-.29.43L106.59,83l.32-.45c.09-.15.2-.3.3-.44Z"/><path class="cls-4" d="M105,81.26l-.3.43,1.56,1.76.31-.45Z"/><path class="cls-4" d="M104.72,81.69c-.1.14-.21.28-.3.42s-.21.28-.31.43l1.55,1.8.31-.45.31-.44Z"/><path class="cls-4" d="M104.11,82.54l-.31.42-.3.42L105,85.23l.32-.44.32-.45Z"/><path class="cls-4" d="M103.5,83.38l-.31.43,1.51,1.86c.11-.14.22-.3.32-.44Z"/><path class="cls-4" d="M103.19,83.81l-.31.42-.31.42,1.49,1.91.32-.45c.11-.14.22-.29.32-.44Z"/><path class="cls-4" d="M102.57,84.65l-.31.42-.31.42,1.46,1.94.33-.43.32-.44Z"/><path class="cls-4" d="M102,85.49l-.32.42-.32.42,1.45,2,.33-.44c.11-.15.22-.29.32-.44Z"/><path class="cls-4" d="M101.31,86.33l-.32.42,1.44,2,.33-.43Z"/><path class="cls-4" d="M101,86.75l-.31.41,1.42,2,.33-.44Z"/><path class="cls-4" d="M100.68,87.16l-.33.42L100,88l1.4,2.05c.12-.14.34-.43.34-.43l.33-.43Z"/><path class="cls-4" d="M100,88c-.1.14-.21.27-.32.41l-.32.41,1.38,2.09.33-.43c.11-.14.23-.28.33-.43Z"/><path class="cls-4" d="M99.39,88.81l-.33.41,1.37,2.11.34-.43Z"/><path class="cls-4" d="M99.06,89.22c-.1.14-.21.28-.32.41l1.35,2.12.34-.42Z"/><path class="cls-4" d="M98.74,89.63l-.33.41-.33.4,1.33,2.16.34-.42c.12-.14.23-.28.34-.43Z"/><path class="cls-4" d="M98.08,90.44l-.33.41-.33.4,1.31,2.2.34-.42c.11-.14.23-.28.34-.43Z"/><path class="cls-4" d="M97.42,91.25l-.34.41-.33.39L98,94.28c.12-.13.35-.41.35-.41l.35-.42Z"/><path class="cls-4" d="M96.75,92.05l-.33.4-.34.4-.34.4L97,95.53l.34-.42c.13-.13.35-.41.35-.41s.24-.27.35-.42Z"/><path class="cls-4" d="M95.74,93.25l-.33.4-.35.39,1.23,2.31c.11-.14.35-.41.35-.41s.23-.27.35-.41Z"/><path class="cls-4" d="M95.06,94l-.34.39-.34.39,1.2,2.35c.11-.14.35-.41.35-.41l.36-.41Z"/><path class="cls-4" d="M94.38,94.82l-.35.39-.34.39-.34.38,1.15,2.39.36-.4.36-.4.36-.4Z"/><path class="cls-4" d="M93.35,96l-.35.39-.34.38,1.12,2.42.36-.4.36-.4Z"/><path class="cls-4" d="M92.66,96.75c-.12.12-.24.25-.35.38s-.24.25-.35.38l-.36.37,1.09,2.47.37-.39.36-.39.36-.4Z"/><path class="cls-4" d="M91.6,97.88c-.12.13-.23.26-.35.38l-.35.37-.35.37,1,2.52.37-.39.37-.39.36-.39Z"/><path class="cls-4" d="M90.55,99l-.36.37-.36.37,1,2.54c.13-.12.37-.38.37-.38s.25-.25.37-.38Z"/><path class="cls-4" d="M89.83,99.74l-.35.37-.36.36,1,2.57.37-.37.37-.39Z"/><path class="cls-4" d="M89.12,100.47l-.36.36,1,2.59.37-.38Z"/><path class="cls-4" d="M88.76,100.83l-.35.36-.37.36.95,2.61.37-.37.38-.37Z"/><path class="cls-4" d="M88,101.55l-.36.35-.36.36.91,2.64.38-.37.38-.37Z"/><path class="cls-4" d="M87.32,102.26l-.37.35-.36.35.89,2.67.38-.36.37-.37Z"/><path class="cls-4" d="M86.59,103c-.12.11-.25.23-.36.35L87.1,106l.38-.36Z"/><path class="cls-4" d="M86.23,103.31l-.38.34-.36.35.84,2.71.39-.36.38-.36Z"/><path class="cls-4" d="M85.49,104l-.37.33-.37.34.82,2.74.38-.35.38-.35Z"/><path class="cls-4" d="M84.75,104.67l-.37.34-.37.33.79,2.76.38-.34.39-.35Z"/><path class="cls-4" d="M84,105.34l-.37.33-.37.33.76,2.79.38-.34.39-.35Z"/><path class="cls-4" d="M83.27,106l-.37.32-.37.33.72,2.81.39-.33.39-.34Z"/><path class="cls-4" d="M82.53,106.65l-.38.32-.38.32.7,2.84.38-.33.4-.34Z"/><path class="cls-4" d="M81.77,107.29l-.37.32-.38.31.66,2.86.4-.32.39-.33Z"/><path class="cls-4" d="M81,107.92l-.38.31.65,2.88.39-.33Z"/><path class="cls-4" d="M80.64,108.23l-.37.31s-.26.2-.38.31l.61,2.9.39-.32.4-.32Z"/><path class="cls-4" d="M79.89,108.85l-.38.3-.38.3.58,2.92.39-.31.4-.31Z"/><path class="cls-4" d="M79.13,109.45l-.38.3.56,2.93.4-.31Z"/><path class="cls-4" d="M78.75,109.75l-.38.29.54,2.95.4-.31Z"/><path class="cls-4" d="M78.37,110l-.38.29.52,3,.4-.3Z"/><path class="cls-4" d="M78,110.33l-.39.29.51,3,.4-.3Z"/><path class="cls-4" d="M77.6,110.62l-.38.29.49,3,.4-.3Z"/><path class="cls-4" d="M77.22,110.91l-.39.28-.38.28.46,3,.4-.29.4-.3Z"/><path class="cls-4" d="M76.45,111.47l-.39.28.45,3,.4-.29Z"/><path class="cls-4" d="M76.06,111.75l-.38.28.42,3,.41-.28Z"/><path class="cls-4" d="M75.68,112l-.39.27.41,3,.4-.29Z"/><path class="cls-4" d="M75.29,112.3l-.39.27.4,3.05.4-.28Z"/><path class="cls-4" d="M74.9,112.57c-.13.09-.26.17-.38.27l-.39.25.36,3.08.4-.28.41-.27Z"/><path class="cls-4" d="M74.13,113.09l-.39.27.34,3.08.41-.27Z"/><path class="cls-4" d="M73.74,113.36l-.39.25.32,3.09.41-.26Z"/><path class="cls-4" d="M73.35,113.61l-.39.26.31,3.1.4-.27Z"/><path class="cls-4" d="M73,113.87l-.39.25.29,3.11.41-.26Z"/><path class="cls-4" d="M72.57,114.12l-.39.24.27,3.13.41-.26Z"/><path class="cls-4" d="M72.18,114.36l-.39.25.25,3.13.41-.25Z"/><path class="cls-4" d="M71.79,114.61l-.4.24.24,3.14.41-.25Z"/><path class="cls-4" d="M71.39,114.85l-.39.24.22,3.15.41-.25Z"/><path class="cls-4" d="M71,115.09l-.39.23-.4.23.19,3.17.41-.24.41-.24Z"/><path class="cls-4" d="M70.21,115.55l-.39.23L70,119l.41-.24Z"/><path class="cls-4" d="M69.82,115.78l-.39.22.14,3.19L70,119Z"/><path class="cls-4" d="M69.43,116l-.4.23.13,3.2.41-.24Z"/><path class="cls-4" d="M69,116.23l-.39.21.11,3.21.41-.22Z"/><path class="cls-4" d="M68.64,116.44l-.4.22.09,3.22.42-.23Z"/><path class="cls-4" d="M68.24,116.66l-.4.21.07,3.23.42-.22Z"/><path class="cls-4" d="M67.84,116.87l-.39.21,0,3.23.41-.21Z"/><path class="cls-4" d="M67.45,117.08l-.4.2,0,3.25.42-.22Z"/><path class="cls-4" d="M67.05,117.28l-.39.2v3.25l.41-.2Z"/><path class="cls-4" d="M66.66,117.48c-.14.06-.27.13-.4.2v3.26l.42-.21Z"/><path class="cls-4" d="M66.26,117.68l-.4.19,0,3.27.41-.2Z"/><path class="cls-4" d="M65.86,117.87l-.4.19,0,3.28.42-.2Z"/><path class="cls-5" d="M10.12,25.23H128c1.8,20.87-28.58,76.84-62.58,92.83C32,100.29,10.12,47.21,10.12,25.23Z"/><polygon class="cls-6" points="22.05 36.77 13.83 75.44 11.09 77.9 20.32 34.49 22.05 36.77"/><polygon class="cls-7" points="34.94 36.77 22.05 36.77 20.32 34.49 38.23 34.49 34.94 36.77"/><polygon class="cls-8" points="13.83 75.44 26.72 75.44 28.99 77.9 11.09 77.9 13.83 75.44"/><polygon class="cls-9" points="32 50.58 34.94 36.77 38.23 34.49 35.3 48.22 32 50.58"/><polygon class="cls-10" points="26.72 75.44 30.16 59.25 32.42 61.81 28.99 77.9 26.72 75.44"/><polygon class="cls-11" points="67.39 36.77 54.5 36.77 52.57 34.49 70.47 34.49 67.39 36.77"/><polygon class="cls-11" points="51.56 50.58 32 50.58 35.3 48.22 49.65 48.22 51.56 50.58"/><polygon class="cls-12" points="54.5 36.77 51.56 50.58 49.65 48.22 52.57 34.49 54.5 36.77"/><polygon class="cls-13" points="30.16 59.25 49.72 59.25 46.76 61.81 32.42 61.81 30.16 59.25"/><polygon class="cls-14" points="49.72 59.25 46.27 75.44 43.33 77.9 46.76 61.81 49.72 59.25"/><polygon class="cls-8" points="46.27 75.44 59.16 75.44 61.23 77.9 43.33 77.9 46.27 75.44"/><polygon class="cls-15" points="59.16 75.44 67.39 36.77 70.47 34.49 61.23 77.9 59.16 75.44"/><polygon class="cls-16" points="46.27 75.44 59.16 75.44 67.39 36.77 54.5 36.77 51.56 50.58 32 50.58 34.94 36.77 22.05 36.77 13.83 75.44 26.72 75.44 30.16 59.25 49.72 59.25 46.27 75.44"/><polygon class="cls-2" points="128.16 36.89 107.55 36.89 106.23 34.61 135.15 34.61 128.16 36.89"/><polygon class="cls-17" points="103.92 55.48 128.16 36.89 135.15 34.61 107.03 56.17 103.92 55.48"/><polygon class="cls-18" points="107.55 36.89 98.23 47.29 98.73 42.97 106.23 34.61 107.55 36.89"/><polygon class="cls-19" points="116.44 75.58 103.92 55.48 107.03 56.17 120.66 78.04 116.44 75.58"/><polygon class="cls-20" points="98.23 47.29 93.34 36.89 94.81 34.61 98.73 42.97 98.23 47.29"/><polygon class="cls-21" points="93.34 36.89 78.01 36.89 73.6 34.61 94.81 34.61 93.34 36.89"/><polygon class="cls-8" points="100.45 75.58 116.44 75.58 120.66 78.04 98.73 78.04 100.45 75.58"/><polygon class="cls-3" points="78.01 36.89 89.07 55.48 85.85 55.18 73.6 34.61 78.01 36.89"/><polygon class="cls-22" points="94.71 63.87 100.45 75.58 98.73 78.04 93.69 67.77 94.71 63.87"/><polygon class="cls-14" points="89.07 55.48 43.62 104.03 38.89 107.08 85.85 55.18 89.07 55.48"/><polygon class="cls-23" points="38.89 107.08 94.71 64.19 93.64 68.23 41.43 107.07 38.89 107.08"/><polygon class="cls-24" points="44.86 102.51 47.25 100.67 94.71 64.19 100.45 75.58 116.44 75.58 103.92 55.48 128.16 36.89 107.55 36.89 98.23 47.29 93.34 36.89 78.01 36.89 89.07 55.48 44.86 102.51"/><polygon class="cls-24" points="46.38 75.44 59.3 75.44 67.55 36.68 54.62 36.68 51.68 50.52 32.08 50.52 35.02 36.68 22.1 36.68 13.85 75.44 26.77 75.44 30.23 59.21 49.83 59.21 46.38 75.44"/><path class="cls-5" d="M90.5,114H87.75v-.93h6.61V114H91.61v7.35H90.5Z"/><path class="cls-5" d="M95.3,113.08h1.51l2.61,7,2.62-7h1.5v8.28h-1v-6.89h0l-2.59,6.89H99l-2.58-6.89h0v6.89h-1Z"/></g></g></svg>