<svg xmlns="http://www.w3.org/2000/svg" viewBox="0 0 127.67 121.8"><defs><style>.cls-1{fill:#231f20;}.cls-2{fill:#607cbb;}.cls-3{fill:#406ab1;}.cls-4{fill:#a2aed8;}.cls-5{fill:#0054a4;}.cls-6{fill:#9facd6;}.cls-7{fill:#647ebd;}.cls-8{fill:#2560ab;}.cls-9{fill:#bec6e4;}.cls-10{fill:#c1c8e5;}.cls-11{fill:#627dbc;}.cls-12{fill:#b9c2e2;}.cls-13{fill:#3867af;}.cls-14{fill:#b7c0e1;}.cls-15{fill:#cbd1e9;}.cls-16{fill:#fff;}.cls-17{fill:#8e9ecf;}.cls-18{fill:#bcc4e3;}.cls-19{fill:#6f86c1;}.cls-20{fill:#778cc4;}.cls-21{fill:#6d84c0;}.cls-22{fill:#5c79ba;}.cls-23{fill:#899acd;}</style></defs><title>Asset 1</title><g id="Layer_2" data-name="Layer 2"><g id="Layer_1-2" data-name="Layer 1"><polygon class="cls-1" points="8.21 17.61 9.09 17.61 9.98 13.41 9.1 13.41 8.21 17.61"/><path class="cls-1" d="M10.59,17.61h.81l.35-1.67a1.15,1.15,0,0,1,1.16-.9c.68,0,.71.38.63.72l-.39,1.85H14l.45-2.11c.18-.84-.42-1.08-1.09-1.08A1.87,1.87,0,0,0,12,15h0l.1-.47h-.81Z"/><path class="cls-1" d="M15.41,16.64c-.18.95.85,1.09,1.51,1.09,1,0,1.78-.27,1.95-1.06s-.5-.83-1.49-1c-.76-.12-.82-.16-.77-.41s.32-.36.78-.36c.28,0,.81.05.77.52H19c.17-1-1-1.07-1.46-1.07s-1.58.12-1.77,1c-.15.72.33.83,1.27,1s1,.2.91.44-.52.4-.93.4-.82-.07-.74-.54Z"/><path class="cls-1" d="M23.88,16.26l0-.12c.2-.91-.15-1.76-1.53-1.76a2.18,2.18,0,0,0-2.24,1.7c-.18.83.17,1.65,1.58,1.65a2.36,2.36,0,0,0,2-1h-.89a1.16,1.16,0,0,1-1,.44c-.81,0-.93-.53-.87-.88Zm-2.83-.52a1.31,1.31,0,0,1,1.21-.81c.4,0,.92.19.88.81Z"/><path class="cls-1" d="M28.82,15.59c.06-1.05-1-1.21-1.45-1.21a2.17,2.17,0,0,0-2.28,1.67c-.19.86.17,1.68,1.57,1.68a2.07,2.07,0,0,0,2-1.31h-.85a1.13,1.13,0,0,1-1.12.69c-.7,0-.88-.51-.77-1.06A1.3,1.3,0,0,1,27.24,15c.46,0,.75.27.74.59Z"/><path class="cls-1" d="M30.09,16.74c-.12.59-.12.94.87.94a4.26,4.26,0,0,0,.63,0l.13-.59h-.59c-.27,0-.25-.19-.17-.55l.3-1.43h.84l.13-.58h-.85l.21-1h-.81l-.21,1h-.65l-.12.58h.65Z"/><path class="cls-1" d="M37.33,14.07h1.48c.34,0,.68.13.57.65s-.41.64-.91.64H37.05Zm-1.64,3.54h.88l.34-1.6h1.72a1.61,1.61,0,0,0,1.63-1.29c.14-.68-.06-1.3-1.09-1.3H36.58Z"/><path class="cls-1" d="M40.9,17.61h.82l.32-1.5a1.17,1.17,0,0,1,1.19-.94,1.42,1.42,0,0,1,.5.07l.17-.8-.32,0a1.67,1.67,0,0,0-1.32.68h0l.13-.6h-.81Z"/><path class="cls-1" d="M45.41,16.05A1.26,1.26,0,0,1,46.71,15a.78.78,0,0,1,.86,1.05,1.26,1.26,0,0,1-1.3,1.06A.79.79,0,0,1,45.41,16.05Zm-.85,0c-.18.86.18,1.68,1.57,1.68a2.14,2.14,0,0,0,2.29-1.68c.18-.85-.18-1.67-1.57-1.67A2.14,2.14,0,0,0,44.56,16.05Z"/><path class="cls-1" d="M49.79,16.74c-.13.59-.13.94.86.94a4.4,4.4,0,0,0,.64,0l.12-.59h-.58c-.28,0-.26-.19-.18-.55l.3-1.43h.85l.12-.58h-.84l.2-1h-.81l-.2,1h-.65l-.13.58h.65Z"/><path class="cls-1" d="M56.45,16.26l0-.12c.19-.91-.15-1.76-1.54-1.76a2.2,2.2,0,0,0-2.24,1.7c-.17.83.18,1.65,1.58,1.65a2.36,2.36,0,0,0,2-1h-.88a1.18,1.18,0,0,1-1,.44c-.81,0-.93-.53-.88-.88Zm-2.83-.52a1.31,1.31,0,0,1,1.22-.81c.4,0,.91.19.88.81Z"/><path class="cls-1" d="M61.4,15.59c.05-1.05-1-1.21-1.45-1.21a2.17,2.17,0,0,0-2.29,1.67c-.18.86.18,1.68,1.57,1.68a2.06,2.06,0,0,0,2-1.31h-.85a1.11,1.11,0,0,1-1.11.69c-.7,0-.89-.51-.77-1.06A1.28,1.28,0,0,1,59.81,15c.47,0,.75.27.74.59Z"/><path class="cls-1" d="M62.67,16.74c-.13.59-.12.94.86.94a4.4,4.4,0,0,0,.64,0l.12-.59h-.58c-.28,0-.26-.19-.18-.55l.3-1.43h.85l.13-.58H64l.2-1h-.81l-.2,1H62.5l-.13.58H63Z"/><path class="cls-1" d="M65.38,17.61h.82l.66-3.11h-.81ZM66.15,14H67l.14-.66h-.81Z"/><path class="cls-1" d="M68.66,16.05A1.25,1.25,0,0,1,70,15a.78.78,0,0,1,.86,1.05,1.26,1.26,0,0,1-1.3,1.06A.79.79,0,0,1,68.66,16.05Zm-.85,0c-.18.86.18,1.68,1.57,1.68a2.14,2.14,0,0,0,2.29-1.68c.18-.85-.18-1.67-1.57-1.67A2.14,2.14,0,0,0,67.81,16.05Z"/><path class="cls-1" d="M72.6,17.61h.81l.36-1.67a1.14,1.14,0,0,1,1.16-.9c.67,0,.7.38.63.72l-.4,1.85H76l.45-2.11c.18-.84-.42-1.08-1.09-1.08A1.87,1.87,0,0,0,74,15h0l.1-.47h-.81Z"/><path class="cls-2" d="M2.33,25.44h.25l-2.27-3H0Z"/><path class="cls-2" d="M2.34,25.44H8.65l-1.57-3h-7Z"/><path class="cls-2" d="M8.46,25.44h.32l-1.55-3H6.89Z"/><path class="cls-2" d="M8.78,25.44H25.94l-.78-3H7.23Z"/><path class="cls-2" d="M25.94,25.44H49.06l-.24-3H25.16Z"/><path class="cls-2" d="M49.06,25.44H68.55l.1-3H48.82Z"/><path class="cls-2" d="M68.55,25.44H86.22l.43-3h-18Z"/><path class="cls-2" d="M86.22,25.44h15.56l.84-3h-16Z"/><path class="cls-2" d="M101.78,25.44h14.68l1.56-3h-15.4Z"/><path class="cls-2" d="M116.46,25.44h4.08l2.06-3H118Z"/><path class="cls-3" d="M2.59,29.92c0,.2,0,.4.07.61L.33,28.3c0-.23,0-.46-.07-.69Z"/><path class="cls-3" d="M2.33,25.44c0,.17,0,.35,0,.52L0,23v-.62Z"/><path class="cls-3" d="M2.34,26c0,.18,0,.36,0,.54L0,23.65c0-.21,0-.42,0-.62Z"/><path class="cls-3" d="M2.35,26.5c0,.18,0,.36,0,.54L0,24.29c0-.22,0-.43,0-.64Z"/><path class="cls-3" d="M2.37,27l0,.56L.07,24.93l0-.64Z"/><path class="cls-3" d="M2.4,27.6l0,.56L.1,25.59l0-.66Z"/><path class="cls-3" d="M2.43,28.16c0,.19,0,.38,0,.58L.15,26.25c0-.22,0-.44,0-.66Z"/><path class="cls-3" d="M2.48,28.74c0,.19,0,.39,0,.59L.2,26.93c0-.23,0-.45-.05-.68Z"/><path class="cls-3" d="M2.53,29.33l.06.59L.26,27.61.2,26.93Z"/><path class="cls-3" d="M2.66,30.53c0,.2,0,.41.07.61L.41,29c0-.23,0-.47-.08-.7Z"/><path class="cls-3" d="M2.73,31.14c0,.21,0,.42.08.63L.49,29.71c0-.24,0-.47-.08-.71Z"/><path class="cls-3" d="M2.81,31.77l.09.64-2.31-2c0-.24-.07-.48-.1-.72Z"/><path class="cls-3" d="M2.9,32.41c0,.21.07.42.1.64L.69,31.16c0-.25-.07-.49-.1-.73Z"/><path class="cls-3" d="M3,33.05c0,.22.07.43.11.65L.8,31.89c0-.25-.08-.49-.11-.73Z"/><path class="cls-3" d="M3.11,33.7c0,.22.07.44.11.67L.91,32.63c0-.25-.08-.49-.11-.74Z"/><path class="cls-3" d="M3.22,34.37l.12.67L1,33.38c-.05-.25-.09-.5-.13-.75Z"/><path class="cls-3" d="M3.34,35c0,.22.09.45.13.67l-2.3-1.57c0-.25-.09-.51-.13-.76Z"/><path class="cls-3" d="M3.47,35.71c0,.23.09.46.14.69l-2.3-1.49c-.05-.26-.09-.52-.14-.77Z"/><path class="cls-3" d="M3.61,36.4c0,.23.09.46.14.7L1.46,35.68l-.15-.77Z"/><path class="cls-3" d="M3.75,37.1l.15.7L1.61,36.46l-.15-.78Z"/><path class="cls-3" d="M3.9,37.8c.05.24.11.47.16.71L1.78,37.24c-.06-.26-.11-.52-.17-.78Z"/><path class="cls-3" d="M4.06,38.51c.05.24.11.48.17.72L2,38c-.06-.27-.12-.53-.17-.8Z"/><path class="cls-3" d="M4.23,39.23c0,.24.11.48.17.72L2.13,38.83C2.06,38.57,2,38.3,2,38Z"/><path class="cls-3" d="M4.4,40l.18.74-2.27-1-.18-.81Z"/><path class="cls-3" d="M4.58,40.69c.06.24.12.49.19.73l-2.26-1c-.07-.27-.14-.54-.2-.81Z"/><path class="cls-3" d="M4.77,41.42c.06.25.13.5.19.75l-2.25-.9c-.07-.28-.14-.55-.2-.82Z"/><path class="cls-3" d="M5,42.17c.07.25.14.5.2.75l-2.24-.83c-.08-.28-.15-.55-.21-.82Z"/><path class="cls-3" d="M5.16,42.92l.21.76-2.24-.76-.21-.83Z"/><path class="cls-3" d="M5.37,43.68c0,.13.08.26.11.38l-2.24-.73c0-.13-.07-.27-.11-.41Z"/><path class="cls-3" d="M5.48,44.06c0,.13.08.26.11.39s.08.25.11.38l-2.23-.66c0-.14-.11-.42-.11-.42l-.12-.42Z"/><path class="cls-3" d="M5.7,44.83l.12.39.11.38.12.39-2.22-.56L3.71,45l-.12-.42-.12-.42Z"/><path class="cls-3" d="M6.05,46l.12.39.12.39.12.4L4.2,46.71c0-.14-.13-.43-.13-.43L4,45.86l-.12-.43Z"/><path class="cls-3" d="M6.41,47.17l.12.39s.08.26.13.4l.12.39.13.4-2.19-.33c0-.14-.13-.43-.13-.43s-.14-.43-.14-.43l-.13-.43-.12-.42Z"/><path class="cls-3" d="M6.91,48.75c0,.13.09.27.13.4s.09.27.14.4l.13.4s.09.27.14.4.09.27.13.41.1.27.14.4.1.27.14.41L8,52s.09.28.14.41l.15.41.15.41s.09.27.15.41l.15.41.15.42.15.41.16.41.16.42.16.42s.11.27.16.41l-2.1.26-.17-.45-.16-.45c-.06-.14-.17-.44-.17-.44S6.93,55,6.93,55l-.16-.45-.16-.44-.15-.44c-.06-.15-.16-.44-.16-.44l-.15-.44L6,52.34l-.15-.44-.15-.44L5.56,51l-.15-.44-.14-.44c0-.14-.14-.43-.14-.43L5,49.29l-.14-.44c0-.14-.09-.28-.13-.43Z"/><path class="cls-3" d="M9.69,56.51c.06.14.11.28.16.42l.17.42.17.42.16.42.17.42.18.42.17.42.17.42.18.42-2.05.51L9,60.35l-.18-.45-.18-.45L8.45,59l-.18-.45c0-.14-.17-.44-.17-.44l-.17-.45-.17-.45c-.06-.15-.12-.29-.17-.44Z"/><path class="cls-3" d="M11.22,60.29l.18.43.18.42.18.43.18.42.19.43.18.42.19.43-2,.69-.2-.45-.19-.45-.19-.45c-.07-.15-.19-.45-.19-.45-.06-.16-.19-.46-.19-.46l-.19-.45-.18-.45Z"/><path class="cls-3" d="M12.5,63.27c.06.14.13.28.19.43l.19.42s.13.29.2.43.13.28.19.43l.2.42.19.43s.14.29.2.43.14.29.2.43l-1.94.9-.21-.45-.21-.46-.2-.45-.21-.45c-.06-.16-.2-.46-.2-.46l-.2-.45c-.06-.15-.2-.45-.2-.45-.06-.15-.13-.3-.19-.46Z"/><path class="cls-3" d="M14.06,66.69l.21.43.2.43.21.42s.14.29.2.43l.21.43.21.43.22.43.21.43.21.43.22.43.22.43.22.43s.15.28.22.43.15.28.22.43l.23.42.22.43.23.43.23.43.23.43s.16.28.23.43l.24.42.23.43.24.43.24.42.24.43.24.42.24.43s.16.28.25.42l.24.43.25.42.25.43s.16.28.25.42.16.28.25.42L19.9,82.44,19.64,82l-.26-.45c-.09-.14-.26-.44-.26-.44-.08-.15-.26-.44-.26-.44l-.25-.45-.25-.44-.26-.45-.25-.45-.25-.45L17.36,78c-.09-.15-.25-.45-.25-.45l-.24-.45-.25-.45-.24-.45-.24-.45c-.07-.15-.23-.45-.23-.45l-.24-.45-.23-.46-.24-.45c-.07-.15-.23-.45-.23-.45-.07-.15-.23-.45-.23-.45l-.22-.45c-.08-.15-.23-.46-.23-.46l-.23-.45-.22-.45-.22-.45c-.07-.16-.22-.46-.22-.46l-.22-.45L13,69.4,12.75,69l-.21-.45L12.33,68c-.07-.15-.15-.3-.21-.45Z"/><path class="cls-3" d="M21.57,80.79l.25.42.26.42.25.42.26.42.26.42.26.42L21.5,85.08l-.27-.44L21,84.2l-.27-.44-.26-.44-.27-.44-.26-.44Z"/><path class="cls-3" d="M23.11,83.31l.26.42s.18.27.26.41l.27.42.27.41.26.42-1.55,1.87-.28-.44-.28-.43L22.05,86l-.28-.43-.27-.44Z"/><path class="cls-3" d="M24.43,85.39l.27.41.27.41.27.41.28.42.27.41-1.5,2L24,89l-.29-.43-.28-.43c-.1-.14-.28-.43-.28-.43l-.28-.43Z"/><path class="cls-3" d="M25.79,87.45l.28.4.28.41.27.41.29.4-1.46,2-.29-.42-.29-.43-.29-.43-.29-.42Z"/><path class="cls-3" d="M26.91,89.07l.28.41.28.4.29.4-1.43,2.09L26,92l-.3-.42-.29-.42Z"/><path class="cls-3" d="M27.76,90.28c.09.14.19.27.28.4l.29.4.29.4-1.39,2.14-.3-.41-.3-.42-.3-.42Z"/><path class="cls-3" d="M28.62,91.48c.09.14.19.27.29.4l.58.79-1.35,2.2L27.53,94l-.3-.42Z"/><path class="cls-3" d="M29.49,92.67l.59.79.6.78-1.3,2.26-.62-.81-.62-.82Z"/><path class="cls-3" d="M30.68,94.24l.6.78L30,97.31l-.62-.81Z"/><path class="cls-3" d="M31.28,95l.6.76.61.77-1.22,2.36-.64-.8-.63-.8Z"/><path class="cls-3" d="M32.49,96.55l.62.76-1.2,2.39c-.21-.27-.43-.53-.64-.79Z"/><path class="cls-3" d="M33.11,97.31l.62.75-1.17,2.42-.65-.78Z"/><path class="cls-3" d="M33.73,98.06l.63.74.63.74L33.88,102l-.66-.77-.66-.77Z"/><path class="cls-3" d="M35,99.54c.21.25.43.49.64.73l-1.09,2.51-.66-.76Z"/><path class="cls-3" d="M35.63,100.27c.21.24.43.48.64.73l-1.06,2.54-.67-.76Z"/><path class="cls-3" d="M36.27,101l.33.35-1.05,2.56c-.11-.12-.22-.25-.34-.37Z"/><path class="cls-3" d="M36.6,101.35l.32.36.33.36.32.35-1,2.6-.34-.37-.34-.37c-.11-.12-.23-.24-.34-.37Z"/><path class="cls-3" d="M37.57,102.42l.33.35.33.35.33.35-1,2.65-.34-.37-.35-.36c-.11-.12-.22-.25-.34-.37Z"/><path class="cls-3" d="M38.56,103.47l.33.35.34.34.33.34-.91,2.69-.35-.36-.35-.35-.35-.36Z"/><path class="cls-3" d="M39.56,104.5c.11.12.23.23.34.34l.34.34.33.34-.86,2.73-.36-.35-.35-.36c-.12-.11-.23-.23-.35-.35Z"/><path class="cls-3" d="M40.57,105.52l.34.33.34.33.35.33-.82,2.77-.36-.34-.36-.35-.35-.34Z"/><path class="cls-3" d="M41.6,106.51l.34.33.34.32.35.33.35.32-.76,2.82-.36-.34L41.5,110l-.36-.34-.36-.34Z"/><path class="cls-3" d="M43,107.81l.35.31.34.32.36.31.35.32-.69,2.87-.37-.32-.37-.33-.37-.33-.36-.33Z"/><path class="cls-3" d="M44.38,109.07l.35.3.35.31.36.3.36.31.35.29.36.3.36.29-.57,3-.38-.31-.38-.31-.37-.31-.37-.31-.37-.32-.38-.32-.36-.32Z"/><path class="cls-3" d="M46.87,111.17l.36.3.37.28L48,112l.37.28.36.29.37.27.37.28.36.27.38.27.37.27.37.26-.38,3.1-.39-.28-.39-.28-.39-.28-.39-.28-.38-.29-.39-.29-.38-.29-.38-.3-.38-.3-.38-.3-.38-.3Z"/><path class="cls-3" d="M50.91,114.23l.37.27.38.26L52,115l.38.25.38.26.38.24-.27,3.16-.4-.25-.4-.27-.39-.26-.4-.27-.39-.27-.39-.27Z"/><path class="cls-3" d="M53.17,115.76l.38.25.38.24.39.24-.22,3.19-.4-.25-.4-.25-.4-.26Z"/><path class="cls-3" d="M54.32,116.49l.38.23.38.23.39.23-.16,3.23-.4-.24-.41-.24-.4-.25Z"/><path class="cls-3" d="M55.47,117.18l.39.23.39.22-.12,3.25-.41-.23-.41-.24Z"/><path class="cls-3" d="M56.25,117.63a3.61,3.61,0,0,0,.39.22l.38.22L57,121.34l-.41-.23-.41-.23Z"/><path class="cls-3" d="M57,118.07l.4.21.39.21,0,3.3-.41-.23c-.14-.07-.28-.14-.41-.22Z"/><path class="cls-4" d="M105.54,69c-.09.14-.18.29-.26.44l1.83,1.12c.09-.16.18-.31.26-.47Z"/><path class="cls-4" d="M120.54,25.44l0,.5L122.64,23c0-.2,0-.39,0-.59Z"/><path class="cls-4" d="M120.57,25.94l0,.51,2.08-2.84c0-.21,0-.41,0-.61Z"/><path class="cls-4" d="M120.6,26.45c0,.17,0,.34,0,.52l2.08-2.75c0-.21,0-.41,0-.61Z"/><path class="cls-4" d="M120.61,27v.53l2.09-2.65c0-.22,0-.42,0-.63Z"/><path class="cls-4" d="M120.61,27.5c0,.18,0,.37,0,.55l2.1-2.57v-.63Z"/><path class="cls-4" d="M120.6,28.05c0,.18,0,.37,0,.56l2.1-2.48c0-.22,0-.43,0-.65Z"/><path class="cls-4" d="M120.58,28.61c0,.18,0,.38,0,.57l2.11-2.39c0-.22,0-.44,0-.66Z"/><path class="cls-4" d="M120.55,29.18c0,.19,0,.38,0,.58l2.12-2.3c0-.23,0-.45,0-.67Z"/><path class="cls-4" d="M120.5,29.76c0,.19,0,.39,0,.59l2.12-2.21c0-.23,0-.46.05-.68Z"/><path class="cls-4" d="M120.45,30.35c0,.2,0,.4-.07.6l2.13-2.13.06-.68Z"/><path class="cls-4" d="M120.38,31c0,.21,0,.41-.07.62l2.12-2.05c0-.23,0-.46.08-.7Z"/><path class="cls-4" d="M120.31,31.57l-.09.62,2.13-2c0-.24.06-.47.08-.71Z"/><path class="cls-4" d="M120.22,32.19c0,.21-.07.42-.1.64L122.25,31c0-.24.07-.48.1-.72Z"/><path class="cls-4" d="M120.12,32.83c0,.21-.07.42-.11.64l2.13-1.79c0-.25.08-.49.11-.73Z"/><path class="cls-4" d="M120,33.47l-.12.66L122,32.41c0-.24.08-.49.11-.73Z"/><path class="cls-4" d="M119.89,34.13c0,.22-.09.44-.13.66l2.14-1.63c0-.25.09-.5.13-.75Z"/><path class="cls-4" d="M119.76,34.79c-.05.22-.09.45-.14.67l2.14-1.55c0-.25.09-.5.14-.75Z"/><path class="cls-4" d="M119.62,35.46c-.05.23-.1.46-.16.69l2.15-1.48.15-.76Z"/><path class="cls-4" d="M119.46,36.15c0,.22-.1.46-.16.69l2.14-1.39c.06-.26.11-.52.17-.78Z"/><path class="cls-4" d="M119.3,36.84c0,.23-.11.46-.17.7l2.14-1.32c.06-.26.12-.52.17-.77Z"/><path class="cls-4" d="M119.13,37.54l-.18.71L121.09,37l.18-.79Z"/><path class="cls-4" d="M119,38.25c-.06.24-.13.47-.19.72l2.14-1.17c.06-.26.13-.53.19-.79Z"/><path class="cls-4" d="M118.76,39l-.21.72,2.14-1.09.21-.8Z"/><path class="cls-4" d="M118.55,39.69l-.21.74,2.14-1,.21-.81Z"/><path class="cls-4" d="M118.34,40.43c-.07.24-.15.49-.22.74,0,0-.16.49-.23.75l2.13-.87.23-.82c.08-.28.15-.55.23-.82Z"/><path class="cls-4" d="M117.89,41.92l-.12.37,2.13-.83.12-.41Z"/><path class="cls-4" d="M117.77,42.29c0,.13-.09.25-.13.38l-.12.38-.13.39,2.13-.73c0-.14.13-.42.13-.42l.12-.41c0-.14.09-.28.13-.42Z"/><path class="cls-4" d="M117.39,43.44c0,.12-.08.25-.13.38s-.08.26-.13.39l2.12-.66.14-.42c0-.14.09-.28.13-.42Z"/><path class="cls-4" d="M117.13,44.21c0,.12-.09.25-.13.38l-.14.39L119,44.4c0-.14.14-.43.14-.43s.09-.28.13-.42Z"/><path class="cls-4" d="M116.86,45c0,.13-.09.26-.14.39l-.14.39,2.11-.51.15-.43.14-.42Z"/><path class="cls-4" d="M116.58,45.76c0,.14-.09.27-.14.4l2.11-.48c0-.14.1-.29.14-.43Z"/><path class="cls-4" d="M116.44,46.16l-.15.39,2.11-.44.15-.43Z"/><path class="cls-4" d="M116.29,46.55l-.15.4,2.11-.41.15-.43Z"/><path class="cls-4" d="M116.14,47l-.15.4L118.1,47l.15-.43Z"/><path class="cls-4" d="M116,47.35l-.15.4,2.1-.35.16-.43Z"/><path class="cls-4" d="M115.84,47.75l-.15.4,2.1-.31.15-.44Z"/><path class="cls-4" d="M115.69,48.15c-.06.14-.11.27-.16.4l2.09-.28c.06-.14.11-.29.17-.43Z"/><path class="cls-4" d="M115.53,48.55c0,.14-.11.27-.16.41l2.09-.25c.05-.15.11-.29.16-.44Z"/><path class="cls-4" d="M115.37,49l-.16.4,2.09-.21c0-.15.11-.29.16-.44Z"/><path class="cls-4" d="M115.21,49.36l-.17.41,2.09-.18c.06-.15.11-.3.17-.44Z"/><path class="cls-4" d="M115,49.77c-.05.14-.11.27-.16.41L117,50c.06-.15.11-.3.17-.44Z"/><path class="cls-4" d="M114.88,50.18c-.06.13-.11.27-.17.41l2.08-.12c.06-.15.11-.3.17-.44Z"/><path class="cls-4" d="M114.71,50.59c-.06.13-.11.27-.17.41l2.07-.09.18-.44Z"/><path class="cls-4" d="M114.54,51c-.06.13-.11.27-.17.41l2.07-.06c.06-.14.12-.29.17-.44Z"/><path class="cls-4" d="M114.37,51.41l-.18.41,2.07,0,.18-.45Z"/><path class="cls-4" d="M114.19,51.82c-.06.14-.11.28-.18.42h2.07l.18-.44Z"/><path class="cls-4" d="M114,52.24l-.17.41,2.06,0,.18-.45Z"/><path class="cls-4" d="M113.84,52.65l-.18.42,2,.07c.06-.15.12-.3.19-.45Z"/><path class="cls-4" d="M113.66,53.07c-.07.14-.13.28-.19.41l2,.11c.07-.15.13-.3.19-.45Z"/><path class="cls-4" d="M113.47,53.48l-.18.42,2,.13c.07-.15.13-.3.19-.44Z"/><path class="cls-4" d="M113.29,53.9c-.07.14-.13.28-.19.42l2,.16c.07-.15.13-.3.19-.45Z"/><path class="cls-4" d="M113.1,54.32l-.19.42,2,.19.19-.45Z"/><path class="cls-4" d="M112.91,54.74c-.07.14-.13.28-.19.42l2,.23c.07-.15.13-.31.2-.46Z"/><path class="cls-4" d="M112.72,55.16c-.07.14-.13.29-.2.43l2,.25.2-.45Z"/><path class="cls-4" d="M112.52,55.59l-.19.42,2,.28c.07-.15.14-.3.2-.45Z"/><path class="cls-4" d="M112.33,56l-.2.42,2,.31c.07-.15.14-.3.2-.45Z"/><path class="cls-4" d="M112.13,56.43c-.07.14-.13.29-.2.43l2,.34.21-.46Z"/><path class="cls-4" d="M111.93,56.86c-.07.14-.14.28-.2.42l2,.37.2-.45Z"/><path class="cls-4" d="M111.73,57.28l-.21.43,2,.4.21-.46Z"/><path class="cls-4" d="M111.52,57.71c-.07.14-.13.28-.2.43l2,.42.21-.45Z"/><path class="cls-4" d="M111.32,58.14l-.21.42,2,.46c.07-.15.15-.3.22-.46Z"/><path class="cls-4" d="M111.11,58.56l-.21.43,2,.49.21-.46Z"/><path class="cls-4" d="M110.9,59c-.07.15-.14.29-.22.43l2,.52c.07-.16.14-.31.22-.46Z"/><path class="cls-4" d="M110.68,59.42l-.21.43,2,.54.22-.45Z"/><path class="cls-4" d="M110.47,59.85l-.21.43,2,.57.22-.46Z"/><path class="cls-4" d="M110.26,60.28l-.22.43,2,.6.23-.46Z"/><path class="cls-4" d="M110,60.71c-.08.15-.15.29-.22.44l2,.62.22-.46Z"/><path class="cls-4" d="M109.82,61.15l-.23.43,2,.65.23-.46Z"/><path class="cls-4" d="M109.59,61.58c-.07.14-.14.29-.22.43l1.95.68c.08-.15.15-.31.23-.46Z"/><path class="cls-4" d="M109.37,62l-.22.44,1.94.7c.07-.15.15-.3.23-.46Z"/><path class="cls-4" d="M109.15,62.45c-.08.14-.16.28-.23.43l1.93.73.24-.46Z"/><path class="cls-4" d="M108.92,62.88l-.23.43,1.93.76c.08-.15.16-.3.23-.46Z"/><path class="cls-4" d="M108.69,63.31l-.23.44,1.92.79.24-.47Z"/><path class="cls-4" d="M108.46,63.75l-.24.43,1.92.82.24-.46Z"/><path class="cls-4" d="M108.22,64.18l-.23.44,1.91.84.24-.46Z"/><path class="cls-4" d="M108,64.62l-.24.44,1.9.86c.09-.15.17-.31.25-.46Z"/><path class="cls-4" d="M107.75,65.06l-.24.43,1.9.89.24-.46Z"/><path class="cls-4" d="M107.51,65.49l-.24.44,1.89.92.25-.47Z"/><path class="cls-4" d="M107.27,65.93l-.24.44,1.88.94.25-.46Z"/><path class="cls-4" d="M107,66.37c-.08.14-.17.29-.24.43l1.87,1,.25-.46Z"/><path class="cls-4" d="M106.79,66.8l-.25.44,1.87,1c.08-.15.17-.3.25-.46Z"/><path class="cls-4" d="M106.54,67.24c-.09.14-.17.29-.25.44l1.86,1,.26-.47Z"/><path class="cls-4" d="M106.29,67.68l-.25.43,1.85,1,.26-.46Z"/><path class="cls-4" d="M106,68.11l-.25.44,1.84,1.07.26-.46Z"/><path class="cls-4" d="M105.79,68.55l-.25.44,1.83,1.09c.09-.15.18-.3.26-.46Z"/><path class="cls-4" d="M105.28,69.43c-.09.14-.17.29-.26.44L106.84,71l.27-.46Z"/><path class="cls-4" d="M105,69.87l-.26.43,1.82,1.17.26-.46Z"/><path class="cls-4" d="M104.76,70.3c-.08.15-.17.3-.26.44l1.81,1.19.27-.46Z"/><path class="cls-4" d="M104.5,70.74l-.26.44L106,72.4l.27-.47Z"/><path class="cls-4" d="M104.24,71.18c-.09.14-.17.29-.26.44l1.79,1.24.27-.46Z"/><path class="cls-4" d="M104,71.62l-.27.43,1.79,1.27.27-.46Z"/><path class="cls-4" d="M103.71,72.05c-.09.15-.17.3-.27.44l1.78,1.29c.09-.15.18-.31.28-.46Z"/><path class="cls-4" d="M103.44,72.49c-.08.15-.18.29-.26.44l1.76,1.31c.1-.15.19-.31.28-.46Z"/><path class="cls-4" d="M103.18,72.93c-.1.14-.18.29-.27.44l1.75,1.33c.1-.15.19-.31.28-.46Z"/><path class="cls-4" d="M102.91,73.37c-.1.14-.19.29-.28.43l1.75,1.36c.1-.15.19-.31.28-.46Z"/><path class="cls-4" d="M102.63,73.8l-.27.44,1.74,1.38.28-.46Z"/><path class="cls-4" d="M102.36,74.24l-.28.44,1.74,1.4.28-.46Z"/><path class="cls-4" d="M102.08,74.68l-.27.43,1.72,1.43.29-.46Z"/><path class="cls-4" d="M101.81,75.11l-.28.44L103.24,77l.29-.46Z"/><path class="cls-4" d="M101.53,75.55c-.1.14-.19.29-.28.44l1.7,1.47.29-.46Z"/><path class="cls-4" d="M101.25,76c-.1.14-.19.29-.28.43l-.29.44,1.69,1.51.29-.46c.1-.15.2-.3.29-.45Z"/><path class="cls-4" d="M100.68,76.86c-.09.14-.19.28-.28.43l1.68,1.54c.09-.16.19-.31.29-.46Z"/><path class="cls-4" d="M100.4,77.29l-.29.43,1.67,1.56.3-.45Z"/><path class="cls-4" d="M100.11,77.72l-.29.44-.29.43,1.65,1.6.3-.45.3-.46Z"/><path class="cls-4" d="M99.53,78.59l-.29.43,1.64,1.63.3-.46Z"/><path class="cls-4" d="M99.24,79l-.29.44s-.2.28-.29.43l1.62,1.66.3-.45.3-.45Z"/><path class="cls-4" d="M98.66,79.89l-.3.43L100,82l.31-.45Z"/><path class="cls-4" d="M98.36,80.32l-.3.43,1.6,1.71c.1-.16.21-.31.31-.46Z"/><path class="cls-4" d="M98.06,80.75l-.3.43-.3.43L99,83.35c.11-.14.31-.45.31-.45l.31-.44Z"/><path class="cls-4" d="M97.46,81.61l-.3.43,1.57,1.76.31-.45Z"/><path class="cls-4" d="M97.16,82l-.3.42s-.2.29-.31.43L98.1,84.7l.32-.45.31-.45Z"/><path class="cls-4" d="M96.55,82.89l-.3.42-.31.43,1.53,1.85.32-.45.31-.44Z"/><path class="cls-4" d="M95.94,83.74l-.31.42L97.15,86l.32-.44Z"/><path class="cls-4" d="M95.63,84.16c-.1.14-.2.29-.31.43L95,85l1.5,1.91.32-.45c.11-.14.21-.29.32-.44Z"/><path class="cls-4" d="M95,85l-.31.42-.32.42,1.48,2,.32-.44.33-.44Z"/><path class="cls-4" d="M94.38,85.85l-.31.42-.32.42,1.45,2,.33-.43.33-.44Z"/><path class="cls-4" d="M93.75,86.69l-.32.42,1.44,2,.33-.44Z"/><path class="cls-4" d="M93.43,87.11c-.1.14-.21.28-.32.41l1.43,2,.33-.43Z"/><path class="cls-4" d="M93.11,87.52l-.32.42s-.21.28-.32.41l1.4,2.06c.12-.14.34-.43.34-.43l.33-.44Z"/><path class="cls-4" d="M92.47,88.35l-.33.42-.32.41,1.38,2.09c.12-.14.34-.43.34-.43l.33-.43Z"/><path class="cls-4" d="M91.82,89.18l-.33.41,1.37,2.11c.12-.14.23-.28.34-.43Z"/><path class="cls-4" d="M91.49,89.59l-.32.41,1.36,2.13.33-.43Z"/><path class="cls-4" d="M91.17,90l-.33.41-.33.41L91.84,93c.12-.14.34-.43.34-.43l.35-.42Z"/><path class="cls-4" d="M90.51,90.82l-.33.4-.34.41,1.32,2.2.34-.43.34-.42Z"/><path class="cls-4" d="M89.84,91.63l-.33.4-.33.4,1.28,2.23c.12-.13.35-.41.35-.41s.23-.29.35-.42Z"/><path class="cls-4" d="M89.18,92.43c-.12.13-.23.27-.34.4l-.34.4s-.22.27-.34.4l1.25,2.28.35-.41.35-.42.35-.42Z"/><path class="cls-4" d="M88.16,93.63l-.33.39-.34.4,1.22,2.31c.12-.13.35-.41.35-.41s.24-.27.35-.41Z"/><path class="cls-4" d="M87.49,94.42l-.35.39-.34.39L88,97.55c.12-.13.35-.41.35-.41l.36-.41Z"/><path class="cls-4" d="M86.8,95.2l-.34.39-.35.39-.35.39,1.16,2.39.36-.4.36-.4.36-.41Z"/><path class="cls-4" d="M85.76,96.37l-.34.38-.35.38,1.13,2.43.36-.4.36-.4Z"/><path class="cls-4" d="M85.07,97.13l-.35.39-.35.38-.35.37,1.09,2.48.36-.39c.12-.14.37-.4.37-.4l.36-.4Z"/><path class="cls-4" d="M84,98.27l-.36.38-.35.37s-.24.25-.35.38L84,101.92l.36-.39.37-.39.37-.39Z"/><path class="cls-4" d="M83,99.4l-.36.37-.36.36,1,2.55.38-.38c.12-.13.24-.26.37-.38Z"/><path class="cls-4" d="M82.24,100.13l-.35.37-.36.37,1,2.58.37-.38.37-.39Z"/><path class="cls-4" d="M81.53,100.87l-.36.36,1,2.59.37-.37Z"/><path class="cls-4" d="M81.17,101.23l-.36.36-.37.36,1,2.62.37-.37.38-.38Z"/><path class="cls-4" d="M80.44,102l-.36.35-.36.36.92,2.65.38-.37.38-.37Z"/><path class="cls-4" d="M79.72,102.66l-.36.35-.37.35.89,2.68.38-.37.38-.36Z"/><path class="cls-4" d="M79,103.36l-.37.35.88,2.69.38-.36Z"/><path class="cls-4" d="M78.62,103.71l-.36.34-.37.35.85,2.72.38-.36.38-.36Z"/><path class="cls-4" d="M77.89,104.4l-.37.34-.37.34.82,2.74.38-.35.39-.35Z"/><path class="cls-4" d="M77.15,105.08l-.37.33-.37.34.78,2.77.39-.35.39-.35Z"/><path class="cls-4" d="M76.41,105.75l-.37.33-.38.33.76,2.8.39-.35.38-.34Z"/><path class="cls-4" d="M75.66,106.41l-.37.32-.37.33.72,2.82.39-.34.39-.33Z"/><path class="cls-4" d="M74.92,107.06l-.38.32-.38.32.7,2.85.39-.33.39-.34Z"/><path class="cls-4" d="M74.16,107.7l-.37.32-.38.31.66,2.88.39-.33.4-.33Z"/><path class="cls-4" d="M73.41,108.33c-.12.11-.25.21-.38.31l.65,2.89.39-.32Z"/><path class="cls-4" d="M73,108.64c-.12.11-.25.21-.38.31l-.38.31.62,2.91.39-.32.4-.32Z"/><path class="cls-4" d="M72.27,109.26l-.38.3-.38.3.58,2.94.4-.32.4-.31Z"/><path class="cls-4" d="M71.51,109.86l-.38.3.56,3,.4-.31Z"/><path class="cls-4" d="M71.13,110.16l-.38.3.54,3,.4-.3Z"/><path class="cls-4" d="M70.75,110.46l-.39.29.53,3,.4-.31Z"/><path class="cls-4" d="M70.36,110.75,70,111l.51,3,.4-.3Z"/><path class="cls-4" d="M70,111l-.39.29.5,3,.4-.3Z"/><path class="cls-4" d="M69.59,111.33l-.38.28-.38.28.46,3,.4-.3c.14-.09.27-.19.4-.29Z"/><path class="cls-4" d="M68.83,111.89l-.39.28.44,3,.41-.29Z"/><path class="cls-4" d="M68.44,112.17l-.39.28.43,3,.4-.28Z"/><path class="cls-4" d="M68.05,112.45l-.39.27.42,3,.4-.29Z"/><path class="cls-4" d="M67.66,112.72l-.38.27.39,3.06.41-.28Z"/><path class="cls-4" d="M67.28,113l-.39.27-.39.26.36,3.08.4-.28.41-.27Z"/><path class="cls-4" d="M66.5,113.52l-.39.26.34,3.09.41-.27Z"/><path class="cls-4" d="M66.11,113.78l-.39.26.32,3.1.41-.27Z"/><path class="cls-4" d="M65.72,114l-.39.25.3,3.11.41-.26Z"/><path class="cls-4" d="M65.33,114.29l-.4.25.3,3.12.4-.26Z"/><path class="cls-4" d="M64.93,114.54l-.39.25.28,3.13.41-.26Z"/><path class="cls-4" d="M64.54,114.79l-.39.25.26,3.14.41-.26Z"/><path class="cls-4" d="M64.15,115l-.39.24.23,3.15.42-.25Z"/><path class="cls-4" d="M63.76,115.28l-.4.24.22,3.16.41-.25Z"/><path class="cls-4" d="M63.36,115.52l-.39.23-.39.23.18,3.18.41-.24.41-.24Z"/><path class="cls-4" d="M62.58,116l-.4.23.17,3.19.41-.24Z"/><path class="cls-4" d="M62.18,116.21l-.39.23.14,3.19.42-.23Z"/><path class="cls-4" d="M61.79,116.44l-.4.22.13,3.21.41-.24Z"/><path class="cls-4" d="M61.39,116.66l-.4.21.11,3.22.42-.22Z"/><path class="cls-4" d="M61,116.87l-.39.22.09,3.23.41-.23Z"/><path class="cls-4" d="M60.6,117.09l-.4.21.07,3.24.42-.22Z"/><path class="cls-4" d="M60.2,117.3l-.4.21.06,3.25.41-.22Z"/><path class="cls-4" d="M59.8,117.51l-.4.2,0,3.26.42-.21Z"/><path class="cls-4" d="M59.4,117.71l-.39.2v3.27l.42-.21Z"/><path class="cls-4" d="M59,117.91l-.4.2v3.27l.41-.2Z"/><path class="cls-4" d="M58.61,118.11l-.4.19,0,3.29.42-.21Z"/><path class="cls-4" d="M58.21,118.3l-.4.19,0,3.3.42-.2Z"/><path class="cls-5" d="M2.33,25.44H120.54c1.81,20.93-28.65,77-62.73,93.05C24.27,100.68,2.33,47.48,2.33,25.44Z"/><polygon class="cls-6" points="14.3 37.01 6.05 75.78 3.31 78.25 12.56 34.73 14.3 37.01"/><polygon class="cls-7" points="27.22 37.01 14.3 37.01 12.56 34.73 30.51 34.73 27.22 37.01"/><polygon class="cls-8" points="6.05 75.78 18.97 75.78 21.25 78.25 3.31 78.25 6.05 75.78"/><polygon class="cls-9" points="24.27 50.86 27.22 37.01 30.51 34.73 27.58 48.49 24.27 50.86"/><polygon class="cls-10" points="18.97 75.78 22.43 59.54 24.69 62.11 21.25 78.25 18.97 75.78"/><polygon class="cls-11" points="59.75 37.01 46.82 37.01 44.89 34.73 62.83 34.73 59.75 37.01"/><polygon class="cls-11" points="43.88 50.86 24.27 50.86 27.58 48.49 41.96 48.49 43.88 50.86"/><polygon class="cls-12" points="46.82 37.01 43.88 50.86 41.96 48.49 44.89 34.73 46.82 37.01"/><polygon class="cls-13" points="22.43 59.54 42.03 59.54 39.06 62.11 24.69 62.11 22.43 59.54"/><polygon class="cls-14" points="42.03 59.54 38.58 75.78 35.63 78.25 39.06 62.11 42.03 59.54"/><polygon class="cls-8" points="38.58 75.78 51.5 75.78 53.57 78.25 35.63 78.25 38.58 75.78"/><polygon class="cls-15" points="51.5 75.78 59.75 37.01 62.83 34.73 53.57 78.25 51.5 75.78"/><polygon class="cls-16" points="38.58 75.78 51.5 75.78 59.75 37.01 46.82 37.01 43.88 50.86 24.27 50.86 27.22 37.01 14.3 37.01 6.05 75.78 18.97 75.78 22.43 59.54 42.03 59.54 38.58 75.78"/><polygon class="cls-2" points="120.66 37.13 100 37.13 98.67 34.85 127.67 34.85 120.66 37.13"/><polygon class="cls-17" points="96.36 55.76 120.66 37.13 127.67 34.85 99.48 56.46 96.36 55.76"/><polygon class="cls-18" points="100 37.13 90.66 47.56 91.16 43.23 98.67 34.85 100 37.13"/><polygon class="cls-19" points="108.91 75.91 96.36 55.76 99.48 56.46 113.14 78.38 108.91 75.91"/><polygon class="cls-20" points="90.66 47.56 85.76 37.13 87.23 34.85 91.16 43.23 90.66 47.56"/><polygon class="cls-21" points="85.76 37.13 70.39 37.13 65.98 34.85 87.23 34.85 85.76 37.13"/><polygon class="cls-8" points="92.89 75.91 108.91 75.91 113.14 78.38 91.17 78.38 92.89 75.91"/><polygon class="cls-3" points="70.39 37.13 81.48 55.76 78.24 55.47 65.98 34.85 70.39 37.13"/><polygon class="cls-22" points="87.12 64.18 92.89 75.91 91.17 78.38 86.11 68.08 87.12 64.18"/><polygon class="cls-14" points="81.48 55.76 35.92 104.43 31.18 107.5 78.24 55.47 81.48 55.76"/><polygon class="cls-23" points="31.18 107.5 87.12 64.5 86.06 68.55 33.73 107.48 31.18 107.5"/><polygon class="cls-16" points="37.16 102.91 39.55 101.06 87.12 64.5 92.89 75.91 108.91 75.91 96.36 55.76 120.66 37.13 100 37.13 90.66 47.56 85.76 37.13 70.39 37.13 81.48 55.76 37.16 102.91"/><polygon class="cls-1" points="11.21 9.43 14.26 9.43 16.21 0.28 13.16 0.28 12.46 3.55 7.84 3.55 8.53 0.28 5.48 0.28 3.54 9.43 6.59 9.43 7.4 5.6 12.03 5.6 11.21 9.43"/><polygon class="cls-1" points="16.78 9.43 25.94 9.43 26.36 7.46 20.25 7.46 20.6 5.81 26.33 5.81 26.73 3.91 21 3.91 21.35 2.26 27.47 2.26 27.89 0.28 18.72 0.28 16.78 9.43"/><path class="cls-1" d="M32.45,2.33h2.93c.74,0,1.06.39.93,1a1.25,1.25,0,0,1-1.35,1H32Zm-4.56,7.1h3.05l.65-3h2.79c.77,0,1.19.26.88,1.69a3.76,3.76,0,0,0-.11,1.36H38.5c-.29-.46-.22-1,0-2.84.13-1-.22-1.45-.76-1.64v0a2.53,2.53,0,0,0,1.9-2.09C40,1.31,39.41.28,37.16.28H29.83Z"/><path class="cls-1" d="M48.86,5.91a2.82,2.82,0,0,1-2.77,1.75c-2,0-2.26-1.29-1.94-2.8a3.11,3.11,0,0,1,3.13-2.81c1.73,0,1.95,1.1,2,1.76h3.39C52.67.64,50.5,0,47.71,0c-4,0-6.14,1.79-6.79,4.86s.85,4.85,4.72,4.85c4.33,0,5.81-1.83,6.6-3.8Z"/><path class="cls-1" d="M54,6.2c-.54,2.53,1.15,3.51,4.39,3.51s5.35-1,5.89-3.51L65.53.28H62.47L61.32,5.7a2.17,2.17,0,0,1-2.5,2c-1.4,0-2-.47-1.68-2L58.3.28h-3Z"/><polygon class="cls-1" points="65.96 9.43 74.59 9.43 75.04 7.3 69.47 7.3 70.96 0.28 67.91 0.28 65.96 9.43"/><polygon class="cls-1" points="76.37 9.43 85.53 9.43 85.95 7.46 79.84 7.46 80.19 5.81 85.92 5.81 86.32 3.91 80.59 3.91 80.95 2.26 87.06 2.26 87.48 0.28 78.31 0.28 76.37 9.43"/><polygon class="cls-1" points="79.58 16.38 80.17 16.38 92.6 6.67 93.97 9.43 97.75 9.43 94.78 4.68 100.52 0.28 95.64 0.28 93.44 2.74 92.28 0.28 88.66 0.28 91.27 4.68 79.58 16.38"/><path class="cls-1" d="M115.37.3h2.43l-2.32,9.15h-2.43Z"/><path class="cls-1" d="M111.5,7.88h5.79l-.5,1.56H111Z"/><path class="cls-1" d="M113.43.28h5.79l-.5,1.56h-5.79Z"/><path class="cls-1" d="M100.52,3.72a3.44,3.44,0,0,1,6.88,0A3.33,3.33,0,0,1,104,7.16,3.28,3.28,0,0,1,100.52,3.72Zm.86,0a2.44,2.44,0,0,0,2.56,2.6,2.5,2.5,0,0,0,2.6-2.63,2.58,2.58,0,0,0-5.16,0Zm1.8,1.88h-.81V1.89h2.08c.77,0,1.24.31,1.24,1.14,0,.67-.36,1-1,1l.89,1.57h-.93l-.82-1.49h-.64Zm1.09-2.12c.41,0,.61-.07.61-.54s-.44-.42-.8-.42h-.9v1Z"/><path class="cls-5" d="M85.58,114.47H82.83v-.92h6.59v.92H86.67v7.33H85.58Z"/><path class="cls-5" d="M90.36,113.55h1.5l2.6,6.93,2.61-6.93h1.5v8.25h-1v-6.87h0l-2.58,6.87H94l-2.58-6.87h0v6.87h-1Z"/></g></g></svg>