<svg xmlns="http://www.w3.org/2000/svg" viewBox="0 0 40.65 60.96"><defs><style>.cls-1{fill:#0a5ba9;}</style></defs><title>Asset 1</title><g id="Layer_2" data-name="Layer 2"><g id="Layer_1-2" data-name="Layer 1"><path class="cls-1" d="M20.33,61l-.18-.29Q11.88,46.28,3.61,31.9a33.86,33.86,0,0,1-2-3.66A20.28,20.28,0,0,1,.11,22.32,19.91,19.91,0,0,1,1.9,11.71a20.13,20.13,0,0,1,8-8.87A18.91,18.91,0,0,1,17.2.22,20,20,0,0,1,35.05,6.32a19.58,19.58,0,0,1,5.21,10,20.28,20.28,0,0,1-2.22,13.84c-1.91,3.36-3.88,6.68-5.8,10Q26.37,50.44,20.51,60.66Z"/></g></g></svg>