<svg id="Layer_1" data-name="Layer 1" xmlns="http://www.w3.org/2000/svg" viewBox="0 0 40.63 61"><defs><style>.cls-1{fill:#fff;}.cls-2{fill:#d25f15;}</style></defs><title>icon-map-pin-orange-hover</title><g id="Layer_1-2" data-name="Layer 1-2"><g id="Layer_2-2" data-name="Layer 2-2"><g id="Layer_1-2-2" data-name="Layer 1-2-2"><path class="cls-1" d="M20.33,60Q12.2,45.86,4,31.69a34.38,34.38,0,0,1-2-3.62A20,20,0,0,1,.61,22.31,19.42,19.42,0,0,1,2.35,12a19.64,19.64,0,0,1,7.81-8.65A18.43,18.43,0,0,1,17.27.75a19.57,19.57,0,0,1,17.41,6,19,19,0,0,1,5.09,9.75A19.78,19.78,0,0,1,37.56,30C36.38,32,35.16,34.12,34,36.19L31.77,40Q26.06,50,20.33,60Z" transform="translate(0 0)"/><path class="cls-2" d="M20.42,0V1A19.05,19.05,0,0,1,34.33,7.06a18.6,18.6,0,0,1,5,9.49,19.28,19.28,0,0,1-2.15,13.16c-1.19,2.09-2.42,4.2-3.62,6.25-.73,1.25-1.46,2.49-2.18,3.75C27.69,46.13,24,52.62,20.33,59Q12.41,45.23,4.46,31.41a33.7,33.7,0,0,1-1.93-3.52A19.82,19.82,0,0,1,1.1,22.25,18.85,18.85,0,0,1,2.81,12.17a19.13,19.13,0,0,1,7.61-8.44,17.8,17.8,0,0,1,6.94-2.48A18.49,18.49,0,0,1,20.42,1V0m0,0A19.42,19.42,0,0,0,17.2.26,18.9,18.9,0,0,0,9.9,2.88a20.15,20.15,0,0,0-8,8.87A19.9,19.9,0,0,0,.11,22.36a20.54,20.54,0,0,0,1.5,5.92,34.14,34.14,0,0,0,2,3.66q8.28,14.39,16.54,28.77l.18.29.18-.3Q26.38,50.47,32.2,40.2c1.92-3.32,3.89-6.64,5.8-10a20.23,20.23,0,0,0,2.26-13.84,19.6,19.6,0,0,0-5.21-10A20,20,0,0,0,20.42,0Z" transform="translate(0 0)"/></g></g></g></svg>