<svg xmlns="http://www.w3.org/2000/svg" viewBox="0 0 40.64 61.04"><defs><style>.cls-1{fill:#d25f15;}</style></defs><title>Asset 1</title><g id="Layer_2" data-name="Layer 2"><g id="Layer_1-2" data-name="Layer 1"><g id="Layer_2-2" data-name="Layer 2"><g id="Layer_1-2-2" data-name="Layer 1-2"><path class="cls-1" d="M20.33,61l-.18-.29Q11.89,46.32,3.61,31.94a34.14,34.14,0,0,1-2-3.66,20.45,20.45,0,0,1-1.5-5.92A19.9,19.9,0,0,1,1.9,11.75a20.15,20.15,0,0,1,8-8.87A18.9,18.9,0,0,1,17.2.26a20,20,0,0,1,17.85,6.1,19.6,19.6,0,0,1,5.21,10A20.28,20.28,0,0,1,38,30.2c-1.91,3.36-3.88,6.68-5.8,10Q26.37,50.47,20.51,60.7Z"/></g></g></g></g></svg>