<svg xmlns="http://www.w3.org/2000/svg" viewBox="0 0 44 44"><defs><style>.cls-1{opacity:0.3;}.cls-2{fill:#d26128;}.cls-3{fill:#fff;}</style></defs><title>Asset 2</title><g id="Layer_2" data-name="Layer 2"><g id="Layer_1-2" data-name="Layer 1"><g class="cls-1"><path class="cls-2" d="M22,1A21,21,0,1,1,1,22,21,21,0,0,1,22,1m0-1A22,22,0,1,0,44,22,22,22,0,0,0,22,0Z"/></g><g class="cls-1"><path class="cls-2" d="M22,4.52A17.48,17.48,0,1,1,4.52,22,17.5,17.5,0,0,1,22,4.52m0-1A18.48,18.48,0,1,0,40.48,22,18.48,18.48,0,0,0,22,3.52Z"/></g><circle class="cls-3" cx="22" cy="22" r="14.46"/><path class="cls-2" d="M22,8A14,14,0,1,1,8,22,14,14,0,0,1,22,8m0-1A15,15,0,1,0,37,22,15,15,0,0,0,22,7Z"/></g></g></svg>