<svg xmlns="http://www.w3.org/2000/svg" viewBox="0 0 50.63 61"><defs><style>.cls-1{fill:#0a5ba9;}.cls-2{fill:#419639;}</style></defs><title>Asset 1</title><g id="Layer_2" data-name="Layer 2"><g id="Layer_1-2" data-name="Layer 1"><path class="cls-1" d="M35.05,6.36A20,20,0,0,0,20.43,0,20.79,20.79,0,0,0,17.2.26,18.9,18.9,0,0,0,9.9,2.88a20.15,20.15,0,0,0-8,8.87A19.9,19.9,0,0,0,.11,22.36a20.54,20.54,0,0,0,1.5,5.92,34.14,34.14,0,0,0,2,3.66q8.28,14.39,16.54,28.77l.18.29.18-.3Q26.38,50.47,32.2,40.2c1.92-3.32,3.89-6.64,5.8-10a20.23,20.23,0,0,0,2.26-13.84A19.6,19.6,0,0,0,35.05,6.36Z"/><path class="cls-2" d="M50.26,16.36a19.6,19.6,0,0,0-5.21-10A20,20,0,0,0,30.58,0a21.69,21.69,0,0,1,6.91,5,21.58,21.58,0,0,1,5.74,11,22.33,22.33,0,0,1-2.49,15.21c-1.2,2.11-2.44,4.23-3.63,6.28-.73,1.25-1.46,2.49-2.17,3.72-2.63,4.64-5.3,9.32-8,14l3.18,5.53.18.29.18-.3Q36.38,50.47,42.2,40.2c1.92-3.32,3.89-6.64,5.8-10A20.23,20.23,0,0,0,50.26,16.36Z"/></g></g></svg>