<svg xmlns="http://www.w3.org/2000/svg" viewBox="0 0 299.6 123.27"><defs><style>.cls-1{fill:#007ac2;}.cls-2{fill:#00a886;}</style></defs><title>Asset 1</title><g id="Layer_2" data-name="Layer 2"><g id="Layer_1-2" data-name="Layer 1"><path class="cls-1" d="M12.52,0H.08V53.73H33.73V42H13.64V0Z"/><path class="cls-1" d="M39.6,0V53.73H53.16V0Z"/><path class="cls-1" d="M62.58,0V53.73H88.65c8.9,0,19.3-4.2,19.3-16,0-6.23-2.87-10.95-8-13.29a12.16,12.16,0,0,0,5.51-10.51C105.49,4.67,99.59,0,87.93,0Zm23,11c4.67,0,6.66,1.43,6.66,4.79,0,4.14-3.15,5-5.8,5H76.15V11ZM87.36,30.8c4.72,0,7,2,7,6.23,0,2.43-.75,5.66-7.24,5.66h-11V30.8Z"/><path class="cls-1" d="M154.87,0H115.24V53.73h41.32V42H128.8V31.59h24.95v-11H128.8V11.76H156V0Z"/><path class="cls-1" d="M165.27,0V53.73h13.56V33.61H189c4.89,0,6.71,1.66,7.47,6.83.18,1.29.29,2.71.4,4.09.24,3,.48,6.15,1.48,8.51l.29.69h14.21L211.66,52c-1.51-2.17-1.73-6.81-1.87-9.88l-.09-1.74c-.43-6.15-2.48-10.19-6.06-12.13,4.45-2.59,6.71-6.91,6.71-12.89C210.35,6.45,203.54,0,194.16,0Zm24.85,11c4.61,0,6.67,1.86,6.67,6,0,4.37-2,6.23-6.67,6.23H178.83V11Z"/><path class="cls-1" d="M250.31,0H211.76V11.76h13.05v42h13.57v-42h13.05V0Z"/><path class="cls-1" d="M297.75,0H284.42s-7.27,15.41-8.89,18.83C273.91,15.41,266.58,0,266.58,0H251.25l17.32,32.84V53.73h13.57V33.13L299.6,0Z"/><path class="cls-2" d="M12.46,68.62H0v53.81H33.79V110.66H13.58v-42Z"/><path class="cls-2" d="M52,68.43H39.5v54H53.13v-54Z"/><path class="cls-2" d="M107.38,68.43H95.6V100.6l-20-32.17H62.53v54h12.9V90.36l19.94,32.09H108.5v-54Z"/><path class="cls-2" d="M165.57,68.43h-14.7L132.24,88.19V68.43H118.62v54h13.62V105.11l5.24-5.3,15.16,22.64h17.05l-22.9-32.33,21.46-21.69Z"/><path class="cls-2" d="M174.93,68.14a4.6,4.6,0,1,1-4.72,4.58A4.55,4.55,0,0,1,174.93,68.14Zm0,8.21a3.62,3.62,0,1,0-3.46-3.63A3.49,3.49,0,0,0,174.93,76.35Zm-1.83-6.21H175c1.29,0,2,.41,2,1.53A1.28,1.28,0,0,1,175.7,73l1.38,2.25H176l-1.25-2.2h-.64v2.2h-1Zm1,2.15H175c.58,0,1-.08,1-.71s-.59-.64-1.06-.64h-.86Z"/><path class="cls-1" d="M243.61,108.43a18.21,18.21,0,0,1-18.22-18.21c0-10.81,15.39-18.84,18.21-31.78,2.82,12.94,18.22,21,18.22,31.78A18.2,18.2,0,0,1,243.61,108.43Z"/><path class="cls-2" d="M206.25,67.12a40.49,40.49,0,0,0,37.36,56.15c.72,0,1.47,0,2.19-.06a53.3,53.3,0,0,0,.34-5.68A51.8,51.8,0,0,0,206.25,67.12Zm3.07,16a34,34,0,0,1,1.07-8.37,44.31,44.31,0,0,1,29.47,41.76A33.53,33.53,0,0,1,209.32,83.1Z"/><path class="cls-2" d="M280.77,67.12a51.8,51.8,0,0,0-39.88,50.41,48.53,48.53,0,0,0,.34,5.68c.71,0,1.44.06,2.18.06a40.49,40.49,0,0,0,37.36-56.15Zm-33.6,49.37a44.3,44.3,0,0,1,29.46-41.76,33.49,33.49,0,0,1-29.46,41.76Z"/><path class="cls-1" d="M290.69,67.16A4.6,4.6,0,1,1,286,71.74,4.56,4.56,0,0,1,290.69,67.16Zm0,8.21a3.62,3.62,0,1,0-3.47-3.63A3.5,3.5,0,0,0,290.69,75.37Zm-1.84-6.21h1.95c1.29,0,2,.41,2,1.53a1.28,1.28,0,0,1-1.35,1.37l1.38,2.25h-1.07l-1.25-2.2h-.64v2.2h-1Zm1,2.15h.9c.58,0,1-.08,1-.71s-.59-.64-1.06-.64h-.85Z"/></g></g></svg>