<svg xmlns="http://www.w3.org/2000/svg" viewBox="0 0 55.3 55.3"><defs><style>.cls-1{fill:#393839;stroke:#393839;stroke-width:5px;}.cls-1,.cls-2,.cls-3{stroke-miterlimit:10;}.cls-2,.cls-3{fill:none;stroke:#fff;}.cls-2{stroke-width:7px;}.cls-3{stroke-width:4px;}.cls-4{fill:#fff;}</style></defs><title>Asset 1</title><g id="Layer_2" data-name="Layer 2"><g id="Layer_1-2" data-name="Layer 1"><circle class="cls-1" cx="27.65" cy="27.65" r="25.15"/><path class="cls-2" d="M19,13.57"/><path class="cls-3" d="M19,13.57a16.55,16.55,0,1,1-6.81,8.28"/><polygon class="cls-4" points="15.68 16.05 24.7 16.74 22.02 12.24 19.33 7.75 15.68 16.05"/><path class="cls-4" d="M27,35.59l0-.07-3.91-6.8a8,8,0,0,1-.47-.87,4.79,4.79,0,0,1-.36-1.4A4.7,4.7,0,0,1,22.69,24a4.76,4.76,0,0,1,1.89-2.1,4.47,4.47,0,0,1,1.72-.62,4.72,4.72,0,0,1,4.22,1.44,4.63,4.63,0,0,1,1.23,2.37,4.79,4.79,0,0,1-.52,3.27c-.45.79-.92,1.58-1.37,2.37l-2.77,4.83Z"/></g></g></svg>