<svg xmlns="http://www.w3.org/2000/svg" viewBox="0 0 65.6 53.3"><defs><style>.cls-1{fill:#fff;}</style></defs><title>Asset 2</title><g id="Layer_2" data-name="Layer 2"><g id="Layer_1-2" data-name="Layer 1"><path class="cls-1" d="M20.63,53.3C45.38,53.3,58.92,32.79,58.92,15c0-.58,0-1.16,0-1.74a27.38,27.38,0,0,0,6.71-7,26.86,26.86,0,0,1-7.73,2.12A13.51,13.51,0,0,0,63.79,1a27,27,0,0,1-8.55,3.27A13.47,13.47,0,0,0,32.3,16.52,38.21,38.21,0,0,1,4.57,2.46a13.47,13.47,0,0,0,4.17,18,13.36,13.36,0,0,1-6.11-1.68v.17A13.46,13.46,0,0,0,13.42,32.1a13.44,13.44,0,0,1-6.08.23,13.47,13.47,0,0,0,12.57,9.35A27,27,0,0,1,3.2,47.45,27.4,27.4,0,0,1,0,47.26a38.1,38.1,0,0,0,20.63,6"/></g></g></svg>